<svg xmlns="http://www.w3.org/2000/svg" viewBox="0 0 1000 1000"><defs><style>.cls-1{fill:#231f20;}.cls-2{fill:#fff;}.cls-3{fill:#ce1126;}</style></defs><g id="Layer_2" data-name="Layer 2"><g id="IIT-RedWhiteOnBlack-Stacked-Motorsports"><rect class="cls-1" width="1000" height="1000"/><path class="cls-1" d="M303.328,698.15521H286.39l-3.90577-28.74512q-.4995-3.85839-.72656-6.76562-.31786-2.86084-.63574-8.12891a93.30116,93.30116,0,0,1-2.543,10.53516q-.36329,1.13672-.54492,1.95312l-9.03662,31.15137h-12.0791l-9.03662-31.15137a13.34621,13.34621,0,0,0-.54493-1.95312,65.8336,65.8336,0,0,1-2.49755-10.53516q-.364,4.99659-.68116,7.44727-.13623,1.27294-.40869,3.72363-.27246,2.45216-.40869,3.72363l-3.90527,28.74512H222.58821l10.26269-66.48047h17.937l10.03564,34.28418q.27246.95361.36328,1.22657a47.04683,47.04683,0,0,1,1.771,7.81054,33.91383,33.91383,0,0,1,.68115-3.99609q.18091-.68115,1.3623-5.13184l10.12647-34.19336h17.98291Z"/><path class="cls-1" d="M360.59016,675.35931a22.7344,22.7344,0,0,1-1.95263,9.39942,24.52681,24.52681,0,0,1-5.58545,7.99218,27.03472,27.03472,0,0,1-27.97266,5.4043,25.58076,25.58076,0,0,1-8.28711-5.38086,21.72851,21.72851,0,0,1-5.47217-8.01562,22.12954,22.12954,0,0,1-1.95263-9.39942,23.36476,23.36476,0,0,1,1.95263-9.49121,22.65647,22.65647,0,0,1,5.49463-7.99219,25.307,25.307,0,0,1,8.26465-5.3125,28.99867,28.99867,0,0,1,19.708,0,25.31738,25.31738,0,0,1,8.26465,5.3125,21.16917,21.16917,0,0,1,5.58545,7.99219A23.373,23.373,0,0,1,360.59016,675.35931Zm-16.07519,0q0-5.13135-2.58838-8.083a9.00268,9.00268,0,0,0-6.99317-2.95215,8.74389,8.74389,0,0,0-6.99316,2.95215q-2.58839,2.86083-2.58838,8.083,0,5.08595,2.49756,7.99219a9.87052,9.87052,0,0,0,14.168,0A12.08652,12.08652,0,0,0,344.515,675.35931Z"/><path class="cls-1" d="M372.44221,698.15521l-.09082-34.4209h-6.85693V652.29095h6.85693V638.622h16.0752v13.66894h6.76611v11.44336h-6.76611v34.4209Z"/><path class="cls-1" d="M451.36506,675.35931a22.73424,22.73424,0,0,1-1.95263,9.39942,24.52666,24.52666,0,0,1-5.58545,7.99218,27.03472,27.03472,0,0,1-27.97266,5.4043,25.58086,25.58086,0,0,1-8.28711-5.38086,21.72851,21.72851,0,0,1-5.47217-8.01562,22.12969,22.12969,0,0,1-1.95263-9.39942,23.36493,23.36493,0,0,1,1.95263-9.49121,22.6566,22.6566,0,0,1,5.49463-7.99219,25.30711,25.30711,0,0,1,8.26465-5.3125,28.99867,28.99867,0,0,1,19.708,0,25.31717,25.31717,0,0,1,8.26465,5.3125,21.16917,21.16917,0,0,1,5.58545,7.99219A23.37286,23.37286,0,0,1,451.36506,675.35931Zm-16.07519,0q0-5.13135-2.58838-8.083a9.00267,9.00267,0,0,0-6.99316-2.95215,8.74389,8.74389,0,0,0-6.99317,2.95215q-2.58837,2.86083-2.58838,8.083,0,5.08595,2.49756,7.99219a9.87052,9.87052,0,0,0,14.168,0A12.08652,12.08652,0,0,0,435.28987,675.35931Z"/><path class="cls-1" d="M460.76545,698.15521V652.29095h15.25782v10.80762a19.742,19.742,0,0,1,6.40283-8.85547,16.66326,16.66326,0,0,1,9.94482-2.95117,15.16662,15.16662,0,0,1,1.95264.09082q.49952.0454.9082.06836c.27246.01563.62012.05273,1.04444.11328l-1.54395,14.71289a23.75025,23.75025,0,0,0-2.90625-.77246q-1.81641-.18018-2.6792-.18164-5.90331,0-9.12744,3.63281-3.17871,3.58887-3.17871,10.21778v18.98144Z"/><path class="cls-1" d="M497.95637,694.34076l3.36084-12.35156a24.7515,24.7515,0,0,0,7.81055,4.72558,22.954,22.954,0,0,0,8.53711,1.67676,8.33834,8.33834,0,0,0,4.63183-1.042,3.0412,3.0412,0,0,0,1.58887-2.76563q0-3.03661-6.40234-4.5332-2.22657-.498-3.36035-.86133-7.40333-2.18115-10.49024-5.3164a11.07034,11.07034,0,0,1-3.36035-8.36036,13.01527,13.01527,0,0,1,5.041-10.67675q4.85742-3.99756,13.57714-3.998a43.812,43.812,0,0,1,8.99122,1.00293,46.38343,46.38343,0,0,1,9.30957,3.19238l-3.36036,11.15332a26.38494,26.38494,0,0,0-6.585-3.31738,19.22515,19.22515,0,0,0-6.584-1.13281,8.23833,8.23833,0,0,0-4.22363.86132,2.70947,2.70947,0,0,0-1.36231,2.49317q0,2.35694,6.40332,4.08008,2.0874.63573,2.13379.63476,8.35546,2.35841,11.71582,5.58008a12.23456,12.23456,0,0,1,3.26953,8.84473,13.80323,13.80323,0,0,1-5.40332,11.34179q-5.5415,4.35353-14.30469,4.3545a42.67132,42.67132,0,0,1-11.19335-1.38575A37.62007,37.62007,0,0,1,497.95637,694.34076Z"/><path class="cls-1" d="M547.31819,718.40814V652.38666h14.89453v7.65625a22.70566,22.70566,0,0,1,6.94727-6.88184,16.51767,16.51767,0,0,1,8.583-2.23242,22.45145,22.45145,0,0,1,8.71875,1.6123,18.132,18.132,0,0,1,6.72071,4.88086q5.6748,6.49512,5.67578,17.9375,0,10.98927-5.67578,17.75489A18.90786,18.90786,0,0,1,586.62,698.246a19.7397,19.7397,0,0,1-8.332,1.68067,18.594,18.594,0,0,1-9.49122-2.13477,19.41369,19.41369,0,0,1-6.49316-7.084,25.71978,25.71978,0,0,1,.36328,3.36035q.08935,1.3169.09082,4.81347v19.52637Zm14.34961-43.02637q0,5.34814,2.85449,8.47461,2.62647,3.03809,7.61231,3.03711a9.88382,9.88382,0,0,0,7.70214-3.03711,12.443,12.443,0,0,0,2.76465-8.47461q0-5.39208-2.76465-8.42968a9.89931,9.89931,0,0,0-7.70214-3.082q-4.93945,0-7.61231,3.082Q561.66731,669.9433,561.6678,675.38177Z"/><path class="cls-1" d="M657.25618,675.35931a22.74172,22.74172,0,0,1-1.95215,9.39942,24.52927,24.52927,0,0,1-5.58643,7.99218,27.03467,27.03467,0,0,1-27.97265,5.4043,25.58076,25.58076,0,0,1-8.28711-5.38086,21.7212,21.7212,0,0,1-5.47168-8.01562,22.115,22.115,0,0,1-1.95313-9.39942,23.349,23.349,0,0,1,1.95313-9.49121,22.6487,22.6487,0,0,1,5.49414-7.99219,25.312,25.312,0,0,1,8.26465-5.3125,28.99864,28.99864,0,0,1,19.708,0,25.312,25.312,0,0,1,8.26465,5.3125,21.18239,21.18239,0,0,1,5.58643,7.99219A23.38061,23.38061,0,0,1,657.25618,675.35931Zm-16.07569,0q0-5.13135-2.58789-8.083a9.00479,9.00479,0,0,0-6.99316-2.95215,8.74185,8.74185,0,0,0-6.99316,2.95215q-2.58839,2.86083-2.58887,8.083,0,5.08595,2.498,7.99219a9.87052,9.87052,0,0,0,14.168,0A12.08893,12.08893,0,0,0,641.18049,675.35931Z"/><path class="cls-1" d="M666.65657,698.15521V652.29095h15.25781v10.80762a19.73417,19.73417,0,0,1,6.40234-8.85547,16.66481,16.66481,0,0,1,9.94532-2.95117,15.16306,15.16306,0,0,1,1.95215.09082q.4995.0454.9082.06836c.27246.01563.62012.05273,1.04492.11328l-1.54394,14.71289a23.79668,23.79668,0,0,0-2.90625-.77246q-1.81788-.18018-2.67969-.18164-5.90332,0-9.127,3.63281-3.18017,3.58887-3.17871,10.21778v18.98144Z"/><path class="cls-1" d="M710.6595,698.15521l-.09082-34.4209h-6.85742V652.29095h6.85742V638.622h16.07519v13.66894h6.76563v11.44336h-6.76563v34.4209Z"/><path class="cls-1" d="M736.679,694.34076l3.36035-12.35156a24.7515,24.7515,0,0,0,7.81055,4.72558,22.954,22.954,0,0,0,8.53711,1.67676,8.33837,8.33837,0,0,0,4.63183-1.042,3.0412,3.0412,0,0,0,1.58887-2.76563q0-3.03661-6.40234-4.5332-2.22657-.498-3.36036-.86133-7.40331-2.18115-10.49023-5.3164a11.07034,11.07034,0,0,1-3.36035-8.36036,13.01529,13.01529,0,0,1,5.041-10.67675q4.85744-3.99756,13.57715-3.998a43.81181,43.81181,0,0,1,8.99121,1.00293,46.383,46.383,0,0,1,9.30957,3.19238l-3.36035,11.15332a26.38494,26.38494,0,0,0-6.585-3.31738,19.22519,19.22519,0,0,0-6.584-1.13281,8.2384,8.2384,0,0,0-4.22364.86132,2.70948,2.70948,0,0,0-1.3623,2.49317q0,2.35694,6.40332,4.08008,2.0874.63573,2.13379.63476,8.35546,2.35841,11.71582,5.58008a12.23456,12.23456,0,0,1,3.26953,8.84473,13.80323,13.80323,0,0,1-5.40332,11.34179q-5.54151,4.35353-14.30469,4.3545a42.67145,42.67145,0,0,1-11.19336-1.38575A37.60969,37.60969,0,0,1,736.679,694.34076Z"/><path class="cls-2" d="M303.328,698.15521H286.39l-3.90577-28.74512q-.4995-3.85839-.72656-6.76562-.31786-2.86084-.63574-8.12891a93.30116,93.30116,0,0,1-2.543,10.53516q-.36329,1.13672-.54492,1.95312l-9.03662,31.15137h-12.0791l-9.03662-31.15137a13.34621,13.34621,0,0,0-.54493-1.95312,65.8336,65.8336,0,0,1-2.49755-10.53516q-.364,4.99659-.68116,7.44727-.13623,1.27294-.40869,3.72363-.27246,2.45216-.40869,3.72363l-3.90527,28.74512H222.58821l10.26269-66.48047h17.937l10.03564,34.28418q.27246.95361.36328,1.22657a47.04683,47.04683,0,0,1,1.771,7.81054,33.91383,33.91383,0,0,1,.68115-3.99609q.18091-.68115,1.3623-5.13184l10.12647-34.19336h17.98291Z"/><path class="cls-2" d="M360.59016,675.35931a22.7344,22.7344,0,0,1-1.95263,9.39942,24.52681,24.52681,0,0,1-5.58545,7.99218,27.03472,27.03472,0,0,1-27.97266,5.4043,25.58076,25.58076,0,0,1-8.28711-5.38086,21.72851,21.72851,0,0,1-5.47217-8.01562,22.12954,22.12954,0,0,1-1.95263-9.39942,23.36476,23.36476,0,0,1,1.95263-9.49121,22.65647,22.65647,0,0,1,5.49463-7.99219,25.307,25.307,0,0,1,8.26465-5.3125,28.99867,28.99867,0,0,1,19.708,0,25.31738,25.31738,0,0,1,8.26465,5.3125,21.16917,21.16917,0,0,1,5.58545,7.99219A23.373,23.373,0,0,1,360.59016,675.35931Zm-16.07519,0q0-5.13135-2.58838-8.083a9.00268,9.00268,0,0,0-6.99317-2.95215,8.74389,8.74389,0,0,0-6.99316,2.95215q-2.58839,2.86083-2.58838,8.083,0,5.08595,2.49756,7.99219a9.87052,9.87052,0,0,0,14.168,0A12.08652,12.08652,0,0,0,344.515,675.35931Z"/><path class="cls-2" d="M372.44221,698.15521l-.09082-34.4209h-6.85693V652.29095h6.85693V638.622h16.0752v13.66894h6.76611v11.44336h-6.76611v34.4209Z"/><path class="cls-2" d="M451.36506,675.35931a22.73424,22.73424,0,0,1-1.95263,9.39942,24.52666,24.52666,0,0,1-5.58545,7.99218,27.03472,27.03472,0,0,1-27.97266,5.4043,25.58086,25.58086,0,0,1-8.28711-5.38086,21.72851,21.72851,0,0,1-5.47217-8.01562,22.12969,22.12969,0,0,1-1.95263-9.39942,23.36493,23.36493,0,0,1,1.95263-9.49121,22.6566,22.6566,0,0,1,5.49463-7.99219,25.30711,25.30711,0,0,1,8.26465-5.3125,28.99867,28.99867,0,0,1,19.708,0,25.31717,25.31717,0,0,1,8.26465,5.3125,21.16917,21.16917,0,0,1,5.58545,7.99219A23.37286,23.37286,0,0,1,451.36506,675.35931Zm-16.07519,0q0-5.13135-2.58838-8.083a9.00267,9.00267,0,0,0-6.99316-2.95215,8.74389,8.74389,0,0,0-6.99317,2.95215q-2.58837,2.86083-2.58838,8.083,0,5.08595,2.49756,7.99219a9.87052,9.87052,0,0,0,14.168,0A12.08652,12.08652,0,0,0,435.28987,675.35931Z"/><path class="cls-2" d="M460.76545,698.15521V652.29095h15.25782v10.80762a19.742,19.742,0,0,1,6.40283-8.85547,16.66326,16.66326,0,0,1,9.94482-2.95117,15.16662,15.16662,0,0,1,1.95264.09082q.49952.0454.9082.06836c.27246.01563.62012.05273,1.04444.11328l-1.54395,14.71289a23.75025,23.75025,0,0,0-2.90625-.77246q-1.81641-.18018-2.6792-.18164-5.90331,0-9.12744,3.63281-3.17871,3.58887-3.17871,10.21778v18.98144Z"/><path class="cls-2" d="M497.95637,694.34076l3.36084-12.35156a24.7515,24.7515,0,0,0,7.81055,4.72558,22.954,22.954,0,0,0,8.53711,1.67676,8.33834,8.33834,0,0,0,4.63183-1.042,3.0412,3.0412,0,0,0,1.58887-2.76563q0-3.03661-6.40234-4.5332-2.22657-.498-3.36035-.86133-7.40333-2.18115-10.49024-5.3164a11.07034,11.07034,0,0,1-3.36035-8.36036,13.01527,13.01527,0,0,1,5.041-10.67675q4.85742-3.99756,13.57714-3.998a43.812,43.812,0,0,1,8.99122,1.00293,46.38343,46.38343,0,0,1,9.30957,3.19238l-3.36036,11.15332a26.38494,26.38494,0,0,0-6.585-3.31738,19.22515,19.22515,0,0,0-6.584-1.13281,8.23833,8.23833,0,0,0-4.22363.86132,2.70947,2.70947,0,0,0-1.36231,2.49317q0,2.35694,6.40332,4.08008,2.0874.63573,2.13379.63476,8.35546,2.35841,11.71582,5.58008a12.23456,12.23456,0,0,1,3.26953,8.84473,13.80323,13.80323,0,0,1-5.40332,11.34179q-5.5415,4.35353-14.30469,4.3545a42.67132,42.67132,0,0,1-11.19335-1.38575A37.62007,37.62007,0,0,1,497.95637,694.34076Z"/><path class="cls-2" d="M547.31819,718.40814V652.38666h14.89453v7.65625a22.70566,22.70566,0,0,1,6.94727-6.88184,16.51767,16.51767,0,0,1,8.583-2.23242,22.45145,22.45145,0,0,1,8.71875,1.6123,18.132,18.132,0,0,1,6.72071,4.88086q5.6748,6.49512,5.67578,17.9375,0,10.98927-5.67578,17.75489A18.90786,18.90786,0,0,1,586.62,698.246a19.7397,19.7397,0,0,1-8.332,1.68067,18.594,18.594,0,0,1-9.49122-2.13477,19.41369,19.41369,0,0,1-6.49316-7.084,25.71978,25.71978,0,0,1,.36328,3.36035q.08935,1.3169.09082,4.81347v19.52637Zm14.34961-43.02637q0,5.34814,2.85449,8.47461,2.62647,3.03809,7.61231,3.03711a9.88382,9.88382,0,0,0,7.70214-3.03711,12.443,12.443,0,0,0,2.76465-8.47461q0-5.39208-2.76465-8.42968a9.89931,9.89931,0,0,0-7.70214-3.082q-4.93945,0-7.61231,3.082Q561.66731,669.9433,561.6678,675.38177Z"/><path class="cls-2" d="M657.25618,675.35931a22.74172,22.74172,0,0,1-1.95215,9.39942,24.52927,24.52927,0,0,1-5.58643,7.99218,27.03467,27.03467,0,0,1-27.97265,5.4043,25.58076,25.58076,0,0,1-8.28711-5.38086,21.7212,21.7212,0,0,1-5.47168-8.01562,22.115,22.115,0,0,1-1.95313-9.39942,23.349,23.349,0,0,1,1.95313-9.49121,22.6487,22.6487,0,0,1,5.49414-7.99219,25.312,25.312,0,0,1,8.26465-5.3125,28.99864,28.99864,0,0,1,19.708,0,25.312,25.312,0,0,1,8.26465,5.3125,21.18239,21.18239,0,0,1,5.58643,7.99219A23.38061,23.38061,0,0,1,657.25618,675.35931Zm-16.07569,0q0-5.13135-2.58789-8.083a9.00479,9.00479,0,0,0-6.99316-2.95215,8.74185,8.74185,0,0,0-6.99316,2.95215q-2.58839,2.86083-2.58887,8.083,0,5.08595,2.498,7.99219a9.87052,9.87052,0,0,0,14.168,0A12.08893,12.08893,0,0,0,641.18049,675.35931Z"/><path class="cls-2" d="M666.65657,698.15521V652.29095h15.25781v10.80762a19.73417,19.73417,0,0,1,6.40234-8.85547,16.66481,16.66481,0,0,1,9.94532-2.95117,15.16306,15.16306,0,0,1,1.95215.09082q.4995.0454.9082.06836c.27246.01563.62012.05273,1.04492.11328l-1.54394,14.71289a23.79668,23.79668,0,0,0-2.90625-.77246q-1.81788-.18018-2.67969-.18164-5.90332,0-9.127,3.63281-3.18017,3.58887-3.17871,10.21778v18.98144Z"/><path class="cls-2" d="M710.6595,698.15521l-.09082-34.4209h-6.85742V652.29095h6.85742V638.622h16.07519v13.66894h6.76563v11.44336h-6.76563v34.4209Z"/><path class="cls-2" d="M736.679,694.34076l3.36035-12.35156a24.7515,24.7515,0,0,0,7.81055,4.72558,22.954,22.954,0,0,0,8.53711,1.67676,8.33837,8.33837,0,0,0,4.63183-1.042,3.0412,3.0412,0,0,0,1.58887-2.76563q0-3.03661-6.40234-4.5332-2.22657-.498-3.36036-.86133-7.40331-2.18115-10.49023-5.3164a11.07034,11.07034,0,0,1-3.36035-8.36036,13.01529,13.01529,0,0,1,5.041-10.67675q4.85744-3.99756,13.57715-3.998a43.81181,43.81181,0,0,1,8.99121,1.00293,46.383,46.383,0,0,1,9.30957,3.19238l-3.36035,11.15332a26.38494,26.38494,0,0,0-6.585-3.31738,19.22519,19.22519,0,0,0-6.584-1.13281,8.2384,8.2384,0,0,0-4.22364.86132,2.70948,2.70948,0,0,0-1.3623,2.49317q0,2.35694,6.40332,4.08008,2.0874.63573,2.13379.63476,8.35546,2.35841,11.71582,5.58008a12.23456,12.23456,0,0,1,3.26953,8.84473,13.80323,13.80323,0,0,1-5.40332,11.34179q-5.54151,4.35353-14.30469,4.3545a42.67145,42.67145,0,0,1-11.19336-1.38575A37.60969,37.60969,0,0,1,736.679,694.34076Z"/><path class="cls-2" d="M303.328,698.15521H286.39l-3.90577-28.74512q-.4995-3.85839-.72656-6.76562-.31786-2.86084-.63574-8.12891a93.30116,93.30116,0,0,1-2.543,10.53516q-.36329,1.13672-.54492,1.95312l-9.03662,31.15137h-12.0791l-9.03662-31.15137a13.34621,13.34621,0,0,0-.54493-1.95312,65.8336,65.8336,0,0,1-2.49755-10.53516q-.364,4.99659-.68116,7.44727-.13623,1.27294-.40869,3.72363-.27246,2.45216-.40869,3.72363l-3.90527,28.74512H222.58821l10.26269-66.48047h17.937l10.03564,34.28418q.27246.95361.36328,1.22657a47.04683,47.04683,0,0,1,1.771,7.81054,33.91383,33.91383,0,0,1,.68115-3.99609q.18091-.68115,1.3623-5.13184l10.12647-34.19336h17.98291Z"/><path class="cls-2" d="M360.59016,675.35931a22.7344,22.7344,0,0,1-1.95263,9.39942,24.52681,24.52681,0,0,1-5.58545,7.99218,27.03472,27.03472,0,0,1-27.97266,5.4043,25.58076,25.58076,0,0,1-8.28711-5.38086,21.72851,21.72851,0,0,1-5.47217-8.01562,22.12954,22.12954,0,0,1-1.95263-9.39942,23.36476,23.36476,0,0,1,1.95263-9.49121,22.65647,22.65647,0,0,1,5.49463-7.99219,25.307,25.307,0,0,1,8.26465-5.3125,28.99867,28.99867,0,0,1,19.708,0,25.31738,25.31738,0,0,1,8.26465,5.3125,21.16917,21.16917,0,0,1,5.58545,7.99219A23.373,23.373,0,0,1,360.59016,675.35931Zm-16.07519,0q0-5.13135-2.58838-8.083a9.00268,9.00268,0,0,0-6.99317-2.95215,8.74389,8.74389,0,0,0-6.99316,2.95215q-2.58839,2.86083-2.58838,8.083,0,5.08595,2.49756,7.99219a9.87052,9.87052,0,0,0,14.168,0A12.08652,12.08652,0,0,0,344.515,675.35931Z"/><path class="cls-2" d="M372.44221,698.15521l-.09082-34.4209h-6.85693V652.29095h6.85693V638.622h16.0752v13.66894h6.76611v11.44336h-6.76611v34.4209Z"/><path class="cls-2" d="M451.36506,675.35931a22.73424,22.73424,0,0,1-1.95263,9.39942,24.52666,24.52666,0,0,1-5.58545,7.99218,27.03472,27.03472,0,0,1-27.97266,5.4043,25.58086,25.58086,0,0,1-8.28711-5.38086,21.72851,21.72851,0,0,1-5.47217-8.01562,22.12969,22.12969,0,0,1-1.95263-9.39942,23.36493,23.36493,0,0,1,1.95263-9.49121,22.6566,22.6566,0,0,1,5.49463-7.99219,25.30711,25.30711,0,0,1,8.26465-5.3125,28.99867,28.99867,0,0,1,19.708,0,25.31717,25.31717,0,0,1,8.26465,5.3125,21.16917,21.16917,0,0,1,5.58545,7.99219A23.37286,23.37286,0,0,1,451.36506,675.35931Zm-16.07519,0q0-5.13135-2.58838-8.083a9.00267,9.00267,0,0,0-6.99316-2.95215,8.74389,8.74389,0,0,0-6.99317,2.95215q-2.58837,2.86083-2.58838,8.083,0,5.08595,2.49756,7.99219a9.87052,9.87052,0,0,0,14.168,0A12.08652,12.08652,0,0,0,435.28987,675.35931Z"/><path class="cls-2" d="M460.76545,698.15521V652.29095h15.25782v10.80762a19.742,19.742,0,0,1,6.40283-8.85547,16.66326,16.66326,0,0,1,9.94482-2.95117,15.16662,15.16662,0,0,1,1.95264.09082q.49952.0454.9082.06836c.27246.01563.62012.05273,1.04444.11328l-1.54395,14.71289a23.75025,23.75025,0,0,0-2.90625-.77246q-1.81641-.18018-2.6792-.18164-5.90331,0-9.12744,3.63281-3.17871,3.58887-3.17871,10.21778v18.98144Z"/><path class="cls-2" d="M497.95637,694.34076l3.36084-12.35156a24.7515,24.7515,0,0,0,7.81055,4.72558,22.954,22.954,0,0,0,8.53711,1.67676,8.33834,8.33834,0,0,0,4.63183-1.042,3.0412,3.0412,0,0,0,1.58887-2.76563q0-3.03661-6.40234-4.5332-2.22657-.498-3.36035-.86133-7.40333-2.18115-10.49024-5.3164a11.07034,11.07034,0,0,1-3.36035-8.36036,13.01527,13.01527,0,0,1,5.041-10.67675q4.85742-3.99756,13.57714-3.998a43.812,43.812,0,0,1,8.99122,1.00293,46.38343,46.38343,0,0,1,9.30957,3.19238l-3.36036,11.15332a26.38494,26.38494,0,0,0-6.585-3.31738,19.22515,19.22515,0,0,0-6.584-1.13281,8.23833,8.23833,0,0,0-4.22363.86132,2.70947,2.70947,0,0,0-1.36231,2.49317q0,2.35694,6.40332,4.08008,2.0874.63573,2.13379.63476,8.35546,2.35841,11.71582,5.58008a12.23456,12.23456,0,0,1,3.26953,8.84473,13.80323,13.80323,0,0,1-5.40332,11.34179q-5.5415,4.35353-14.30469,4.3545a42.67132,42.67132,0,0,1-11.19335-1.38575A37.62007,37.62007,0,0,1,497.95637,694.34076Z"/><path class="cls-2" d="M547.31819,718.40814V652.38666h14.89453v7.65625a22.70566,22.70566,0,0,1,6.94727-6.88184,16.51767,16.51767,0,0,1,8.583-2.23242,22.45145,22.45145,0,0,1,8.71875,1.6123,18.132,18.132,0,0,1,6.72071,4.88086q5.6748,6.49512,5.67578,17.9375,0,10.98927-5.67578,17.75489A18.90786,18.90786,0,0,1,586.62,698.246a19.7397,19.7397,0,0,1-8.332,1.68067,18.594,18.594,0,0,1-9.49122-2.13477,19.41369,19.41369,0,0,1-6.49316-7.084,25.71978,25.71978,0,0,1,.36328,3.36035q.08935,1.3169.09082,4.81347v19.52637Zm14.34961-43.02637q0,5.34814,2.85449,8.47461,2.62647,3.03809,7.61231,3.03711a9.88382,9.88382,0,0,0,7.70214-3.03711,12.443,12.443,0,0,0,2.76465-8.47461q0-5.39208-2.76465-8.42968a9.89931,9.89931,0,0,0-7.70214-3.082q-4.93945,0-7.61231,3.082Q561.66731,669.9433,561.6678,675.38177Z"/><path class="cls-2" d="M657.25618,675.35931a22.74172,22.74172,0,0,1-1.95215,9.39942,24.52927,24.52927,0,0,1-5.58643,7.99218,27.03467,27.03467,0,0,1-27.97265,5.4043,25.58076,25.58076,0,0,1-8.28711-5.38086,21.7212,21.7212,0,0,1-5.47168-8.01562,22.115,22.115,0,0,1-1.95313-9.39942,23.349,23.349,0,0,1,1.95313-9.49121,22.6487,22.6487,0,0,1,5.49414-7.99219,25.312,25.312,0,0,1,8.26465-5.3125,28.99864,28.99864,0,0,1,19.708,0,25.312,25.312,0,0,1,8.26465,5.3125,21.18239,21.18239,0,0,1,5.58643,7.99219A23.38061,23.38061,0,0,1,657.25618,675.35931Zm-16.07569,0q0-5.13135-2.58789-8.083a9.00479,9.00479,0,0,0-6.99316-2.95215,8.74185,8.74185,0,0,0-6.99316,2.95215q-2.58839,2.86083-2.58887,8.083,0,5.08595,2.498,7.99219a9.87052,9.87052,0,0,0,14.168,0A12.08893,12.08893,0,0,0,641.18049,675.35931Z"/><path class="cls-2" d="M666.65657,698.15521V652.29095h15.25781v10.80762a19.73417,19.73417,0,0,1,6.40234-8.85547,16.66481,16.66481,0,0,1,9.94532-2.95117,15.16306,15.16306,0,0,1,1.95215.09082q.4995.0454.9082.06836c.27246.01563.62012.05273,1.04492.11328l-1.54394,14.71289a23.79668,23.79668,0,0,0-2.90625-.77246q-1.81788-.18018-2.67969-.18164-5.90332,0-9.127,3.63281-3.18017,3.58887-3.17871,10.21778v18.98144Z"/><path class="cls-2" d="M710.6595,698.15521l-.09082-34.4209h-6.85742V652.29095h6.85742V638.622h16.07519v13.66894h6.76563v11.44336h-6.76563v34.4209Z"/><path class="cls-2" d="M736.679,694.34076l3.36035-12.35156a24.7515,24.7515,0,0,0,7.81055,4.72558,22.954,22.954,0,0,0,8.53711,1.67676,8.33837,8.33837,0,0,0,4.63183-1.042,3.0412,3.0412,0,0,0,1.58887-2.76563q0-3.03661-6.40234-4.5332-2.22657-.498-3.36036-.86133-7.40331-2.18115-10.49023-5.3164a11.07034,11.07034,0,0,1-3.36035-8.36036,13.01529,13.01529,0,0,1,5.041-10.67675q4.85744-3.99756,13.57715-3.998a43.81181,43.81181,0,0,1,8.99121,1.00293,46.383,46.383,0,0,1,9.30957,3.19238l-3.36035,11.15332a26.38494,26.38494,0,0,0-6.585-3.31738,19.22519,19.22519,0,0,0-6.584-1.13281,8.2384,8.2384,0,0,0-4.22364.86132,2.70948,2.70948,0,0,0-1.3623,2.49317q0,2.35694,6.40332,4.08008,2.0874.63573,2.13379.63476,8.35546,2.35841,11.71582,5.58008a12.23456,12.23456,0,0,1,3.26953,8.84473,13.80323,13.80323,0,0,1-5.40332,11.34179q-5.54151,4.35353-14.30469,4.3545a42.67145,42.67145,0,0,1-11.19336-1.38575A37.60969,37.60969,0,0,1,736.679,694.34076Z"/><path class="cls-2" d="M303.328,698.15521H286.39l-3.90577-28.74512q-.4995-3.85839-.72656-6.76562-.31786-2.86084-.63574-8.12891a93.30116,93.30116,0,0,1-2.543,10.53516q-.36329,1.13672-.54492,1.95312l-9.03662,31.15137h-12.0791l-9.03662-31.15137a13.34621,13.34621,0,0,0-.54493-1.95312,65.8336,65.8336,0,0,1-2.49755-10.53516q-.364,4.99659-.68116,7.44727-.13623,1.27294-.40869,3.72363-.27246,2.45216-.40869,3.72363l-3.90527,28.74512H222.58821l10.26269-66.48047h17.937l10.03564,34.28418q.27246.95361.36328,1.22657a47.04683,47.04683,0,0,1,1.771,7.81054,33.91383,33.91383,0,0,1,.68115-3.99609q.18091-.68115,1.3623-5.13184l10.12647-34.19336h17.98291Z"/><path class="cls-2" d="M360.59016,675.35931a22.7344,22.7344,0,0,1-1.95263,9.39942,24.52681,24.52681,0,0,1-5.58545,7.99218,27.03472,27.03472,0,0,1-27.97266,5.4043,25.58076,25.58076,0,0,1-8.28711-5.38086,21.72851,21.72851,0,0,1-5.47217-8.01562,22.12954,22.12954,0,0,1-1.95263-9.39942,23.36476,23.36476,0,0,1,1.95263-9.49121,22.65647,22.65647,0,0,1,5.49463-7.99219,25.307,25.307,0,0,1,8.26465-5.3125,28.99867,28.99867,0,0,1,19.708,0,25.31738,25.31738,0,0,1,8.26465,5.3125,21.16917,21.16917,0,0,1,5.58545,7.99219A23.373,23.373,0,0,1,360.59016,675.35931Zm-16.07519,0q0-5.13135-2.58838-8.083a9.00268,9.00268,0,0,0-6.99317-2.95215,8.74389,8.74389,0,0,0-6.99316,2.95215q-2.58839,2.86083-2.58838,8.083,0,5.08595,2.49756,7.99219a9.87052,9.87052,0,0,0,14.168,0A12.08652,12.08652,0,0,0,344.515,675.35931Z"/><path class="cls-2" d="M372.44221,698.15521l-.09082-34.4209h-6.85693V652.29095h6.85693V638.622h16.0752v13.66894h6.76611v11.44336h-6.76611v34.4209Z"/><path class="cls-2" d="M451.36506,675.35931a22.73424,22.73424,0,0,1-1.95263,9.39942,24.52666,24.52666,0,0,1-5.58545,7.99218,27.03472,27.03472,0,0,1-27.97266,5.4043,25.58086,25.58086,0,0,1-8.28711-5.38086,21.72851,21.72851,0,0,1-5.47217-8.01562,22.12969,22.12969,0,0,1-1.95263-9.39942,23.36493,23.36493,0,0,1,1.95263-9.49121,22.6566,22.6566,0,0,1,5.49463-7.99219,25.30711,25.30711,0,0,1,8.26465-5.3125,28.99867,28.99867,0,0,1,19.708,0,25.31717,25.31717,0,0,1,8.26465,5.3125,21.16917,21.16917,0,0,1,5.58545,7.99219A23.37286,23.37286,0,0,1,451.36506,675.35931Zm-16.07519,0q0-5.13135-2.58838-8.083a9.00267,9.00267,0,0,0-6.99316-2.95215,8.74389,8.74389,0,0,0-6.99317,2.95215q-2.58837,2.86083-2.58838,8.083,0,5.08595,2.49756,7.99219a9.87052,9.87052,0,0,0,14.168,0A12.08652,12.08652,0,0,0,435.28987,675.35931Z"/><path class="cls-2" d="M460.76545,698.15521V652.29095h15.25782v10.80762a19.742,19.742,0,0,1,6.40283-8.85547,16.66326,16.66326,0,0,1,9.94482-2.95117,15.16662,15.16662,0,0,1,1.95264.09082q.49952.0454.9082.06836c.27246.01563.62012.05273,1.04444.11328l-1.54395,14.71289a23.75025,23.75025,0,0,0-2.90625-.77246q-1.81641-.18018-2.6792-.18164-5.90331,0-9.12744,3.63281-3.17871,3.58887-3.17871,10.21778v18.98144Z"/><path class="cls-2" d="M497.95637,694.34076l3.36084-12.35156a24.7515,24.7515,0,0,0,7.81055,4.72558,22.954,22.954,0,0,0,8.53711,1.67676,8.33834,8.33834,0,0,0,4.63183-1.042,3.0412,3.0412,0,0,0,1.58887-2.76563q0-3.03661-6.40234-4.5332-2.22657-.498-3.36035-.86133-7.40333-2.18115-10.49024-5.3164a11.07034,11.07034,0,0,1-3.36035-8.36036,13.01527,13.01527,0,0,1,5.041-10.67675q4.85742-3.99756,13.57714-3.998a43.812,43.812,0,0,1,8.99122,1.00293,46.38343,46.38343,0,0,1,9.30957,3.19238l-3.36036,11.15332a26.38494,26.38494,0,0,0-6.585-3.31738,19.22515,19.22515,0,0,0-6.584-1.13281,8.23833,8.23833,0,0,0-4.22363.86132,2.70947,2.70947,0,0,0-1.36231,2.49317q0,2.35694,6.40332,4.08008,2.0874.63573,2.13379.63476,8.35546,2.35841,11.71582,5.58008a12.23456,12.23456,0,0,1,3.26953,8.84473,13.80323,13.80323,0,0,1-5.40332,11.34179q-5.5415,4.35353-14.30469,4.3545a42.67132,42.67132,0,0,1-11.19335-1.38575A37.62007,37.62007,0,0,1,497.95637,694.34076Z"/><path class="cls-2" d="M547.31819,718.40814V652.38666h14.89453v7.65625a22.70566,22.70566,0,0,1,6.94727-6.88184,16.51767,16.51767,0,0,1,8.583-2.23242,22.45145,22.45145,0,0,1,8.71875,1.6123,18.132,18.132,0,0,1,6.72071,4.88086q5.6748,6.49512,5.67578,17.9375,0,10.98927-5.67578,17.75489A18.90786,18.90786,0,0,1,586.62,698.246a19.7397,19.7397,0,0,1-8.332,1.68067,18.594,18.594,0,0,1-9.49122-2.13477,19.41369,19.41369,0,0,1-6.49316-7.084,25.71978,25.71978,0,0,1,.36328,3.36035q.08935,1.3169.09082,4.81347v19.52637Zm14.34961-43.02637q0,5.34814,2.85449,8.47461,2.62647,3.03809,7.61231,3.03711a9.88382,9.88382,0,0,0,7.70214-3.03711,12.443,12.443,0,0,0,2.76465-8.47461q0-5.39208-2.76465-8.42968a9.89931,9.89931,0,0,0-7.70214-3.082q-4.93945,0-7.61231,3.082Q561.66731,669.9433,561.6678,675.38177Z"/><path class="cls-2" d="M657.25618,675.35931a22.74172,22.74172,0,0,1-1.95215,9.39942,24.52927,24.52927,0,0,1-5.58643,7.99218,27.03467,27.03467,0,0,1-27.97265,5.4043,25.58076,25.58076,0,0,1-8.28711-5.38086,21.7212,21.7212,0,0,1-5.47168-8.01562,22.115,22.115,0,0,1-1.95313-9.39942,23.349,23.349,0,0,1,1.95313-9.49121,22.6487,22.6487,0,0,1,5.49414-7.99219,25.312,25.312,0,0,1,8.26465-5.3125,28.99864,28.99864,0,0,1,19.708,0,25.312,25.312,0,0,1,8.26465,5.3125,21.18239,21.18239,0,0,1,5.58643,7.99219A23.38061,23.38061,0,0,1,657.25618,675.35931Zm-16.07569,0q0-5.13135-2.58789-8.083a9.00479,9.00479,0,0,0-6.99316-2.95215,8.74185,8.74185,0,0,0-6.99316,2.95215q-2.58839,2.86083-2.58887,8.083,0,5.08595,2.498,7.99219a9.87052,9.87052,0,0,0,14.168,0A12.08893,12.08893,0,0,0,641.18049,675.35931Z"/><path class="cls-2" d="M666.65657,698.15521V652.29095h15.25781v10.80762a19.73417,19.73417,0,0,1,6.40234-8.85547,16.66481,16.66481,0,0,1,9.94532-2.95117,15.16306,15.16306,0,0,1,1.95215.09082q.4995.0454.9082.06836c.27246.01563.62012.05273,1.04492.11328l-1.54394,14.71289a23.79668,23.79668,0,0,0-2.90625-.77246q-1.81788-.18018-2.67969-.18164-5.90332,0-9.127,3.63281-3.18017,3.58887-3.17871,10.21778v18.98144Z"/><path class="cls-2" d="M710.6595,698.15521l-.09082-34.4209h-6.85742V652.29095h6.85742V638.622h16.07519v13.66894h6.76563v11.44336h-6.76563v34.4209Z"/><path class="cls-2" d="M736.679,694.34076l3.36035-12.35156a24.7515,24.7515,0,0,0,7.81055,4.72558,22.954,22.954,0,0,0,8.53711,1.67676,8.33837,8.33837,0,0,0,4.63183-1.042,3.0412,3.0412,0,0,0,1.58887-2.76563q0-3.03661-6.40234-4.5332-2.22657-.498-3.36036-.86133-7.40331-2.18115-10.49023-5.3164a11.07034,11.07034,0,0,1-3.36035-8.36036,13.01529,13.01529,0,0,1,5.041-10.67675q4.85744-3.99756,13.57715-3.998a43.81181,43.81181,0,0,1,8.99121,1.00293,46.383,46.383,0,0,1,9.30957,3.19238l-3.36035,11.15332a26.38494,26.38494,0,0,0-6.585-3.31738,19.22519,19.22519,0,0,0-6.584-1.13281,8.2384,8.2384,0,0,0-4.22364.86132,2.70948,2.70948,0,0,0-1.3623,2.49317q0,2.35694,6.40332,4.08008,2.0874.63573,2.13379.63476,8.35546,2.35841,11.71582,5.58008a12.23456,12.23456,0,0,1,3.26953,8.84473,13.80323,13.80323,0,0,1-5.40332,11.34179q-5.54151,4.35353-14.30469,4.3545a42.67145,42.67145,0,0,1-11.19336-1.38575A37.60969,37.60969,0,0,1,736.679,694.34076Z"/><path class="cls-3" d="M398.58316,603.5284H338.99038L441.58757,372.7515h59.59277ZM382.19,372.7515H322.59719L220,603.5284h59.59277Zm257.19689-46.46514H579.89406L456.984,602.754h59.49278Zm120.12731,0L780,279.82121H363.53365l-20.48583,46.46515Z"/></g></g></svg>