<svg xmlns="http://www.w3.org/2000/svg" viewBox="0 0 1000 1000"><defs><style>.cls-1{fill:#fff;}.cls-2{fill:#231f20;}.cls-3{fill:none;stroke:#ce1126;stroke-miterlimit:10;stroke-width:8px;}</style></defs><g id="Layer_2" data-name="Layer 2"><g id="IIT-RedBlackOnWhite-Outline-Motorsports"><rect class="cls-1" width="1000" height="1000"/><path class="cls-1" d="M433.45117,758.85352,536.93848,526.07715h61.78125L495.23291,758.85352Zm-118.99023,0L417.94727,526.07715H479.729L376.24268,758.85352Zm236.98437-.77442L674.35547,481.61133H437.51416l21.36768-48.46485H877.53418L856.167,481.61133H736.03613L613.126,758.0791Z"/><path class="cls-2" d="M876,434.14639l-20.48584,46.46512H735.38684l-122.91,276.46765H552.984l122.91-276.46765H439.04779l20.48584-46.46512H876M597.1803,527.07672,494.58313,757.85352H434.99036l102.59723-230.7768H597.1803m-118.99036,0L375.59277,757.85352H316l102.59717-230.7768h59.59277M879.0675,432.14639H458.22961l-.526,1.19315-20.48584,46.46515-1.23755,2.80682H672.81616L551.15643,756.26666l-1.25036,2.8125h63.8703l.52795-1.18756L736.6864,482.61151H856.81812l.526-1.19311L877.83,434.95322l1.23754-2.80683ZM600.25818,525.07672H536.288l-.52795,1.1875L433.16284,757.04108l-1.25036,2.81244h63.97027l.528-1.1875,102.5971-230.77686,1.25037-2.81244Zm-118.99036,0H417.29755l-.528,1.1875L314.17249,757.04108l-1.25043,2.81244H376.8924l.52789-1.1875L480.01746,527.88916l1.25036-2.81244Z"/><path class="cls-1" d="M408.68164,735.35352,512.61328,501.57715h62.876L471.55762,735.35352Zm-118.99023,0L393.62256,501.57715h62.876L352.56738,735.35352Zm236.98437-.77442L649.58594,458.11133H412.74707l21.80859-49.46485H854.30078l-21.80859,49.46485H712.36133L589.45117,734.5791Z"/><path class="cls-2" d="M852,410.14639l-20.48584,46.46515H711.38684l-122.91,276.46762H528.984l122.91-276.46762H415.04779l20.48584-46.46515H852M573.1803,503.07672,470.58313,733.85352H410.99036l102.59723-230.7768H573.1803m-118.99036,0L351.59277,733.85352H292l102.59717-230.7768h59.59277m402.41138-95.93033H433.57764l-.78913,1.78977-20.48584,46.46515-1.8562,4.21023H647.27722L526.24268,731.86047l-1.87555,4.21869h66.059l.79187-1.78131L713.33618,459.61154h120.134l.78907-1.78976,20.48584-46.46515,1.8562-4.21024Zm-278.8042,92.93033H511.63824l-.79193,1.78125L408.24908,732.63483l-1.87554,4.21869h66.159l.79193-1.78132L575.92163,504.29541l1.87549-4.21869Zm-118.99036,0h-66.159l-.79194,1.78125L289.25867,732.63483l-1.87549,4.21869h66.159l.79193-1.78132,102.5971-230.77679,1.87555-4.21869Z"/><path class="cls-1" d="M383.91211,711.85352,488.2876,477.07666h63.97119l-104.376,234.77686Zm-118.99023,0L369.29736,477.07666h63.97071L328.89258,711.85352Zm236.98437-.77442L624.81641,434.61133H387.98047l22.249-50.46485H831.06738l-22.249,50.46485H688.68652L565.77637,711.0791Z"/><path class="cls-2" d="M828,386.14642l-20.48584,46.46515H687.38684l-122.91,276.46759H504.984l122.91-276.46759H391.04773l20.486-46.46515H828m-278.81964,92.9303L446.58319,709.85358H386.99036L489.58759,479.07672h59.59277m-118.99042,0L327.59277,709.85358H268L370.59717,479.07672h59.59277m403.94519-96.9303H408.92566l-1.05206,2.38633-20.4859,46.46517-2.475,5.61365H621.73828L501.32892,707.45422l-2.50067,5.62494h68.2478l1.05591-2.37506L689.986,436.61157H810.12219l1.052-2.38632L831.66,387.76007l2.4751-5.61365Zm-278.79907,92.9303H486.9884l-1.0559,2.37512L383.33527,708.22864l-2.50068,5.62494h68.34772l1.05591-2.37506L552.83539,480.70166l2.50067-5.62494Zm-118.99042,0H367.998l-1.05591,2.37512L264.34491,708.22864l-2.50067,5.62494h68.34765l1.056-2.37506L433.845,480.70166l2.50067-5.62494Z"/><path class="cls-1" d="M359.14307,688.35352,463.96289,452.57666h65.06543L424.20752,688.35352Zm-118.99024,0L344.97266,452.57666h65.06445L305.21729,688.35352Zm236.98389-.77442L600.04688,411.11133H363.21338l22.69043-51.46485H807.834l-22.68945,51.46485H665.01074L542.10059,687.5791Z"/><path class="cls-2" d="M804,362.14642l-20.48584,46.46515H663.38684l-122.91,276.46759H480.984l122.91-276.46759H367.04773l20.486-46.46515H804M525.18036,455.07666,422.58319,685.85358H362.99036L465.58759,455.07666h59.59277m-118.99042,0L303.59277,685.85358H244L346.59717,455.07666h59.59277m405.47888-97.93024H384.27374l-1.31518,2.98291-20.4859,46.46518-3.09375,7.01706H596.19934L476.41516,683.048l-3.12591,7.03119h70.43658l1.31982-2.96881L666.63586,413.61157H786.77405l1.31518-2.98291,20.48584-46.46515,3.09375-7.01709ZM532.87506,450.07666h-70.5365l-1.31982,2.96884L358.42151,683.82239l-3.12592,7.03119h70.53656l1.31983-2.96881L529.74915,457.10782l3.12591-7.03116Zm-118.99042,0h-70.5365l-1.31982,2.96884L239.43115,683.82239l-3.12591,7.03119h70.5365l1.31982-2.96881L410.75873,457.10782l3.12591-7.03116Z"/><path class="cls-3" d="M456.984,661.07918l122.91-276.46763H343.04782l20.48583-46.46514H780l-20.48584,46.46514H639.38685L516.47679,661.07918ZM501.18034,431.0767H441.58757L338.99038,661.85359h59.59278ZM279.59277,661.85359H220L322.59719,431.0767H382.19Z"/></g></g></svg>