<?xml version="1.0" encoding="utf-8"?>
<!-- Generator: Adobe Illustrator 25.2.0, SVG Export Plug-In . SVG Version: 6.00 Build 0)  -->
<svg version="1.1" id="Layer_1" xmlns="http://www.w3.org/2000/svg" xmlns:xlink="http://www.w3.org/1999/xlink" x="0px" y="0px"
	 viewBox="0 0 1000 1000" style="enable-background:new 0 0 1000 1000;" xml:space="preserve">
<style type="text/css">
	.st0{fill:none;}
	.st1{fill:#FFFFFF;}
	.st2{clip-path:url(#SVGID_2_);}
	.st3{fill:#231F20;}
</style>
<symbol  id="IIT" viewBox="-280 -161.9 560 323.8">
	<path class="st0" d="M-101.4,161.9H-161L-58.4-68.9H1.2L-101.4,161.9z M-117.8-68.9h-59.6L-280,161.9h59.6L-117.8-68.9z
		 M139.4-115.4H79.9L-43,161.1h59.5L139.4-115.4z M259.5-115.4l20.5-46.5h-416.5l-20.5,46.5C-157-115.4,259.5-115.4,259.5-115.4z"/>
</symbol>
<g id="Layer_2_1_">
	<g id="IIT-BlackOnWhite-Stacked-Motorsports">
		<rect class="st1" width="1000" height="1000"/>
		<g id="IIT-Stacked">
			<g>
				<g>
					<defs>
						<rect id="SVGID_1_" x="220" y="279.8" width="560" height="323.7"/>
					</defs>
					<clipPath id="SVGID_2_">
						<use xlink:href="#SVGID_1_"  style="overflow:visible;"/>
					</clipPath>
					<g class="st2">
						<g>
							<defs>
								<rect id="SVGID_3_" x="220" y="279.8" width="560" height="323.7"/>
							</defs>
							<clipPath id="SVGID_4_">
								<use xlink:href="#SVGID_3_"  style="overflow:visible;"/>
							</clipPath>
							<g style="clip-path:url(#SVGID_4_);">
								
									<use xlink:href="#IIT"  width="560" height="323.8" x="-280" y="-161.9" transform="matrix(1 0 0 1 500 441.6748)" style="overflow:visible;"/>
							</g>
						</g>
					</g>
				</g>
			</g>
		</g>
		<g id="IIT-Stacked-2">
			<path class="st3" d="M303.3,698.2h-16.9l-3.9-28.7c-0.3-2.6-0.6-4.8-0.7-6.8c-0.2-1.9-0.4-4.6-0.6-8.1c-0.6,3.6-1.5,7.1-2.5,10.5
				c-0.2,0.8-0.4,1.4-0.5,2l-9,31.2h-12.1l-9-31.2c-0.1-0.7-0.3-1.3-0.5-2c-1.1-3.4-2-7-2.5-10.5c-0.2,3.3-0.5,5.8-0.7,7.4
				c-0.1,0.8-0.2,2.1-0.4,3.7c-0.2,1.6-0.3,2.9-0.4,3.7l-3.9,28.7h-16.8l10.3-66.5h17.9l10,34.3c0.2,0.6,0.3,1,0.4,1.2
				c0.8,2.5,1.4,5.2,1.8,7.8c0.1-1.3,0.4-2.7,0.7-4c0.1-0.5,0.6-2.2,1.4-5.1l10.1-34.2h18L303.3,698.2z"/>
			<path class="st3" d="M360.6,675.4c0,3.2-0.6,6.4-2,9.4c-1.3,3-3.2,5.7-5.6,8c-7.5,7-18.4,9.1-28,5.4c-3.1-1.2-5.9-3.1-8.3-5.4
				c-2.4-2.2-4.3-5-5.5-8c-1.3-3-2-6.2-2-9.4c0-3.3,0.6-6.5,2-9.5c1.2-3,3.1-5.8,5.5-8c2.4-2.3,5.2-4.1,8.3-5.3
				c6.4-2.3,13.3-2.3,19.7,0c3.1,1.2,5.9,3,8.3,5.3c2.5,2.2,4.4,4.9,5.6,8C359.9,668.9,360.6,672.1,360.6,675.4z M344.5,675.4
				c0-3.4-0.9-6.1-2.6-8.1c-1.8-2-4.3-3-7-3c-2.7-0.1-5.2,1-7,3c-1.7,1.9-2.6,4.6-2.6,8.1c0,3.4,0.8,6.1,2.5,8c3.8,3.9,10,4,14,0.2
				c0.1-0.1,0.1-0.1,0.2-0.2C343.8,681.1,344.7,678.2,344.5,675.4z"/>
			<path class="st3" d="M372.4,698.2l-0.1-34.4h-6.9v-11.4h6.9v-13.7h16.1v13.7h6.8v11.4h-6.8v34.4H372.4z"/>
			<path class="st3" d="M451.4,675.4c0,3.2-0.6,6.4-2,9.4c-1.3,3-3.2,5.7-5.6,8c-7.5,7-18.4,9.1-28,5.4c-3.1-1.2-5.9-3.1-8.3-5.4
				c-2.4-2.2-4.3-5-5.5-8c-1.3-3-2-6.2-2-9.4c0-3.3,0.6-6.5,2-9.5c1.2-3,3.1-5.8,5.5-8c2.4-2.3,5.2-4.1,8.3-5.3
				c6.4-2.3,13.3-2.3,19.7,0c3.1,1.2,5.9,3,8.3,5.3c2.5,2.2,4.4,4.9,5.6,8C450.7,668.9,451.4,672.1,451.4,675.4z M435.3,675.4
				c0-3.4-0.9-6.1-2.6-8.1c-1.8-2-4.3-3-7-3c-2.7-0.1-5.2,1-7,3c-1.7,1.9-2.6,4.6-2.6,8.1c0,3.4,0.8,6.1,2.5,8c3.8,3.9,10,4,14,0.2
				c0.1-0.1,0.1-0.1,0.2-0.2C434.6,681.1,435.4,678.2,435.3,675.4L435.3,675.4z"/>
			<path class="st3" d="M460.8,698.2v-45.9H476v10.8c1.3-3.5,3.5-6.6,6.4-8.9c2.9-2,6.4-3.1,9.9-3c0.7,0,1.3,0,2,0.1
				c0.3,0,0.6,0.1,0.9,0.1s0.6,0.1,1,0.1l-1.5,14.7c-1-0.3-1.9-0.6-2.9-0.8c-1.2-0.1-2.1-0.2-2.7-0.2c-3.9,0-7,1.2-9.1,3.6
				c-2.1,2.4-3.2,5.8-3.2,10.2v19h-16V698.2z"/>
			<path class="st3" d="M498,694.3l3.4-12.4c2.3,2,4.9,3.6,7.8,4.7c2.7,1.1,5.6,1.7,8.5,1.7c1.6,0.1,3.2-0.3,4.6-1
				c1-0.5,1.6-1.6,1.6-2.8c0-2-2.1-3.5-6.4-4.5c-1.5-0.3-2.6-0.6-3.4-0.9c-4.9-1.5-8.4-3.2-10.5-5.3c-2.3-2.2-3.5-5.2-3.4-8.4
				c-0.1-4.2,1.8-8.1,5-10.7c3.2-2.7,7.8-4,13.6-4c3,0,6,0.4,9,1c3.2,0.7,6.3,1.8,9.3,3.2l-3.4,11.2c-2-1.4-4.2-2.5-6.6-3.3
				c-2.1-0.8-4.3-1.1-6.6-1.1c-1.5-0.1-2.9,0.2-4.2,0.9c-0.9,0.5-1.4,1.5-1.4,2.5c0,1.6,2.1,2.9,6.4,4.1c1.4,0.4,2.1,0.6,2.1,0.6
				c5.6,1.6,9.5,3.4,11.7,5.6c2.2,2.4,3.4,5.6,3.3,8.8c0.1,4.4-1.9,8.6-5.4,11.3c-3.7,2.9-8.5,4.4-14.3,4.4c-3.8,0-7.5-0.4-11.2-1.4
				C504.3,697.6,501,696.2,498,694.3z"/>
			<path class="st3" d="M547.3,718.4v-66h14.9v7.7c1.8-2.8,4.2-5.1,6.9-6.9c2.6-1.5,5.6-2.3,8.6-2.2c3,0,5.9,0.5,8.7,1.6
				c2.6,1.1,4.9,2.8,6.7,4.9c3.8,4.3,5.7,10.3,5.7,17.9c0,7.3-1.9,13.2-5.7,17.8c-1.8,2.2-4,3.9-6.6,5.1c-2.6,1.2-5.5,1.7-8.3,1.7
				c-3.3,0.1-6.6-0.6-9.5-2.1c-2.7-1.8-5-4.2-6.5-7.1c0.2,1.1,0.3,2.2,0.4,3.4c0.1,0.9,0.1,2.5,0.1,4.8v19.5h-15.4V718.4z
				 M561.7,675.4c0,3.6,1,6.4,2.9,8.5c1.8,2,4.3,3,7.6,3c2.9,0.2,5.7-0.9,7.7-3c1.9-2.4,2.9-5.4,2.8-8.5c0-3.6-0.9-6.4-2.8-8.4
				c-2-2.1-4.8-3.2-7.7-3.1c-3.3,0-5.8,1-7.6,3.1C562.6,668.9,561.7,671.8,561.7,675.4z"/>
			<path class="st3" d="M657.3,675.4c0,3.2-0.6,6.4-2,9.4c-1.3,3-3.2,5.7-5.6,8c-7.5,7-18.4,9.1-28,5.4c-3.1-1.2-5.9-3.1-8.3-5.4
				c-2.4-2.2-4.3-5-5.5-8c-1.3-3-2-6.2-2-9.4c0-3.3,0.6-6.5,2-9.5c1.2-3,3.1-5.8,5.5-8c2.4-2.3,5.2-4.1,8.3-5.3
				c6.4-2.3,13.3-2.3,19.7,0c3.1,1.2,5.9,3,8.3,5.3c2.5,2.2,4.4,4.9,5.6,8C656.6,668.9,657.3,672.1,657.3,675.4z M641.2,675.4
				c0-3.4-0.9-6.1-2.6-8.1c-1.8-2-4.3-3-7-3c-2.7-0.1-5.2,1-7,3c-1.7,1.9-2.6,4.6-2.6,8.1c0,3.4,0.8,6.1,2.5,8c3.8,3.9,10,4,14,0.2
				c0.1-0.1,0.1-0.1,0.2-0.2C640.4,681.1,641.3,678.2,641.2,675.4z"/>
			<path class="st3" d="M666.7,698.2v-45.9H682v10.8c1.3-3.5,3.5-6.6,6.4-8.9c2.9-2,6.4-3.1,9.9-3c0.7,0,1.3,0,2,0.1
				c0.3,0,0.6,0.1,0.9,0.1c0.3,0,0.6,0.1,1,0.1l-1.5,14.7c-1-0.3-1.9-0.6-2.9-0.8c-1.2-0.1-2.1-0.2-2.7-0.2c-3.9,0-7,1.2-9.1,3.6
				c-2.1,2.4-3.2,5.8-3.2,10.2v19h-16.1V698.2z"/>
			<path class="st3" d="M710.7,698.2l-0.1-34.4h-6.9v-11.4h6.9v-13.7h16.1v13.7h6.8v11.4h-6.8v34.4H710.7z"/>
			<path class="st3" d="M736.7,694.3L740,682c2.3,2,4.9,3.6,7.8,4.7c2.7,1.1,5.6,1.7,8.5,1.7c1.6,0.1,3.2-0.3,4.6-1
				c1-0.5,1.6-1.6,1.6-2.8c0-2-2.1-3.5-6.4-4.5c-1.5-0.3-2.6-0.6-3.4-0.9c-4.9-1.5-8.4-3.2-10.5-5.3c-2.3-2.2-3.5-5.2-3.4-8.4
				c-0.1-4.2,1.8-8.1,5-10.7c3.2-2.7,7.8-4,13.6-4c3,0,6,0.4,9,1c3.2,0.7,6.3,1.8,9.3,3.2l-3.4,11.2c-2-1.4-4.2-2.5-6.6-3.3
				c-2.1-0.8-4.3-1.1-6.6-1.1c-1.5-0.1-2.9,0.2-4.2,0.9c-0.9,0.5-1.4,1.5-1.4,2.5c0,1.6,2.1,2.9,6.4,4.1c1.4,0.4,2.1,0.6,2.1,0.6
				c5.6,1.6,9.5,3.4,11.7,5.6c2.2,2.4,3.4,5.6,3.3,8.8c0.1,4.4-1.9,8.6-5.4,11.3c-3.7,2.9-8.5,4.4-14.3,4.4c-3.8,0-7.5-0.4-11.2-1.4
				C743,697.6,739.7,696.2,736.7,694.3z"/>
			<path class="st3" d="M398.6,603.5H339l102.6-230.8h59.6L398.6,603.5z M382.2,372.8h-59.6L220,603.5h59.6L382.2,372.8z
				 M639.4,326.3h-59.5L457,602.8h59.5L639.4,326.3z M759.5,326.3l20.5-46.5H363.5L343,326.3H759.5z"/>
		</g>
	</g>
</g>
</svg>
