<svg xmlns="http://www.w3.org/2000/svg" xmlns:xlink="http://www.w3.org/1999/xlink" viewBox="0 0 560.00012 440.35749"><defs><style>.cls-1{fill:none;}.cls-2{fill:#231f20;}.cls-3{fill:#6f7377;}</style><symbol id="Motorsports" data-name="Motorsports" viewBox="0 0 560 101.772"><path class="cls-2" d="M83.328,79.74828H66.39L62.48422,51.00317q-.49952-3.8584-.72657-6.76563-.31786-2.86085-.63574-8.12891a93.30116,93.30116,0,0,1-2.543,10.53516q-.36329,1.13672-.54492,1.95313L48.9974,79.74828H36.9183L27.88168,48.59692a13.34467,13.34467,0,0,0-.54493-1.95313A65.8336,65.8336,0,0,1,24.8392,36.10863q-.364,4.99659-.68116,7.44727-.13623,1.27295-.40869,3.72363-.27246,2.45215-.40869,3.72364L19.43539,79.74828H2.58822l10.2627-66.48047h17.937L40.82357,47.552q.27246.95362.36328,1.22657a47.04683,47.04683,0,0,1,1.771,7.81054A33.916,33.916,0,0,1,43.639,52.593q.18091-.68115,1.36231-5.13184L55.12777,13.26781H73.11068Z"/><path class="cls-2" d="M140.59017,56.95238a22.7342,22.7342,0,0,1-1.95263,9.39942,24.52681,24.52681,0,0,1-5.58545,7.99219,27.03474,27.03474,0,0,1-27.97266,5.40429,25.58086,25.58086,0,0,1-8.28711-5.38086,21.72851,21.72851,0,0,1-5.47217-8.01562,22.12969,22.12969,0,0,1-1.95263-9.39942,23.36493,23.36493,0,0,1,1.95263-9.49121A22.65634,22.65634,0,0,1,96.81478,39.469a25.30679,25.30679,0,0,1,8.26465-5.3125,28.99851,28.99851,0,0,1,19.708,0,25.31695,25.31695,0,0,1,8.26465,5.3125,21.16906,21.16906,0,0,1,5.58545,7.99218A23.37286,23.37286,0,0,1,140.59017,56.95238Zm-16.07519,0q0-5.13133-2.58838-8.083a9.00268,9.00268,0,0,0-6.99317-2.95215,8.74389,8.74389,0,0,0-6.99316,2.95215q-2.58838,2.86083-2.58838,8.083,0,5.08595,2.49756,7.99219a9.87052,9.87052,0,0,0,14.168,0A12.08652,12.08652,0,0,0,124.515,56.95238Z"/><path class="cls-2" d="M152.44222,79.74828l-.09082-34.4209h-6.85693V33.884h6.85693V20.21508h16.0752V33.884h6.76611V45.32738H168.4266v34.4209Z"/><path class="cls-2" d="M231.36508,56.95238a22.73421,22.73421,0,0,1-1.95264,9.39942A24.52681,24.52681,0,0,1,223.827,74.344a27.03474,27.03474,0,0,1-27.97266,5.40429,25.58086,25.58086,0,0,1-8.28711-5.38086,21.72836,21.72836,0,0,1-5.47216-8.01562,22.12954,22.12954,0,0,1-1.95264-9.39942,23.36477,23.36477,0,0,1,1.95264-9.49121,22.65632,22.65632,0,0,1,5.49462-7.99218,25.30679,25.30679,0,0,1,8.26465-5.3125,28.99851,28.99851,0,0,1,19.708,0A25.31684,25.31684,0,0,1,223.827,39.469a21.16906,21.16906,0,0,1,5.58545,7.99218A23.37287,23.37287,0,0,1,231.36508,56.95238Zm-16.0752,0q0-5.13133-2.58838-8.083a9.00267,9.00267,0,0,0-6.99316-2.95215,8.74391,8.74391,0,0,0-6.99317,2.95215q-2.58837,2.86083-2.58838,8.083,0,5.08595,2.49756,7.99219a9.87052,9.87052,0,0,0,14.168,0A12.08652,12.08652,0,0,0,215.28988,56.95238Z"/><path class="cls-2" d="M240.76547,79.74828V33.884h15.25781V44.69164a19.742,19.742,0,0,1,6.40283-8.85547,16.66326,16.66326,0,0,1,9.94482-2.95117,15.16662,15.16662,0,0,1,1.95264.09082q.49951.04542.9082.06836c.27247.01563.62012.05274,1.04444.11328l-1.54395,14.71289a23.75112,23.75112,0,0,0-2.90625-.77246q-1.8164-.18018-2.6792-.18164-5.90331,0-9.12744,3.63281-3.17871,3.58887-3.17871,10.21778V79.74828Z"/><path class="cls-2" d="M277.95638,75.93383l3.36084-12.35156a24.7515,24.7515,0,0,0,7.81055,4.72558,22.954,22.954,0,0,0,8.53711,1.67676,8.3384,8.3384,0,0,0,4.63184-1.042,3.04121,3.04121,0,0,0,1.58886-2.76563q0-3.03662-6.40234-4.5332-2.22657-.498-3.36035-.86133-7.40332-2.18115-10.49024-5.3164a11.07032,11.07032,0,0,1-3.36035-8.36036,13.01531,13.01531,0,0,1,5.041-10.67675q4.85742-3.99756,13.57715-3.998a43.81181,43.81181,0,0,1,8.99121,1.00293,46.38343,46.38343,0,0,1,9.30957,3.19238L313.8309,47.77953a26.385,26.385,0,0,0-6.585-3.31738,19.22515,19.22515,0,0,0-6.584-1.13281,8.23822,8.23822,0,0,0-4.22363.86133,2.70946,2.70946,0,0,0-1.36231,2.49316q0,2.35693,6.40332,4.08008,2.0874.63574,2.13379.63476,8.35546,2.3584,11.71582,5.58008a12.23456,12.23456,0,0,1,3.26953,8.84473,13.8032,13.8032,0,0,1-5.40332,11.34179q-5.5415,4.35353-14.30468,4.3545A42.67139,42.67139,0,0,1,287.69711,80.134,37.62007,37.62007,0,0,1,277.95638,75.93383Z"/><path class="cls-2" d="M327.3182,100.00121V33.97973h14.89453V41.636A22.70566,22.70566,0,0,1,349.16,34.75414a16.51767,16.51767,0,0,1,8.583-2.23242,22.45145,22.45145,0,0,1,8.71875,1.6123,18.132,18.132,0,0,1,6.72071,4.88086q5.6748,6.49512,5.67578,17.9375,0,10.98927-5.67578,17.75489A18.90774,18.90774,0,0,1,366.62,79.8391a19.7397,19.7397,0,0,1-8.332,1.68067,18.59394,18.59394,0,0,1-9.49121-2.13477,19.41362,19.41362,0,0,1-6.49317-7.084,25.71978,25.71978,0,0,1,.36328,3.36035q.08936,1.31689.09082,4.81348v19.52636Zm14.34961-43.02636q0,5.34813,2.85449,8.4746,2.62647,3.0381,7.61231,3.03711a9.88379,9.88379,0,0,0,7.70214-3.03711,12.443,12.443,0,0,0,2.76465-8.4746q0-5.3921-2.76465-8.42969a9.89931,9.89931,0,0,0-7.70214-3.082q-4.93946,0-7.61231,3.082Q341.66732,51.53637,341.66781,56.97485Z"/><path class="cls-2" d="M437.25619,56.95238A22.74169,22.74169,0,0,1,435.304,66.3518a24.52927,24.52927,0,0,1-5.58643,7.99219A27.03469,27.03469,0,0,1,401.745,79.74828a25.58076,25.58076,0,0,1-8.28711-5.38086,21.7212,21.7212,0,0,1-5.47168-8.01562,22.115,22.115,0,0,1-1.95313-9.39942,23.349,23.349,0,0,1,1.95313-9.49121,22.64857,22.64857,0,0,1,5.49414-7.99218,25.31171,25.31171,0,0,1,8.26465-5.3125,28.99851,28.99851,0,0,1,19.708,0,25.31177,25.31177,0,0,1,8.26464,5.3125,21.18227,21.18227,0,0,1,5.58643,7.99218A23.38061,23.38061,0,0,1,437.25619,56.95238Zm-16.07569,0q0-5.13133-2.58789-8.083a9.00479,9.00479,0,0,0-6.99316-2.95215,8.74185,8.74185,0,0,0-6.99316,2.95215q-2.58839,2.86083-2.58887,8.083,0,5.08595,2.498,7.99219a9.87051,9.87051,0,0,0,14.168,0A12.08893,12.08893,0,0,0,421.1805,56.95238Z"/><path class="cls-2" d="M446.65658,79.74828V33.884h15.25781V44.69164a19.73411,19.73411,0,0,1,6.40235-8.85547,16.66476,16.66476,0,0,1,9.94531-2.95117,15.16306,15.16306,0,0,1,1.95215.09082q.4995.04542.9082.06836c.27246.01563.62012.05274,1.04492.11328l-1.54394,14.71289a23.79851,23.79851,0,0,0-2.90625-.77246q-1.81788-.18018-2.67969-.18164-5.90332,0-9.127,3.63281-3.18018,3.58887-3.17872,10.21778V79.74828Z"/><path class="cls-2" d="M490.65951,79.74828l-.09082-34.4209h-6.85742V33.884h6.85742V20.21508h16.07519V33.884h6.76563V45.32738h-6.76563v34.4209Z"/><path class="cls-2" d="M516.679,75.93383l3.36035-12.35156a24.7515,24.7515,0,0,0,7.81055,4.72558,22.954,22.954,0,0,0,8.53711,1.67676,8.33834,8.33834,0,0,0,4.63183-1.042,3.0412,3.0412,0,0,0,1.58887-2.76563q0-3.03662-6.40234-4.5332-2.22657-.498-3.36035-.86133-7.40333-2.18115-10.49024-5.3164a11.07032,11.07032,0,0,1-3.36035-8.36036,13.01528,13.01528,0,0,1,5.041-10.67675q4.85742-3.99756,13.57714-3.998a43.81181,43.81181,0,0,1,8.99121,1.00293,46.38328,46.38328,0,0,1,9.30958,3.19238l-3.36036,11.15332a26.38494,26.38494,0,0,0-6.585-3.31738,19.22515,19.22515,0,0,0-6.584-1.13281,8.23822,8.23822,0,0,0-4.22363.86133,2.70946,2.70946,0,0,0-1.36231,2.49316q0,2.35693,6.40332,4.08008,2.0874.63574,2.13379.63476,8.35547,2.3584,11.71582,5.58008a12.23456,12.23456,0,0,1,3.26953,8.84473,13.80323,13.80323,0,0,1-5.40332,11.34179q-5.5415,4.35353-14.30469,4.3545A42.67145,42.67145,0,0,1,526.41927,80.134,37.60969,37.60969,0,0,1,516.679,75.93383Z"/></symbol><symbol id="IIT" data-name="IIT" viewBox="0 0 560 323.707"><path class="cls-1" d="M178.58316,323.70719H118.99038L221.58757,92.93029h59.59277ZM162.19,92.93029H102.59719L0,323.70719H59.59277ZM419.38685,46.46515H359.89406L236.984,322.93277h59.49278Zm120.12731,0L560,0H143.53365L123.04782,46.46515Z"/></symbol></defs><g id="Layer_2" data-name="Layer 2"><g id="IIT-GreyOnWhite-Stacked-Motorsports"><g id="IIT-Stacked"><use width="560" height="101.77246" transform="translate(0.00011 338.58504)" xlink:href="#Motorsports"/><use width="560" height="323.70719" xlink:href="#IIT"/></g><g id="IIT-Stacked-2" data-name="IIT-Stacked"><path class="cls-3" d="M83.32807,418.33332h-16.938L62.48432,389.5882q-.4995-3.85839-.72656-6.76562-.31786-2.86085-.63574-8.12891a93.30219,93.30219,0,0,1-2.543,10.53516q-.36328,1.13671-.54492,1.95312l-9.03662,31.15137H36.9184l-9.03662-31.15137a13.34529,13.34529,0,0,0-.54492-1.95312,65.83509,65.83509,0,0,1-2.49756-10.53516q-.364,4.99658-.68115,7.44727-.13623,1.27295-.40869,3.72363-.27246,2.45214-.40869,3.72363l-3.90528,28.74512H2.58833L12.851,351.85285H30.788L40.82368,386.137q.27246.95361.36328,1.22656a47.04693,47.04693,0,0,1,1.771,7.81055,33.91175,33.91175,0,0,1,.68115-3.9961q.1809-.68115,1.3623-5.13183l10.12647-34.19336H73.11079Z"/><path class="cls-3" d="M140.59028,395.53742a22.7342,22.7342,0,0,1-1.95264,9.39941,24.52666,24.52666,0,0,1-5.58545,7.99219,27.03476,27.03476,0,0,1-27.97265,5.4043,25.58092,25.58092,0,0,1-8.28711-5.38086,21.72863,21.72863,0,0,1-5.47217-8.01563,22.12953,22.12953,0,0,1-1.95264-9.39941,23.36474,23.36474,0,0,1,1.95264-9.49121,22.65638,22.65638,0,0,1,5.49463-7.99219,25.30674,25.30674,0,0,1,8.26465-5.3125,28.99867,28.99867,0,0,1,19.708,0,25.31706,25.31706,0,0,1,8.26464,5.3125,21.169,21.169,0,0,1,5.58545,7.99219A23.37284,23.37284,0,0,1,140.59028,395.53742Zm-16.0752,0q0-5.13135-2.58837-8.083a9.00272,9.00272,0,0,0-6.99317-2.95215,8.74392,8.74392,0,0,0-6.99316,2.95215q-2.58839,2.86085-2.58838,8.083,0,5.08593,2.49756,7.99219a9.87052,9.87052,0,0,0,14.168,0A12.08651,12.08651,0,0,0,124.51508,395.53742Z"/><path class="cls-3" d="M152.44233,418.33332l-.09082-34.4209h-6.85693V372.46906h6.85693V358.80011h16.0752v13.66895h6.76611v11.44336h-6.76611v34.4209Z"/><path class="cls-3" d="M231.36518,395.53742a22.73419,22.73419,0,0,1-1.95263,9.39941,24.527,24.527,0,0,1-5.58545,7.99219,27.03478,27.03478,0,0,1-27.97266,5.4043,25.58092,25.58092,0,0,1-8.28711-5.38086,21.72863,21.72863,0,0,1-5.47217-8.01563,22.12952,22.12952,0,0,1-1.95263-9.39941,23.36473,23.36473,0,0,1,1.95263-9.49121,22.65638,22.65638,0,0,1,5.49463-7.99219,25.30685,25.30685,0,0,1,8.26465-5.3125,28.99867,28.99867,0,0,1,19.708,0,25.31721,25.31721,0,0,1,8.26465,5.3125,21.16917,21.16917,0,0,1,5.58545,7.99219A23.37283,23.37283,0,0,1,231.36518,395.53742Zm-16.07519,0q0-5.13135-2.58838-8.083a9.00271,9.00271,0,0,0-6.99317-2.95215,8.74392,8.74392,0,0,0-6.99316,2.95215q-2.58839,2.86085-2.58838,8.083,0,5.08593,2.49756,7.99219a9.87052,9.87052,0,0,0,14.168,0A12.08652,12.08652,0,0,0,215.29,395.53742Z"/><path class="cls-3" d="M240.76557,418.33332V372.46906h15.25782v10.80762a19.742,19.742,0,0,1,6.40283-8.85547A16.66317,16.66317,0,0,1,272.371,371.47a15.16662,15.16662,0,0,1,1.95264.09082q.49952.04541.9082.06836c.27246.01562.62012.05273,1.04444.11328l-1.54395,14.71289a23.75025,23.75025,0,0,0-2.90625-.77246q-1.81641-.18018-2.6792-.18164-5.90333,0-9.12744,3.63281-3.17871,3.58887-3.17871,10.21777v18.98145Z"/><path class="cls-3" d="M277.95649,414.51886l3.36084-12.35156a24.75153,24.75153,0,0,0,7.81055,4.72559,22.95417,22.95417,0,0,0,8.53711,1.67676,8.33827,8.33827,0,0,0,4.63183-1.042,3.0412,3.0412,0,0,0,1.58887-2.76562q0-3.03663-6.40234-4.5332-2.22657-.49806-3.36036-.86133-7.40331-2.18115-10.49023-5.31641a11.07032,11.07032,0,0,1-3.36035-8.36035,13.01531,13.01531,0,0,1,5.041-10.67676q4.85744-3.99756,13.57715-3.998a43.81246,43.81246,0,0,1,8.99121,1.00292,46.38311,46.38311,0,0,1,9.30957,3.19239L313.831,386.36457a26.38427,26.38427,0,0,0-6.585-3.31738,19.225,19.225,0,0,0-6.584-1.13282,8.23828,8.23828,0,0,0-4.22364.86133,2.70948,2.70948,0,0,0-1.3623,2.49316q0,2.35693,6.40332,4.08008,2.0874.63574,2.13379.63477,8.35547,2.35839,11.71582,5.58008a12.23452,12.23452,0,0,1,3.26953,8.84472,13.80325,13.80325,0,0,1-5.40332,11.3418q-5.54151,4.35351-14.30469,4.35449a42.67146,42.67146,0,0,1-11.19336-1.38574A37.61969,37.61969,0,0,1,277.95649,414.51886Z"/><path class="cls-3" d="M327.31831,438.58625V372.56476h14.89453V380.221a22.7057,22.7057,0,0,1,6.94726-6.88183,16.51773,16.51773,0,0,1,8.583-2.23242,22.45134,22.45134,0,0,1,8.71875,1.6123,18.13194,18.13194,0,0,1,6.72071,4.88086q5.6748,6.49512,5.67578,17.9375,0,10.98925-5.67578,17.75488a18.90777,18.90777,0,0,1-6.5625,5.13184,19.73971,19.73971,0,0,1-8.332,1.68066,18.594,18.594,0,0,1-9.49121-2.13476,19.41381,19.41381,0,0,1-6.49316-7.084,25.71978,25.71978,0,0,1,.36328,3.36035q.08936,1.31689.09082,4.81348v19.52637Zm14.34961-43.02637q0,5.34814,2.85449,8.47461,2.62647,3.03809,7.6123,3.03711a9.88383,9.88383,0,0,0,7.70215-3.03711,12.443,12.443,0,0,0,2.76465-8.47461q0-5.3921-2.76465-8.42969a9.89935,9.89935,0,0,0-7.70215-3.082q-4.93945,0-7.6123,3.082Q341.66743,390.1214,341.66792,395.55988Z"/><path class="cls-3" d="M437.2563,395.53742a22.74167,22.74167,0,0,1-1.95215,9.39941,24.52942,24.52942,0,0,1-5.58643,7.99219,27.03474,27.03474,0,0,1-27.97265,5.4043,25.58082,25.58082,0,0,1-8.28711-5.38086,21.72131,21.72131,0,0,1-5.47168-8.01563,22.115,22.115,0,0,1-1.95313-9.39941,23.34892,23.34892,0,0,1,1.95313-9.49121,22.64861,22.64861,0,0,1,5.49414-7.99219,25.31187,25.31187,0,0,1,8.26465-5.3125,28.99864,28.99864,0,0,1,19.708,0,25.31187,25.31187,0,0,1,8.26465,5.3125,21.1825,21.1825,0,0,1,5.58643,7.99219A23.38057,23.38057,0,0,1,437.2563,395.53742Zm-16.07569,0q0-5.13135-2.58789-8.083a9.00482,9.00482,0,0,0-6.99316-2.95215,8.74191,8.74191,0,0,0-6.99317,2.95215q-2.58837,2.86085-2.58886,8.083,0,5.08593,2.498,7.99219a9.87052,9.87052,0,0,0,14.168,0A12.089,12.089,0,0,0,421.18061,395.53742Z"/><path class="cls-3" d="M446.65669,418.33332V372.46906H461.9145v10.80762a19.7341,19.7341,0,0,1,6.40234-8.85547,16.66473,16.66473,0,0,1,9.94531-2.95117,15.16285,15.16285,0,0,1,1.95215.09082q.49951.04541.90821.06836c.27246.01562.62011.05273,1.04492.11328l-1.544,14.71289a23.79573,23.79573,0,0,0-2.90625-.77246q-1.81786-.18018-2.67968-.18164-5.90333,0-9.127,3.63281-3.18017,3.58887-3.17871,10.21777v18.98145Z"/><path class="cls-3" d="M490.65962,418.33332l-.09082-34.4209h-6.85743V372.46906h6.85743V358.80011H506.644v13.66895h6.76563v11.44336H506.644v34.4209Z"/><path class="cls-3" d="M516.67915,414.51886l3.36035-12.35156a24.75153,24.75153,0,0,0,7.81055,4.72559,22.95416,22.95416,0,0,0,8.5371,1.67676,8.33829,8.33829,0,0,0,4.63184-1.042,3.04122,3.04122,0,0,0,1.58887-2.76562q0-3.03663-6.40235-4.5332-2.22655-.49806-3.36035-.86133-7.40331-2.18115-10.49023-5.31641a11.07028,11.07028,0,0,1-3.36035-8.36035,13.01531,13.01531,0,0,1,5.041-10.67676q4.85742-3.99756,13.57715-3.998a43.81246,43.81246,0,0,1,8.99121,1.00292,46.38332,46.38332,0,0,1,9.30957,3.19239l-3.36035,11.15332a26.38444,26.38444,0,0,0-6.585-3.31738,19.225,19.225,0,0,0-6.584-1.13282,8.23828,8.23828,0,0,0-4.22364.86133,2.70948,2.70948,0,0,0-1.3623,2.49316q0,2.35693,6.40332,4.08008,2.0874.63574,2.13379.63477,8.35546,2.35839,11.71582,5.58008a12.23456,12.23456,0,0,1,3.26953,8.84472,13.80325,13.80325,0,0,1-5.40332,11.3418q-5.54151,4.35351-14.30469,4.35449a42.6714,42.6714,0,0,1-11.19336-1.38574A37.60938,37.60938,0,0,1,516.67915,414.51886Z"/><path class="cls-3" d="M178.58316,323.70719H118.99038L221.58757,92.93029h59.59277ZM162.19,92.93029H102.59719L0,323.70719H59.59277ZM419.38685,46.46515H359.89406L236.984,322.93277h59.49278Zm120.12731,0L560,0H143.53365L123.04782,46.46515Z"/><path class="cls-3" d="M83.32807,418.33332h-16.938L62.48432,389.5882q-.4995-3.85839-.72656-6.76562-.31786-2.86085-.63574-8.12891a93.30219,93.30219,0,0,1-2.543,10.53516q-.36328,1.13671-.54492,1.95312l-9.03662,31.15137H36.9184l-9.03662-31.15137a13.34529,13.34529,0,0,0-.54492-1.95312,65.83509,65.83509,0,0,1-2.49756-10.53516q-.364,4.99658-.68115,7.44727-.13623,1.27295-.40869,3.72363-.27246,2.45214-.40869,3.72363l-3.90528,28.74512H2.58833L12.851,351.85285H30.788L40.82368,386.137q.27246.95361.36328,1.22656a47.04693,47.04693,0,0,1,1.771,7.81055,33.91175,33.91175,0,0,1,.68115-3.9961q.1809-.68115,1.3623-5.13183l10.12647-34.19336H73.11079Z"/><path class="cls-3" d="M140.59028,395.53742a22.7342,22.7342,0,0,1-1.95264,9.39941,24.52666,24.52666,0,0,1-5.58545,7.99219,27.03476,27.03476,0,0,1-27.97265,5.4043,25.58092,25.58092,0,0,1-8.28711-5.38086,21.72863,21.72863,0,0,1-5.47217-8.01563,22.12953,22.12953,0,0,1-1.95264-9.39941,23.36474,23.36474,0,0,1,1.95264-9.49121,22.65638,22.65638,0,0,1,5.49463-7.99219,25.30674,25.30674,0,0,1,8.26465-5.3125,28.99867,28.99867,0,0,1,19.708,0,25.31706,25.31706,0,0,1,8.26464,5.3125,21.169,21.169,0,0,1,5.58545,7.99219A23.37284,23.37284,0,0,1,140.59028,395.53742Zm-16.0752,0q0-5.13135-2.58837-8.083a9.00272,9.00272,0,0,0-6.99317-2.95215,8.74392,8.74392,0,0,0-6.99316,2.95215q-2.58839,2.86085-2.58838,8.083,0,5.08593,2.49756,7.99219a9.87052,9.87052,0,0,0,14.168,0A12.08651,12.08651,0,0,0,124.51508,395.53742Z"/><path class="cls-3" d="M152.44233,418.33332l-.09082-34.4209h-6.85693V372.46906h6.85693V358.80011h16.0752v13.66895h6.76611v11.44336h-6.76611v34.4209Z"/><path class="cls-3" d="M231.36518,395.53742a22.73419,22.73419,0,0,1-1.95263,9.39941,24.527,24.527,0,0,1-5.58545,7.99219,27.03478,27.03478,0,0,1-27.97266,5.4043,25.58092,25.58092,0,0,1-8.28711-5.38086,21.72863,21.72863,0,0,1-5.47217-8.01563,22.12952,22.12952,0,0,1-1.95263-9.39941,23.36473,23.36473,0,0,1,1.95263-9.49121,22.65638,22.65638,0,0,1,5.49463-7.99219,25.30685,25.30685,0,0,1,8.26465-5.3125,28.99867,28.99867,0,0,1,19.708,0,25.31721,25.31721,0,0,1,8.26465,5.3125,21.16917,21.16917,0,0,1,5.58545,7.99219A23.37283,23.37283,0,0,1,231.36518,395.53742Zm-16.07519,0q0-5.13135-2.58838-8.083a9.00271,9.00271,0,0,0-6.99317-2.95215,8.74392,8.74392,0,0,0-6.99316,2.95215q-2.58839,2.86085-2.58838,8.083,0,5.08593,2.49756,7.99219a9.87052,9.87052,0,0,0,14.168,0A12.08652,12.08652,0,0,0,215.29,395.53742Z"/><path class="cls-3" d="M240.76557,418.33332V372.46906h15.25782v10.80762a19.742,19.742,0,0,1,6.40283-8.85547A16.66317,16.66317,0,0,1,272.371,371.47a15.16662,15.16662,0,0,1,1.95264.09082q.49952.04541.9082.06836c.27246.01562.62012.05273,1.04444.11328l-1.54395,14.71289a23.75025,23.75025,0,0,0-2.90625-.77246q-1.81641-.18018-2.6792-.18164-5.90333,0-9.12744,3.63281-3.17871,3.58887-3.17871,10.21777v18.98145Z"/><path class="cls-3" d="M277.95649,414.51886l3.36084-12.35156a24.75153,24.75153,0,0,0,7.81055,4.72559,22.95417,22.95417,0,0,0,8.53711,1.67676,8.33827,8.33827,0,0,0,4.63183-1.042,3.0412,3.0412,0,0,0,1.58887-2.76562q0-3.03663-6.40234-4.5332-2.22657-.49806-3.36036-.86133-7.40331-2.18115-10.49023-5.31641a11.07032,11.07032,0,0,1-3.36035-8.36035,13.01531,13.01531,0,0,1,5.041-10.67676q4.85744-3.99756,13.57715-3.998a43.81246,43.81246,0,0,1,8.99121,1.00292,46.38311,46.38311,0,0,1,9.30957,3.19239L313.831,386.36457a26.38427,26.38427,0,0,0-6.585-3.31738,19.225,19.225,0,0,0-6.584-1.13282,8.23828,8.23828,0,0,0-4.22364.86133,2.70948,2.70948,0,0,0-1.3623,2.49316q0,2.35693,6.40332,4.08008,2.0874.63574,2.13379.63477,8.35547,2.35839,11.71582,5.58008a12.23452,12.23452,0,0,1,3.26953,8.84472,13.80325,13.80325,0,0,1-5.40332,11.3418q-5.54151,4.35351-14.30469,4.35449a42.67146,42.67146,0,0,1-11.19336-1.38574A37.61969,37.61969,0,0,1,277.95649,414.51886Z"/><path class="cls-3" d="M327.31831,438.58625V372.56476h14.89453V380.221a22.7057,22.7057,0,0,1,6.94726-6.88183,16.51773,16.51773,0,0,1,8.583-2.23242,22.45134,22.45134,0,0,1,8.71875,1.6123,18.13194,18.13194,0,0,1,6.72071,4.88086q5.6748,6.49512,5.67578,17.9375,0,10.98925-5.67578,17.75488a18.90777,18.90777,0,0,1-6.5625,5.13184,19.73971,19.73971,0,0,1-8.332,1.68066,18.594,18.594,0,0,1-9.49121-2.13476,19.41381,19.41381,0,0,1-6.49316-7.084,25.71978,25.71978,0,0,1,.36328,3.36035q.08936,1.31689.09082,4.81348v19.52637Zm14.34961-43.02637q0,5.34814,2.85449,8.47461,2.62647,3.03809,7.6123,3.03711a9.88383,9.88383,0,0,0,7.70215-3.03711,12.443,12.443,0,0,0,2.76465-8.47461q0-5.3921-2.76465-8.42969a9.89935,9.89935,0,0,0-7.70215-3.082q-4.93945,0-7.6123,3.082Q341.66743,390.1214,341.66792,395.55988Z"/><path class="cls-3" d="M437.2563,395.53742a22.74167,22.74167,0,0,1-1.95215,9.39941,24.52942,24.52942,0,0,1-5.58643,7.99219,27.03474,27.03474,0,0,1-27.97265,5.4043,25.58082,25.58082,0,0,1-8.28711-5.38086,21.72131,21.72131,0,0,1-5.47168-8.01563,22.115,22.115,0,0,1-1.95313-9.39941,23.34892,23.34892,0,0,1,1.95313-9.49121,22.64861,22.64861,0,0,1,5.49414-7.99219,25.31187,25.31187,0,0,1,8.26465-5.3125,28.99864,28.99864,0,0,1,19.708,0,25.31187,25.31187,0,0,1,8.26465,5.3125,21.1825,21.1825,0,0,1,5.58643,7.99219A23.38057,23.38057,0,0,1,437.2563,395.53742Zm-16.07569,0q0-5.13135-2.58789-8.083a9.00482,9.00482,0,0,0-6.99316-2.95215,8.74191,8.74191,0,0,0-6.99317,2.95215q-2.58837,2.86085-2.58886,8.083,0,5.08593,2.498,7.99219a9.87052,9.87052,0,0,0,14.168,0A12.089,12.089,0,0,0,421.18061,395.53742Z"/><path class="cls-3" d="M446.65669,418.33332V372.46906H461.9145v10.80762a19.7341,19.7341,0,0,1,6.40234-8.85547,16.66473,16.66473,0,0,1,9.94531-2.95117,15.16285,15.16285,0,0,1,1.95215.09082q.49951.04541.90821.06836c.27246.01562.62011.05273,1.04492.11328l-1.544,14.71289a23.79573,23.79573,0,0,0-2.90625-.77246q-1.81786-.18018-2.67968-.18164-5.90333,0-9.127,3.63281-3.18017,3.58887-3.17871,10.21777v18.98145Z"/><path class="cls-3" d="M490.65962,418.33332l-.09082-34.4209h-6.85743V372.46906h6.85743V358.80011H506.644v13.66895h6.76563v11.44336H506.644v34.4209Z"/><path class="cls-3" d="M516.67915,414.51886l3.36035-12.35156a24.75153,24.75153,0,0,0,7.81055,4.72559,22.95416,22.95416,0,0,0,8.5371,1.67676,8.33829,8.33829,0,0,0,4.63184-1.042,3.04122,3.04122,0,0,0,1.58887-2.76562q0-3.03663-6.40235-4.5332-2.22655-.49806-3.36035-.86133-7.40331-2.18115-10.49023-5.31641a11.07028,11.07028,0,0,1-3.36035-8.36035,13.01531,13.01531,0,0,1,5.041-10.67676q4.85742-3.99756,13.57715-3.998a43.81246,43.81246,0,0,1,8.99121,1.00292,46.38332,46.38332,0,0,1,9.30957,3.19239l-3.36035,11.15332a26.38444,26.38444,0,0,0-6.585-3.31738,19.225,19.225,0,0,0-6.584-1.13282,8.23828,8.23828,0,0,0-4.22364.86133,2.70948,2.70948,0,0,0-1.3623,2.49316q0,2.35693,6.40332,4.08008,2.0874.63574,2.13379.63477,8.35546,2.35839,11.71582,5.58008a12.23456,12.23456,0,0,1,3.26953,8.84472,13.80325,13.80325,0,0,1-5.40332,11.3418q-5.54151,4.35351-14.30469,4.35449a42.6714,42.6714,0,0,1-11.19336-1.38574A37.60938,37.60938,0,0,1,516.67915,414.51886Z"/><path class="cls-3" d="M178.58316,323.70719H118.99038L221.58757,92.93029h59.59277ZM162.19,92.93029H102.59719L0,323.70719H59.59277ZM419.38685,46.46515H359.89406L236.984,322.93277h59.49278Zm120.12731,0L560,0H143.53365L123.04782,46.46515Z"/><path class="cls-3" d="M83.32807,418.33332h-16.938L62.48432,389.5882q-.4995-3.85839-.72656-6.76562-.31786-2.86085-.63574-8.12891a93.30219,93.30219,0,0,1-2.543,10.53516q-.36328,1.13671-.54492,1.95312l-9.03662,31.15137H36.9184l-9.03662-31.15137a13.34529,13.34529,0,0,0-.54492-1.95312,65.83509,65.83509,0,0,1-2.49756-10.53516q-.364,4.99658-.68115,7.44727-.13623,1.27295-.40869,3.72363-.27246,2.45214-.40869,3.72363l-3.90528,28.74512H2.58833L12.851,351.85285H30.788L40.82368,386.137q.27246.95361.36328,1.22656a47.04693,47.04693,0,0,1,1.771,7.81055,33.91175,33.91175,0,0,1,.68115-3.9961q.1809-.68115,1.3623-5.13183l10.12647-34.19336H73.11079Z"/><path class="cls-3" d="M140.59028,395.53742a22.7342,22.7342,0,0,1-1.95264,9.39941,24.52666,24.52666,0,0,1-5.58545,7.99219,27.03476,27.03476,0,0,1-27.97265,5.4043,25.58092,25.58092,0,0,1-8.28711-5.38086,21.72863,21.72863,0,0,1-5.47217-8.01563,22.12953,22.12953,0,0,1-1.95264-9.39941,23.36474,23.36474,0,0,1,1.95264-9.49121,22.65638,22.65638,0,0,1,5.49463-7.99219,25.30674,25.30674,0,0,1,8.26465-5.3125,28.99867,28.99867,0,0,1,19.708,0,25.31706,25.31706,0,0,1,8.26464,5.3125,21.169,21.169,0,0,1,5.58545,7.99219A23.37284,23.37284,0,0,1,140.59028,395.53742Zm-16.0752,0q0-5.13135-2.58837-8.083a9.00272,9.00272,0,0,0-6.99317-2.95215,8.74392,8.74392,0,0,0-6.99316,2.95215q-2.58839,2.86085-2.58838,8.083,0,5.08593,2.49756,7.99219a9.87052,9.87052,0,0,0,14.168,0A12.08651,12.08651,0,0,0,124.51508,395.53742Z"/><path class="cls-3" d="M152.44233,418.33332l-.09082-34.4209h-6.85693V372.46906h6.85693V358.80011h16.0752v13.66895h6.76611v11.44336h-6.76611v34.4209Z"/><path class="cls-3" d="M231.36518,395.53742a22.73419,22.73419,0,0,1-1.95263,9.39941,24.527,24.527,0,0,1-5.58545,7.99219,27.03478,27.03478,0,0,1-27.97266,5.4043,25.58092,25.58092,0,0,1-8.28711-5.38086,21.72863,21.72863,0,0,1-5.47217-8.01563,22.12952,22.12952,0,0,1-1.95263-9.39941,23.36473,23.36473,0,0,1,1.95263-9.49121,22.65638,22.65638,0,0,1,5.49463-7.99219,25.30685,25.30685,0,0,1,8.26465-5.3125,28.99867,28.99867,0,0,1,19.708,0,25.31721,25.31721,0,0,1,8.26465,5.3125,21.16917,21.16917,0,0,1,5.58545,7.99219A23.37283,23.37283,0,0,1,231.36518,395.53742Zm-16.07519,0q0-5.13135-2.58838-8.083a9.00271,9.00271,0,0,0-6.99317-2.95215,8.74392,8.74392,0,0,0-6.99316,2.95215q-2.58839,2.86085-2.58838,8.083,0,5.08593,2.49756,7.99219a9.87052,9.87052,0,0,0,14.168,0A12.08652,12.08652,0,0,0,215.29,395.53742Z"/><path class="cls-3" d="M240.76557,418.33332V372.46906h15.25782v10.80762a19.742,19.742,0,0,1,6.40283-8.85547A16.66317,16.66317,0,0,1,272.371,371.47a15.16662,15.16662,0,0,1,1.95264.09082q.49952.04541.9082.06836c.27246.01562.62012.05273,1.04444.11328l-1.54395,14.71289a23.75025,23.75025,0,0,0-2.90625-.77246q-1.81641-.18018-2.6792-.18164-5.90333,0-9.12744,3.63281-3.17871,3.58887-3.17871,10.21777v18.98145Z"/><path class="cls-3" d="M277.95649,414.51886l3.36084-12.35156a24.75153,24.75153,0,0,0,7.81055,4.72559,22.95417,22.95417,0,0,0,8.53711,1.67676,8.33827,8.33827,0,0,0,4.63183-1.042,3.0412,3.0412,0,0,0,1.58887-2.76562q0-3.03663-6.40234-4.5332-2.22657-.49806-3.36036-.86133-7.40331-2.18115-10.49023-5.31641a11.07032,11.07032,0,0,1-3.36035-8.36035,13.01531,13.01531,0,0,1,5.041-10.67676q4.85744-3.99756,13.57715-3.998a43.81246,43.81246,0,0,1,8.99121,1.00292,46.38311,46.38311,0,0,1,9.30957,3.19239L313.831,386.36457a26.38427,26.38427,0,0,0-6.585-3.31738,19.225,19.225,0,0,0-6.584-1.13282,8.23828,8.23828,0,0,0-4.22364.86133,2.70948,2.70948,0,0,0-1.3623,2.49316q0,2.35693,6.40332,4.08008,2.0874.63574,2.13379.63477,8.35547,2.35839,11.71582,5.58008a12.23452,12.23452,0,0,1,3.26953,8.84472,13.80325,13.80325,0,0,1-5.40332,11.3418q-5.54151,4.35351-14.30469,4.35449a42.67146,42.67146,0,0,1-11.19336-1.38574A37.61969,37.61969,0,0,1,277.95649,414.51886Z"/><path class="cls-3" d="M327.31831,438.58625V372.56476h14.89453V380.221a22.7057,22.7057,0,0,1,6.94726-6.88183,16.51773,16.51773,0,0,1,8.583-2.23242,22.45134,22.45134,0,0,1,8.71875,1.6123,18.13194,18.13194,0,0,1,6.72071,4.88086q5.6748,6.49512,5.67578,17.9375,0,10.98925-5.67578,17.75488a18.90777,18.90777,0,0,1-6.5625,5.13184,19.73971,19.73971,0,0,1-8.332,1.68066,18.594,18.594,0,0,1-9.49121-2.13476,19.41381,19.41381,0,0,1-6.49316-7.084,25.71978,25.71978,0,0,1,.36328,3.36035q.08936,1.31689.09082,4.81348v19.52637Zm14.34961-43.02637q0,5.34814,2.85449,8.47461,2.62647,3.03809,7.6123,3.03711a9.88383,9.88383,0,0,0,7.70215-3.03711,12.443,12.443,0,0,0,2.76465-8.47461q0-5.3921-2.76465-8.42969a9.89935,9.89935,0,0,0-7.70215-3.082q-4.93945,0-7.6123,3.082Q341.66743,390.1214,341.66792,395.55988Z"/><path class="cls-3" d="M437.2563,395.53742a22.74167,22.74167,0,0,1-1.95215,9.39941,24.52942,24.52942,0,0,1-5.58643,7.99219,27.03474,27.03474,0,0,1-27.97265,5.4043,25.58082,25.58082,0,0,1-8.28711-5.38086,21.72131,21.72131,0,0,1-5.47168-8.01563,22.115,22.115,0,0,1-1.95313-9.39941,23.34892,23.34892,0,0,1,1.95313-9.49121,22.64861,22.64861,0,0,1,5.49414-7.99219,25.31187,25.31187,0,0,1,8.26465-5.3125,28.99864,28.99864,0,0,1,19.708,0,25.31187,25.31187,0,0,1,8.26465,5.3125,21.1825,21.1825,0,0,1,5.58643,7.99219A23.38057,23.38057,0,0,1,437.2563,395.53742Zm-16.07569,0q0-5.13135-2.58789-8.083a9.00482,9.00482,0,0,0-6.99316-2.95215,8.74191,8.74191,0,0,0-6.99317,2.95215q-2.58837,2.86085-2.58886,8.083,0,5.08593,2.498,7.99219a9.87052,9.87052,0,0,0,14.168,0A12.089,12.089,0,0,0,421.18061,395.53742Z"/><path class="cls-3" d="M446.65669,418.33332V372.46906H461.9145v10.80762a19.7341,19.7341,0,0,1,6.40234-8.85547,16.66473,16.66473,0,0,1,9.94531-2.95117,15.16285,15.16285,0,0,1,1.95215.09082q.49951.04541.90821.06836c.27246.01562.62011.05273,1.04492.11328l-1.544,14.71289a23.79573,23.79573,0,0,0-2.90625-.77246q-1.81786-.18018-2.67968-.18164-5.90333,0-9.127,3.63281-3.18017,3.58887-3.17871,10.21777v18.98145Z"/><path class="cls-3" d="M490.65962,418.33332l-.09082-34.4209h-6.85743V372.46906h6.85743V358.80011H506.644v13.66895h6.76563v11.44336H506.644v34.4209Z"/><path class="cls-3" d="M516.67915,414.51886l3.36035-12.35156a24.75153,24.75153,0,0,0,7.81055,4.72559,22.95416,22.95416,0,0,0,8.5371,1.67676,8.33829,8.33829,0,0,0,4.63184-1.042,3.04122,3.04122,0,0,0,1.58887-2.76562q0-3.03663-6.40235-4.5332-2.22655-.49806-3.36035-.86133-7.40331-2.18115-10.49023-5.31641a11.07028,11.07028,0,0,1-3.36035-8.36035,13.01531,13.01531,0,0,1,5.041-10.67676q4.85742-3.99756,13.57715-3.998a43.81246,43.81246,0,0,1,8.99121,1.00292,46.38332,46.38332,0,0,1,9.30957,3.19239l-3.36035,11.15332a26.38444,26.38444,0,0,0-6.585-3.31738,19.225,19.225,0,0,0-6.584-1.13282,8.23828,8.23828,0,0,0-4.22364.86133,2.70948,2.70948,0,0,0-1.3623,2.49316q0,2.35693,6.40332,4.08008,2.0874.63574,2.13379.63477,8.35546,2.35839,11.71582,5.58008a12.23456,12.23456,0,0,1,3.26953,8.84472,13.80325,13.80325,0,0,1-5.40332,11.3418q-5.54151,4.35351-14.30469,4.35449a42.6714,42.6714,0,0,1-11.19336-1.38574A37.60938,37.60938,0,0,1,516.67915,414.51886Z"/><path class="cls-3" d="M178.58316,323.70719H118.99038L221.58757,92.93029h59.59277ZM162.19,92.93029H102.59719L0,323.70719H59.59277ZM419.38685,46.46515H359.89406L236.984,322.93277h59.49278Zm120.12731,0L560,0H143.53365L123.04782,46.46515Z"/></g></g></g></svg>