<svg xmlns="http://www.w3.org/2000/svg" viewBox="0 0 560 438.58693"><defs><style>.cls-1{fill:#231f20;}.cls-2{fill:#6f7377;}.cls-3{fill:#ce1126;}</style></defs><g id="Layer_2" data-name="Layer 2"><g id="IIT-RedGreyOnWhite-Stacked-Motorsports"><path class="cls-1" d="M83.328,418.334H66.39L62.4842,389.58888q-.4995-3.85839-.72656-6.76562-.31787-2.86085-.63574-8.12891a93.30116,93.30116,0,0,1-2.543,10.53516q-.36329,1.13671-.54492,1.95312L48.99739,418.334H36.91829l-9.03662-31.15137a13.34587,13.34587,0,0,0-.54493-1.95312,65.83385,65.83385,0,0,1-2.49755-10.53516q-.364,4.99659-.68116,7.44727-.13623,1.27295-.40869,3.72363-.27246,2.45216-.40869,3.72363L19.43538,418.334H2.58821L12.8509,351.85353h17.937l10.03564,34.28418q.27246.95361.36328,1.22656a47.04715,47.04715,0,0,1,1.771,7.81055,33.91383,33.91383,0,0,1,.68115-3.99609q.18091-.68115,1.3623-5.13184l10.12647-34.19336H73.11067Z"/><path class="cls-1" d="M140.59016,395.5381a22.7344,22.7344,0,0,1-1.95263,9.39942,24.52681,24.52681,0,0,1-5.58545,7.99218,27.03472,27.03472,0,0,1-27.97266,5.4043,25.58076,25.58076,0,0,1-8.28711-5.38086,21.72859,21.72859,0,0,1-5.47217-8.01562,22.12957,22.12957,0,0,1-1.95263-9.39942,23.36473,23.36473,0,0,1,1.95263-9.49121,22.65647,22.65647,0,0,1,5.49463-7.99219,25.30685,25.30685,0,0,1,8.26465-5.3125,28.99867,28.99867,0,0,1,19.708,0,25.31721,25.31721,0,0,1,8.26465,5.3125,21.16917,21.16917,0,0,1,5.58545,7.99219A23.373,23.373,0,0,1,140.59016,395.5381Zm-16.07519,0q0-5.13135-2.58838-8.083a9.0027,9.0027,0,0,0-6.99317-2.95214,8.74391,8.74391,0,0,0-6.99316,2.95214q-2.58838,2.86085-2.58838,8.083,0,5.08594,2.49756,7.99219a9.87052,9.87052,0,0,0,14.168,0A12.08652,12.08652,0,0,0,124.515,395.5381Z"/><path class="cls-1" d="M152.44221,418.334l-.09082-34.4209h-6.85693V372.46974h6.85693V358.8008h16.0752v13.66894h6.76611V383.9131h-6.76611V418.334Z"/><path class="cls-1" d="M231.36506,395.5381a22.73424,22.73424,0,0,1-1.95263,9.39942,24.52666,24.52666,0,0,1-5.58545,7.99218,27.03472,27.03472,0,0,1-27.97266,5.4043,25.58086,25.58086,0,0,1-8.28711-5.38086,21.72859,21.72859,0,0,1-5.47217-8.01562,22.12972,22.12972,0,0,1-1.95263-9.39942,23.36489,23.36489,0,0,1,1.95263-9.49121,22.6566,22.6566,0,0,1,5.49463-7.99219,25.307,25.307,0,0,1,8.26465-5.3125,28.99867,28.99867,0,0,1,19.708,0,25.317,25.317,0,0,1,8.26465,5.3125,21.16917,21.16917,0,0,1,5.58545,7.99219A23.37283,23.37283,0,0,1,231.36506,395.5381Zm-16.07519,0q0-5.13135-2.58838-8.083a9.00269,9.00269,0,0,0-6.99316-2.95214,8.74392,8.74392,0,0,0-6.99317,2.95214q-2.58837,2.86085-2.58838,8.083,0,5.08594,2.49756,7.99219a9.87052,9.87052,0,0,0,14.168,0A12.08652,12.08652,0,0,0,215.28987,395.5381Z"/><path class="cls-1" d="M240.76545,418.334V372.46974h15.25782v10.80762a19.742,19.742,0,0,1,6.40283-8.85547,16.66319,16.66319,0,0,1,9.94482-2.95117,15.16662,15.16662,0,0,1,1.95264.09082q.49952.04541.9082.06836c.27246.01562.62012.05273,1.04444.11328l-1.54395,14.71289a23.75025,23.75025,0,0,0-2.90625-.77246q-1.81641-.18018-2.6792-.18164-5.90331,0-9.12744,3.63281-3.17871,3.58887-3.17871,10.21778V418.334Z"/><path class="cls-1" d="M277.95637,414.51955l3.36084-12.35156a24.75168,24.75168,0,0,0,7.81055,4.72558,22.954,22.954,0,0,0,8.53711,1.67676,8.33834,8.33834,0,0,0,4.63183-1.042,3.0412,3.0412,0,0,0,1.58887-2.76563q0-3.03662-6.40234-4.5332-2.22657-.498-3.36035-.86133-7.40333-2.18115-10.49024-5.31641a11.07032,11.07032,0,0,1-3.36035-8.36035,13.0153,13.0153,0,0,1,5.041-10.67676q4.85742-3.99755,13.57714-3.998a43.812,43.812,0,0,1,8.99122,1.00293,46.38343,46.38343,0,0,1,9.30957,3.19238l-3.36036,11.15332a26.38494,26.38494,0,0,0-6.585-3.31738,19.22515,19.22515,0,0,0-6.584-1.13281,8.23823,8.23823,0,0,0-4.22363.86132,2.70947,2.70947,0,0,0-1.36231,2.49317q0,2.35694,6.40332,4.08008,2.0874.63573,2.13379.63476,8.35546,2.35841,11.71582,5.58008a12.23454,12.23454,0,0,1,3.26953,8.84473,13.80323,13.80323,0,0,1-5.40332,11.34179q-5.54149,4.35352-14.30469,4.3545a42.67132,42.67132,0,0,1-11.19335-1.38575A37.62007,37.62007,0,0,1,277.95637,414.51955Z"/><path class="cls-1" d="M327.31819,438.58693V372.56545h14.89453v7.65625a22.70566,22.70566,0,0,1,6.94727-6.88184,16.51767,16.51767,0,0,1,8.583-2.23242,22.45127,22.45127,0,0,1,8.71875,1.6123,18.13194,18.13194,0,0,1,6.72071,4.88086q5.6748,6.49512,5.67578,17.9375,0,10.98925-5.67578,17.75489a18.90786,18.90786,0,0,1-6.5625,5.13183,19.7397,19.7397,0,0,1-8.332,1.68067,18.594,18.594,0,0,1-9.49122-2.13477,19.41377,19.41377,0,0,1-6.49316-7.084,25.71957,25.71957,0,0,1,.36328,3.36035q.08936,1.31689.09082,4.81347v19.52637Zm14.34961-43.02637q0,5.34814,2.85449,8.47461,2.62647,3.03809,7.61231,3.03711a9.88382,9.88382,0,0,0,7.70214-3.03711,12.443,12.443,0,0,0,2.76465-8.47461q0-5.39208-2.76465-8.42968a9.89932,9.89932,0,0,0-7.70214-3.082q-4.93945,0-7.61231,3.082Q341.66731,390.12209,341.6678,395.56056Z"/><path class="cls-1" d="M437.25618,395.5381a22.74172,22.74172,0,0,1-1.95215,9.39942,24.52927,24.52927,0,0,1-5.58643,7.99218A27.03467,27.03467,0,0,1,401.745,418.334a25.58076,25.58076,0,0,1-8.28711-5.38086,21.72128,21.72128,0,0,1-5.47168-8.01562,22.115,22.115,0,0,1-1.95313-9.39942,23.34892,23.34892,0,0,1,1.95313-9.49121,22.6487,22.6487,0,0,1,5.49414-7.99219,25.31187,25.31187,0,0,1,8.26465-5.3125,28.99864,28.99864,0,0,1,19.708,0,25.31187,25.31187,0,0,1,8.26465,5.3125,21.18239,21.18239,0,0,1,5.58643,7.99219A23.38057,23.38057,0,0,1,437.25618,395.5381Zm-16.07569,0q0-5.13135-2.58789-8.083a9.00482,9.00482,0,0,0-6.99316-2.95214,8.74188,8.74188,0,0,0-6.99316,2.95214q-2.58839,2.86085-2.58887,8.083,0,5.08594,2.498,7.99219a9.87052,9.87052,0,0,0,14.168,0A12.08893,12.08893,0,0,0,421.18049,395.5381Z"/><path class="cls-1" d="M446.65657,418.334V372.46974h15.25781v10.80762a19.73417,19.73417,0,0,1,6.40234-8.85547,16.66474,16.66474,0,0,1,9.94532-2.95117,15.16306,15.16306,0,0,1,1.95215.09082q.4995.04541.9082.06836c.27246.01562.62012.05273,1.04492.11328l-1.54394,14.71289a23.79668,23.79668,0,0,0-2.90625-.77246q-1.81788-.18018-2.67969-.18164-5.90332,0-9.127,3.63281-3.18016,3.58887-3.17871,10.21778V418.334Z"/><path class="cls-1" d="M490.6595,418.334l-.09082-34.4209h-6.85742V372.46974h6.85742V358.8008h16.07519v13.66894h6.76563V383.9131h-6.76563V418.334Z"/><path class="cls-1" d="M516.679,414.51955l3.36035-12.35156a24.75168,24.75168,0,0,0,7.81055,4.72558,22.954,22.954,0,0,0,8.53711,1.67676,8.33837,8.33837,0,0,0,4.63183-1.042,3.0412,3.0412,0,0,0,1.58887-2.76563q0-3.03662-6.40234-4.5332-2.22657-.498-3.36036-.86133-7.40331-2.18115-10.49023-5.31641a11.07032,11.07032,0,0,1-3.36035-8.36035,13.01532,13.01532,0,0,1,5.041-10.67676q4.85744-3.99755,13.57715-3.998a43.81181,43.81181,0,0,1,8.99121,1.00293,46.383,46.383,0,0,1,9.30957,3.19238l-3.36035,11.15332a26.38494,26.38494,0,0,0-6.585-3.31738,19.22519,19.22519,0,0,0-6.584-1.13281,8.23829,8.23829,0,0,0-4.22364.86132,2.70948,2.70948,0,0,0-1.3623,2.49317q0,2.35694,6.40332,4.08008,2.0874.63573,2.13379.63476,8.35546,2.35841,11.71582,5.58008a12.23454,12.23454,0,0,1,3.26953,8.84473,13.80323,13.80323,0,0,1-5.40332,11.34179q-5.54151,4.35352-14.30469,4.3545a42.67145,42.67145,0,0,1-11.19336-1.38575A37.60969,37.60969,0,0,1,516.679,414.51955Z"/><path class="cls-2" d="M83.328,418.334H66.39L62.4842,389.58888q-.4995-3.85839-.72656-6.76562-.31787-2.86085-.63574-8.12891a93.30116,93.30116,0,0,1-2.543,10.53516q-.36329,1.13671-.54492,1.95312L48.99739,418.334H36.91829l-9.03662-31.15137a13.34587,13.34587,0,0,0-.54493-1.95312,65.83385,65.83385,0,0,1-2.49755-10.53516q-.364,4.99659-.68116,7.44727-.13623,1.27295-.40869,3.72363-.27246,2.45216-.40869,3.72363L19.43538,418.334H2.58821L12.8509,351.85353h17.937l10.03564,34.28418q.27246.95361.36328,1.22656a47.04715,47.04715,0,0,1,1.771,7.81055,33.91383,33.91383,0,0,1,.68115-3.99609q.18091-.68115,1.3623-5.13184l10.12647-34.19336H73.11067Z"/><path class="cls-2" d="M140.59016,395.5381a22.7344,22.7344,0,0,1-1.95263,9.39942,24.52681,24.52681,0,0,1-5.58545,7.99218,27.03472,27.03472,0,0,1-27.97266,5.4043,25.58076,25.58076,0,0,1-8.28711-5.38086,21.72859,21.72859,0,0,1-5.47217-8.01562,22.12957,22.12957,0,0,1-1.95263-9.39942,23.36473,23.36473,0,0,1,1.95263-9.49121,22.65647,22.65647,0,0,1,5.49463-7.99219,25.30685,25.30685,0,0,1,8.26465-5.3125,28.99867,28.99867,0,0,1,19.708,0,25.31721,25.31721,0,0,1,8.26465,5.3125,21.16917,21.16917,0,0,1,5.58545,7.99219A23.373,23.373,0,0,1,140.59016,395.5381Zm-16.07519,0q0-5.13135-2.58838-8.083a9.0027,9.0027,0,0,0-6.99317-2.95214,8.74391,8.74391,0,0,0-6.99316,2.95214q-2.58838,2.86085-2.58838,8.083,0,5.08594,2.49756,7.99219a9.87052,9.87052,0,0,0,14.168,0A12.08652,12.08652,0,0,0,124.515,395.5381Z"/><path class="cls-2" d="M152.44221,418.334l-.09082-34.4209h-6.85693V372.46974h6.85693V358.8008h16.0752v13.66894h6.76611V383.9131h-6.76611V418.334Z"/><path class="cls-2" d="M231.36506,395.5381a22.73424,22.73424,0,0,1-1.95263,9.39942,24.52666,24.52666,0,0,1-5.58545,7.99218,27.03472,27.03472,0,0,1-27.97266,5.4043,25.58086,25.58086,0,0,1-8.28711-5.38086,21.72859,21.72859,0,0,1-5.47217-8.01562,22.12972,22.12972,0,0,1-1.95263-9.39942,23.36489,23.36489,0,0,1,1.95263-9.49121,22.6566,22.6566,0,0,1,5.49463-7.99219,25.307,25.307,0,0,1,8.26465-5.3125,28.99867,28.99867,0,0,1,19.708,0,25.317,25.317,0,0,1,8.26465,5.3125,21.16917,21.16917,0,0,1,5.58545,7.99219A23.37283,23.37283,0,0,1,231.36506,395.5381Zm-16.07519,0q0-5.13135-2.58838-8.083a9.00269,9.00269,0,0,0-6.99316-2.95214,8.74392,8.74392,0,0,0-6.99317,2.95214q-2.58837,2.86085-2.58838,8.083,0,5.08594,2.49756,7.99219a9.87052,9.87052,0,0,0,14.168,0A12.08652,12.08652,0,0,0,215.28987,395.5381Z"/><path class="cls-2" d="M240.76545,418.334V372.46974h15.25782v10.80762a19.742,19.742,0,0,1,6.40283-8.85547,16.66319,16.66319,0,0,1,9.94482-2.95117,15.16662,15.16662,0,0,1,1.95264.09082q.49952.04541.9082.06836c.27246.01562.62012.05273,1.04444.11328l-1.54395,14.71289a23.75025,23.75025,0,0,0-2.90625-.77246q-1.81641-.18018-2.6792-.18164-5.90331,0-9.12744,3.63281-3.17871,3.58887-3.17871,10.21778V418.334Z"/><path class="cls-2" d="M277.95637,414.51955l3.36084-12.35156a24.75168,24.75168,0,0,0,7.81055,4.72558,22.954,22.954,0,0,0,8.53711,1.67676,8.33834,8.33834,0,0,0,4.63183-1.042,3.0412,3.0412,0,0,0,1.58887-2.76563q0-3.03662-6.40234-4.5332-2.22657-.498-3.36035-.86133-7.40333-2.18115-10.49024-5.31641a11.07032,11.07032,0,0,1-3.36035-8.36035,13.0153,13.0153,0,0,1,5.041-10.67676q4.85742-3.99755,13.57714-3.998a43.812,43.812,0,0,1,8.99122,1.00293,46.38343,46.38343,0,0,1,9.30957,3.19238l-3.36036,11.15332a26.38494,26.38494,0,0,0-6.585-3.31738,19.22515,19.22515,0,0,0-6.584-1.13281,8.23823,8.23823,0,0,0-4.22363.86132,2.70947,2.70947,0,0,0-1.36231,2.49317q0,2.35694,6.40332,4.08008,2.0874.63573,2.13379.63476,8.35546,2.35841,11.71582,5.58008a12.23454,12.23454,0,0,1,3.26953,8.84473,13.80323,13.80323,0,0,1-5.40332,11.34179q-5.54149,4.35352-14.30469,4.3545a42.67132,42.67132,0,0,1-11.19335-1.38575A37.62007,37.62007,0,0,1,277.95637,414.51955Z"/><path class="cls-2" d="M327.31819,438.58693V372.56545h14.89453v7.65625a22.70566,22.70566,0,0,1,6.94727-6.88184,16.51767,16.51767,0,0,1,8.583-2.23242,22.45127,22.45127,0,0,1,8.71875,1.6123,18.13194,18.13194,0,0,1,6.72071,4.88086q5.6748,6.49512,5.67578,17.9375,0,10.98925-5.67578,17.75489a18.90786,18.90786,0,0,1-6.5625,5.13183,19.7397,19.7397,0,0,1-8.332,1.68067,18.594,18.594,0,0,1-9.49122-2.13477,19.41377,19.41377,0,0,1-6.49316-7.084,25.71957,25.71957,0,0,1,.36328,3.36035q.08936,1.31689.09082,4.81347v19.52637Zm14.34961-43.02637q0,5.34814,2.85449,8.47461,2.62647,3.03809,7.61231,3.03711a9.88382,9.88382,0,0,0,7.70214-3.03711,12.443,12.443,0,0,0,2.76465-8.47461q0-5.39208-2.76465-8.42968a9.89932,9.89932,0,0,0-7.70214-3.082q-4.93945,0-7.61231,3.082Q341.66731,390.12209,341.6678,395.56056Z"/><path class="cls-2" d="M437.25618,395.5381a22.74172,22.74172,0,0,1-1.95215,9.39942,24.52927,24.52927,0,0,1-5.58643,7.99218A27.03467,27.03467,0,0,1,401.745,418.334a25.58076,25.58076,0,0,1-8.28711-5.38086,21.72128,21.72128,0,0,1-5.47168-8.01562,22.115,22.115,0,0,1-1.95313-9.39942,23.34892,23.34892,0,0,1,1.95313-9.49121,22.6487,22.6487,0,0,1,5.49414-7.99219,25.31187,25.31187,0,0,1,8.26465-5.3125,28.99864,28.99864,0,0,1,19.708,0,25.31187,25.31187,0,0,1,8.26465,5.3125,21.18239,21.18239,0,0,1,5.58643,7.99219A23.38057,23.38057,0,0,1,437.25618,395.5381Zm-16.07569,0q0-5.13135-2.58789-8.083a9.00482,9.00482,0,0,0-6.99316-2.95214,8.74188,8.74188,0,0,0-6.99316,2.95214q-2.58839,2.86085-2.58887,8.083,0,5.08594,2.498,7.99219a9.87052,9.87052,0,0,0,14.168,0A12.08893,12.08893,0,0,0,421.18049,395.5381Z"/><path class="cls-2" d="M446.65657,418.334V372.46974h15.25781v10.80762a19.73417,19.73417,0,0,1,6.40234-8.85547,16.66474,16.66474,0,0,1,9.94532-2.95117,15.16306,15.16306,0,0,1,1.95215.09082q.4995.04541.9082.06836c.27246.01562.62012.05273,1.04492.11328l-1.54394,14.71289a23.79668,23.79668,0,0,0-2.90625-.77246q-1.81788-.18018-2.67969-.18164-5.90332,0-9.127,3.63281-3.18016,3.58887-3.17871,10.21778V418.334Z"/><path class="cls-2" d="M490.6595,418.334l-.09082-34.4209h-6.85742V372.46974h6.85742V358.8008h16.07519v13.66894h6.76563V383.9131h-6.76563V418.334Z"/><path class="cls-2" d="M516.679,414.51955l3.36035-12.35156a24.75168,24.75168,0,0,0,7.81055,4.72558,22.954,22.954,0,0,0,8.53711,1.67676,8.33837,8.33837,0,0,0,4.63183-1.042,3.0412,3.0412,0,0,0,1.58887-2.76563q0-3.03662-6.40234-4.5332-2.22657-.498-3.36036-.86133-7.40331-2.18115-10.49023-5.31641a11.07032,11.07032,0,0,1-3.36035-8.36035,13.01532,13.01532,0,0,1,5.041-10.67676q4.85744-3.99755,13.57715-3.998a43.81181,43.81181,0,0,1,8.99121,1.00293,46.383,46.383,0,0,1,9.30957,3.19238l-3.36035,11.15332a26.38494,26.38494,0,0,0-6.585-3.31738,19.22519,19.22519,0,0,0-6.584-1.13281,8.23829,8.23829,0,0,0-4.22364.86132,2.70948,2.70948,0,0,0-1.3623,2.49317q0,2.35694,6.40332,4.08008,2.0874.63573,2.13379.63476,8.35546,2.35841,11.71582,5.58008a12.23454,12.23454,0,0,1,3.26953,8.84473,13.80323,13.80323,0,0,1-5.40332,11.34179q-5.54151,4.35352-14.30469,4.3545a42.67145,42.67145,0,0,1-11.19336-1.38575A37.60969,37.60969,0,0,1,516.679,414.51955Z"/><path class="cls-2" d="M83.328,418.334H66.39L62.4842,389.58888q-.4995-3.85839-.72656-6.76562-.31787-2.86085-.63574-8.12891a93.30116,93.30116,0,0,1-2.543,10.53516q-.36329,1.13671-.54492,1.95312L48.99739,418.334H36.91829l-9.03662-31.15137a13.34587,13.34587,0,0,0-.54493-1.95312,65.83385,65.83385,0,0,1-2.49755-10.53516q-.364,4.99659-.68116,7.44727-.13623,1.27295-.40869,3.72363-.27246,2.45216-.40869,3.72363L19.43538,418.334H2.58821L12.8509,351.85353h17.937l10.03564,34.28418q.27246.95361.36328,1.22656a47.04715,47.04715,0,0,1,1.771,7.81055,33.91383,33.91383,0,0,1,.68115-3.99609q.18091-.68115,1.3623-5.13184l10.12647-34.19336H73.11067Z"/><path class="cls-2" d="M140.59016,395.5381a22.7344,22.7344,0,0,1-1.95263,9.39942,24.52681,24.52681,0,0,1-5.58545,7.99218,27.03472,27.03472,0,0,1-27.97266,5.4043,25.58076,25.58076,0,0,1-8.28711-5.38086,21.72859,21.72859,0,0,1-5.47217-8.01562,22.12957,22.12957,0,0,1-1.95263-9.39942,23.36473,23.36473,0,0,1,1.95263-9.49121,22.65647,22.65647,0,0,1,5.49463-7.99219,25.30685,25.30685,0,0,1,8.26465-5.3125,28.99867,28.99867,0,0,1,19.708,0,25.31721,25.31721,0,0,1,8.26465,5.3125,21.16917,21.16917,0,0,1,5.58545,7.99219A23.373,23.373,0,0,1,140.59016,395.5381Zm-16.07519,0q0-5.13135-2.58838-8.083a9.0027,9.0027,0,0,0-6.99317-2.95214,8.74391,8.74391,0,0,0-6.99316,2.95214q-2.58838,2.86085-2.58838,8.083,0,5.08594,2.49756,7.99219a9.87052,9.87052,0,0,0,14.168,0A12.08652,12.08652,0,0,0,124.515,395.5381Z"/><path class="cls-2" d="M152.44221,418.334l-.09082-34.4209h-6.85693V372.46974h6.85693V358.8008h16.0752v13.66894h6.76611V383.9131h-6.76611V418.334Z"/><path class="cls-2" d="M231.36506,395.5381a22.73424,22.73424,0,0,1-1.95263,9.39942,24.52666,24.52666,0,0,1-5.58545,7.99218,27.03472,27.03472,0,0,1-27.97266,5.4043,25.58086,25.58086,0,0,1-8.28711-5.38086,21.72859,21.72859,0,0,1-5.47217-8.01562,22.12972,22.12972,0,0,1-1.95263-9.39942,23.36489,23.36489,0,0,1,1.95263-9.49121,22.6566,22.6566,0,0,1,5.49463-7.99219,25.307,25.307,0,0,1,8.26465-5.3125,28.99867,28.99867,0,0,1,19.708,0,25.317,25.317,0,0,1,8.26465,5.3125,21.16917,21.16917,0,0,1,5.58545,7.99219A23.37283,23.37283,0,0,1,231.36506,395.5381Zm-16.07519,0q0-5.13135-2.58838-8.083a9.00269,9.00269,0,0,0-6.99316-2.95214,8.74392,8.74392,0,0,0-6.99317,2.95214q-2.58837,2.86085-2.58838,8.083,0,5.08594,2.49756,7.99219a9.87052,9.87052,0,0,0,14.168,0A12.08652,12.08652,0,0,0,215.28987,395.5381Z"/><path class="cls-2" d="M240.76545,418.334V372.46974h15.25782v10.80762a19.742,19.742,0,0,1,6.40283-8.85547,16.66319,16.66319,0,0,1,9.94482-2.95117,15.16662,15.16662,0,0,1,1.95264.09082q.49952.04541.9082.06836c.27246.01562.62012.05273,1.04444.11328l-1.54395,14.71289a23.75025,23.75025,0,0,0-2.90625-.77246q-1.81641-.18018-2.6792-.18164-5.90331,0-9.12744,3.63281-3.17871,3.58887-3.17871,10.21778V418.334Z"/><path class="cls-2" d="M277.95637,414.51955l3.36084-12.35156a24.75168,24.75168,0,0,0,7.81055,4.72558,22.954,22.954,0,0,0,8.53711,1.67676,8.33834,8.33834,0,0,0,4.63183-1.042,3.0412,3.0412,0,0,0,1.58887-2.76563q0-3.03662-6.40234-4.5332-2.22657-.498-3.36035-.86133-7.40333-2.18115-10.49024-5.31641a11.07032,11.07032,0,0,1-3.36035-8.36035,13.0153,13.0153,0,0,1,5.041-10.67676q4.85742-3.99755,13.57714-3.998a43.812,43.812,0,0,1,8.99122,1.00293,46.38343,46.38343,0,0,1,9.30957,3.19238l-3.36036,11.15332a26.38494,26.38494,0,0,0-6.585-3.31738,19.22515,19.22515,0,0,0-6.584-1.13281,8.23823,8.23823,0,0,0-4.22363.86132,2.70947,2.70947,0,0,0-1.36231,2.49317q0,2.35694,6.40332,4.08008,2.0874.63573,2.13379.63476,8.35546,2.35841,11.71582,5.58008a12.23454,12.23454,0,0,1,3.26953,8.84473,13.80323,13.80323,0,0,1-5.40332,11.34179q-5.54149,4.35352-14.30469,4.3545a42.67132,42.67132,0,0,1-11.19335-1.38575A37.62007,37.62007,0,0,1,277.95637,414.51955Z"/><path class="cls-2" d="M327.31819,438.58693V372.56545h14.89453v7.65625a22.70566,22.70566,0,0,1,6.94727-6.88184,16.51767,16.51767,0,0,1,8.583-2.23242,22.45127,22.45127,0,0,1,8.71875,1.6123,18.13194,18.13194,0,0,1,6.72071,4.88086q5.6748,6.49512,5.67578,17.9375,0,10.98925-5.67578,17.75489a18.90786,18.90786,0,0,1-6.5625,5.13183,19.7397,19.7397,0,0,1-8.332,1.68067,18.594,18.594,0,0,1-9.49122-2.13477,19.41377,19.41377,0,0,1-6.49316-7.084,25.71957,25.71957,0,0,1,.36328,3.36035q.08936,1.31689.09082,4.81347v19.52637Zm14.34961-43.02637q0,5.34814,2.85449,8.47461,2.62647,3.03809,7.61231,3.03711a9.88382,9.88382,0,0,0,7.70214-3.03711,12.443,12.443,0,0,0,2.76465-8.47461q0-5.39208-2.76465-8.42968a9.89932,9.89932,0,0,0-7.70214-3.082q-4.93945,0-7.61231,3.082Q341.66731,390.12209,341.6678,395.56056Z"/><path class="cls-2" d="M437.25618,395.5381a22.74172,22.74172,0,0,1-1.95215,9.39942,24.52927,24.52927,0,0,1-5.58643,7.99218A27.03467,27.03467,0,0,1,401.745,418.334a25.58076,25.58076,0,0,1-8.28711-5.38086,21.72128,21.72128,0,0,1-5.47168-8.01562,22.115,22.115,0,0,1-1.95313-9.39942,23.34892,23.34892,0,0,1,1.95313-9.49121,22.6487,22.6487,0,0,1,5.49414-7.99219,25.31187,25.31187,0,0,1,8.26465-5.3125,28.99864,28.99864,0,0,1,19.708,0,25.31187,25.31187,0,0,1,8.26465,5.3125,21.18239,21.18239,0,0,1,5.58643,7.99219A23.38057,23.38057,0,0,1,437.25618,395.5381Zm-16.07569,0q0-5.13135-2.58789-8.083a9.00482,9.00482,0,0,0-6.99316-2.95214,8.74188,8.74188,0,0,0-6.99316,2.95214q-2.58839,2.86085-2.58887,8.083,0,5.08594,2.498,7.99219a9.87052,9.87052,0,0,0,14.168,0A12.08893,12.08893,0,0,0,421.18049,395.5381Z"/><path class="cls-2" d="M446.65657,418.334V372.46974h15.25781v10.80762a19.73417,19.73417,0,0,1,6.40234-8.85547,16.66474,16.66474,0,0,1,9.94532-2.95117,15.16306,15.16306,0,0,1,1.95215.09082q.4995.04541.9082.06836c.27246.01562.62012.05273,1.04492.11328l-1.54394,14.71289a23.79668,23.79668,0,0,0-2.90625-.77246q-1.81788-.18018-2.67969-.18164-5.90332,0-9.127,3.63281-3.18016,3.58887-3.17871,10.21778V418.334Z"/><path class="cls-2" d="M490.6595,418.334l-.09082-34.4209h-6.85742V372.46974h6.85742V358.8008h16.07519v13.66894h6.76563V383.9131h-6.76563V418.334Z"/><path class="cls-2" d="M516.679,414.51955l3.36035-12.35156a24.75168,24.75168,0,0,0,7.81055,4.72558,22.954,22.954,0,0,0,8.53711,1.67676,8.33837,8.33837,0,0,0,4.63183-1.042,3.0412,3.0412,0,0,0,1.58887-2.76563q0-3.03662-6.40234-4.5332-2.22657-.498-3.36036-.86133-7.40331-2.18115-10.49023-5.31641a11.07032,11.07032,0,0,1-3.36035-8.36035,13.01532,13.01532,0,0,1,5.041-10.67676q4.85744-3.99755,13.57715-3.998a43.81181,43.81181,0,0,1,8.99121,1.00293,46.383,46.383,0,0,1,9.30957,3.19238l-3.36035,11.15332a26.38494,26.38494,0,0,0-6.585-3.31738,19.22519,19.22519,0,0,0-6.584-1.13281,8.23829,8.23829,0,0,0-4.22364.86132,2.70948,2.70948,0,0,0-1.3623,2.49317q0,2.35694,6.40332,4.08008,2.0874.63573,2.13379.63476,8.35546,2.35841,11.71582,5.58008a12.23454,12.23454,0,0,1,3.26953,8.84473,13.80323,13.80323,0,0,1-5.40332,11.34179q-5.54151,4.35352-14.30469,4.3545a42.67145,42.67145,0,0,1-11.19336-1.38575A37.60969,37.60969,0,0,1,516.679,414.51955Z"/><path class="cls-2" d="M83.328,418.334H66.39L62.4842,389.58888q-.4995-3.85839-.72656-6.76562-.31787-2.86085-.63574-8.12891a93.30116,93.30116,0,0,1-2.543,10.53516q-.36329,1.13671-.54492,1.95312L48.99739,418.334H36.91829l-9.03662-31.15137a13.34587,13.34587,0,0,0-.54493-1.95312,65.83385,65.83385,0,0,1-2.49755-10.53516q-.364,4.99659-.68116,7.44727-.13623,1.27295-.40869,3.72363-.27246,2.45216-.40869,3.72363L19.43538,418.334H2.58821L12.8509,351.85353h17.937l10.03564,34.28418q.27246.95361.36328,1.22656a47.04715,47.04715,0,0,1,1.771,7.81055,33.91383,33.91383,0,0,1,.68115-3.99609q.18091-.68115,1.3623-5.13184l10.12647-34.19336H73.11067Z"/><path class="cls-2" d="M140.59016,395.5381a22.7344,22.7344,0,0,1-1.95263,9.39942,24.52681,24.52681,0,0,1-5.58545,7.99218,27.03472,27.03472,0,0,1-27.97266,5.4043,25.58076,25.58076,0,0,1-8.28711-5.38086,21.72859,21.72859,0,0,1-5.47217-8.01562,22.12957,22.12957,0,0,1-1.95263-9.39942,23.36473,23.36473,0,0,1,1.95263-9.49121,22.65647,22.65647,0,0,1,5.49463-7.99219,25.30685,25.30685,0,0,1,8.26465-5.3125,28.99867,28.99867,0,0,1,19.708,0,25.31721,25.31721,0,0,1,8.26465,5.3125,21.16917,21.16917,0,0,1,5.58545,7.99219A23.373,23.373,0,0,1,140.59016,395.5381Zm-16.07519,0q0-5.13135-2.58838-8.083a9.0027,9.0027,0,0,0-6.99317-2.95214,8.74391,8.74391,0,0,0-6.99316,2.95214q-2.58838,2.86085-2.58838,8.083,0,5.08594,2.49756,7.99219a9.87052,9.87052,0,0,0,14.168,0A12.08652,12.08652,0,0,0,124.515,395.5381Z"/><path class="cls-2" d="M152.44221,418.334l-.09082-34.4209h-6.85693V372.46974h6.85693V358.8008h16.0752v13.66894h6.76611V383.9131h-6.76611V418.334Z"/><path class="cls-2" d="M231.36506,395.5381a22.73424,22.73424,0,0,1-1.95263,9.39942,24.52666,24.52666,0,0,1-5.58545,7.99218,27.03472,27.03472,0,0,1-27.97266,5.4043,25.58086,25.58086,0,0,1-8.28711-5.38086,21.72859,21.72859,0,0,1-5.47217-8.01562,22.12972,22.12972,0,0,1-1.95263-9.39942,23.36489,23.36489,0,0,1,1.95263-9.49121,22.6566,22.6566,0,0,1,5.49463-7.99219,25.307,25.307,0,0,1,8.26465-5.3125,28.99867,28.99867,0,0,1,19.708,0,25.317,25.317,0,0,1,8.26465,5.3125,21.16917,21.16917,0,0,1,5.58545,7.99219A23.37283,23.37283,0,0,1,231.36506,395.5381Zm-16.07519,0q0-5.13135-2.58838-8.083a9.00269,9.00269,0,0,0-6.99316-2.95214,8.74392,8.74392,0,0,0-6.99317,2.95214q-2.58837,2.86085-2.58838,8.083,0,5.08594,2.49756,7.99219a9.87052,9.87052,0,0,0,14.168,0A12.08652,12.08652,0,0,0,215.28987,395.5381Z"/><path class="cls-2" d="M240.76545,418.334V372.46974h15.25782v10.80762a19.742,19.742,0,0,1,6.40283-8.85547,16.66319,16.66319,0,0,1,9.94482-2.95117,15.16662,15.16662,0,0,1,1.95264.09082q.49952.04541.9082.06836c.27246.01562.62012.05273,1.04444.11328l-1.54395,14.71289a23.75025,23.75025,0,0,0-2.90625-.77246q-1.81641-.18018-2.6792-.18164-5.90331,0-9.12744,3.63281-3.17871,3.58887-3.17871,10.21778V418.334Z"/><path class="cls-2" d="M277.95637,414.51955l3.36084-12.35156a24.75168,24.75168,0,0,0,7.81055,4.72558,22.954,22.954,0,0,0,8.53711,1.67676,8.33834,8.33834,0,0,0,4.63183-1.042,3.0412,3.0412,0,0,0,1.58887-2.76563q0-3.03662-6.40234-4.5332-2.22657-.498-3.36035-.86133-7.40333-2.18115-10.49024-5.31641a11.07032,11.07032,0,0,1-3.36035-8.36035,13.0153,13.0153,0,0,1,5.041-10.67676q4.85742-3.99755,13.57714-3.998a43.812,43.812,0,0,1,8.99122,1.00293,46.38343,46.38343,0,0,1,9.30957,3.19238l-3.36036,11.15332a26.38494,26.38494,0,0,0-6.585-3.31738,19.22515,19.22515,0,0,0-6.584-1.13281,8.23823,8.23823,0,0,0-4.22363.86132,2.70947,2.70947,0,0,0-1.36231,2.49317q0,2.35694,6.40332,4.08008,2.0874.63573,2.13379.63476,8.35546,2.35841,11.71582,5.58008a12.23454,12.23454,0,0,1,3.26953,8.84473,13.80323,13.80323,0,0,1-5.40332,11.34179q-5.54149,4.35352-14.30469,4.3545a42.67132,42.67132,0,0,1-11.19335-1.38575A37.62007,37.62007,0,0,1,277.95637,414.51955Z"/><path class="cls-2" d="M327.31819,438.58693V372.56545h14.89453v7.65625a22.70566,22.70566,0,0,1,6.94727-6.88184,16.51767,16.51767,0,0,1,8.583-2.23242,22.45127,22.45127,0,0,1,8.71875,1.6123,18.13194,18.13194,0,0,1,6.72071,4.88086q5.6748,6.49512,5.67578,17.9375,0,10.98925-5.67578,17.75489a18.90786,18.90786,0,0,1-6.5625,5.13183,19.7397,19.7397,0,0,1-8.332,1.68067,18.594,18.594,0,0,1-9.49122-2.13477,19.41377,19.41377,0,0,1-6.49316-7.084,25.71957,25.71957,0,0,1,.36328,3.36035q.08936,1.31689.09082,4.81347v19.52637Zm14.34961-43.02637q0,5.34814,2.85449,8.47461,2.62647,3.03809,7.61231,3.03711a9.88382,9.88382,0,0,0,7.70214-3.03711,12.443,12.443,0,0,0,2.76465-8.47461q0-5.39208-2.76465-8.42968a9.89932,9.89932,0,0,0-7.70214-3.082q-4.93945,0-7.61231,3.082Q341.66731,390.12209,341.6678,395.56056Z"/><path class="cls-2" d="M437.25618,395.5381a22.74172,22.74172,0,0,1-1.95215,9.39942,24.52927,24.52927,0,0,1-5.58643,7.99218A27.03467,27.03467,0,0,1,401.745,418.334a25.58076,25.58076,0,0,1-8.28711-5.38086,21.72128,21.72128,0,0,1-5.47168-8.01562,22.115,22.115,0,0,1-1.95313-9.39942,23.34892,23.34892,0,0,1,1.95313-9.49121,22.6487,22.6487,0,0,1,5.49414-7.99219,25.31187,25.31187,0,0,1,8.26465-5.3125,28.99864,28.99864,0,0,1,19.708,0,25.31187,25.31187,0,0,1,8.26465,5.3125,21.18239,21.18239,0,0,1,5.58643,7.99219A23.38057,23.38057,0,0,1,437.25618,395.5381Zm-16.07569,0q0-5.13135-2.58789-8.083a9.00482,9.00482,0,0,0-6.99316-2.95214,8.74188,8.74188,0,0,0-6.99316,2.95214q-2.58839,2.86085-2.58887,8.083,0,5.08594,2.498,7.99219a9.87052,9.87052,0,0,0,14.168,0A12.08893,12.08893,0,0,0,421.18049,395.5381Z"/><path class="cls-2" d="M446.65657,418.334V372.46974h15.25781v10.80762a19.73417,19.73417,0,0,1,6.40234-8.85547,16.66474,16.66474,0,0,1,9.94532-2.95117,15.16306,15.16306,0,0,1,1.95215.09082q.4995.04541.9082.06836c.27246.01562.62012.05273,1.04492.11328l-1.54394,14.71289a23.79668,23.79668,0,0,0-2.90625-.77246q-1.81788-.18018-2.67969-.18164-5.90332,0-9.127,3.63281-3.18016,3.58887-3.17871,10.21778V418.334Z"/><path class="cls-2" d="M490.6595,418.334l-.09082-34.4209h-6.85742V372.46974h6.85742V358.8008h16.07519v13.66894h6.76563V383.9131h-6.76563V418.334Z"/><path class="cls-2" d="M516.679,414.51955l3.36035-12.35156a24.75168,24.75168,0,0,0,7.81055,4.72558,22.954,22.954,0,0,0,8.53711,1.67676,8.33837,8.33837,0,0,0,4.63183-1.042,3.0412,3.0412,0,0,0,1.58887-2.76563q0-3.03662-6.40234-4.5332-2.22657-.498-3.36036-.86133-7.40331-2.18115-10.49023-5.31641a11.07032,11.07032,0,0,1-3.36035-8.36035,13.01532,13.01532,0,0,1,5.041-10.67676q4.85744-3.99755,13.57715-3.998a43.81181,43.81181,0,0,1,8.99121,1.00293,46.383,46.383,0,0,1,9.30957,3.19238l-3.36035,11.15332a26.38494,26.38494,0,0,0-6.585-3.31738,19.22519,19.22519,0,0,0-6.584-1.13281,8.23829,8.23829,0,0,0-4.22364.86132,2.70948,2.70948,0,0,0-1.3623,2.49317q0,2.35694,6.40332,4.08008,2.0874.63573,2.13379.63476,8.35546,2.35841,11.71582,5.58008a12.23454,12.23454,0,0,1,3.26953,8.84473,13.80323,13.80323,0,0,1-5.40332,11.34179q-5.54151,4.35352-14.30469,4.3545a42.67145,42.67145,0,0,1-11.19336-1.38575A37.60969,37.60969,0,0,1,516.679,414.51955Z"/><path class="cls-3" d="M178.58316,323.70719H118.99038L221.58757,92.93029h59.59277ZM162.19,92.93029H102.59719L0,323.70719H59.59277ZM419.38685,46.46515H359.89406L236.984,322.93277h59.49278Zm120.12731,0L560,0H143.53365L123.04782,46.46515Z"/></g></g></svg>