<?xml version="1.0" encoding="utf-8"?>
<!-- Generator: Adobe Illustrator 25.2.0, SVG Export Plug-In . SVG Version: 6.00 Build 0)  -->
<svg version="1.1" id="Layer_1" xmlns="http://www.w3.org/2000/svg" xmlns:xlink="http://www.w3.org/1999/xlink" x="0px" y="0px"
	 viewBox="0 0 1840 800" style="enable-background:new 0 0 1840 800;" xml:space="preserve">
<style type="text/css">
	.st0{fill:#CE1126;}
	.st1{fill:#FFFFFF;}
</style>
<g id="Layer_2_1_">
	<g id="IIT-WhiteOnRed-Inline-Motorsports">
		<rect class="st0" width="1840" height="800"/>
		<path class="st1" d="M348.8,540.9h-59.6l102.6-230.8h59.6L348.8,540.9z M332.4,310.2h-59.6L170.2,540.9h59.6L332.4,310.2z
			 M589.6,263.7h-59.5L407.2,540.2h59.5L589.6,263.7z M709.8,263.7l20.5-46.5H313.8l-20.5,46.5H709.8z"/>
		<path class="st1" d="M747.2,540.2h-32.8l-7.6-55.6c-0.6-5-1.1-9.3-1.4-13.1c-0.4-3.7-0.8-8.9-1.2-15.7c-1.2,6.9-2.9,13.7-4.9,20.4
			c-0.5,1.5-0.8,2.7-1.1,3.8l-17.5,60.3h-23.4L639.8,480c-0.3-1.3-0.6-2.5-1.1-3.8c-2.2-6.7-3.8-13.5-4.8-20.4
			c-0.5,6.4-0.9,11.3-1.3,14.4c-0.2,1.6-0.4,4-0.8,7.2s-0.6,5.6-0.8,7.2l-7.6,55.6h-32.6l19.9-128.7h34.7l19.4,66.4
			c0.4,1.2,0.6,2,0.7,2.4c1.6,4.9,2.7,10,3.4,15.1c0.3-2.6,0.7-5.2,1.3-7.7c0.2-0.9,1.1-4.2,2.6-9.9l19.6-66.2h34.8L747.2,540.2z"/>
		<path class="st1" d="M858,496c0,6.3-1.2,12.5-3.8,18.2c-2.5,5.8-6.2,11.1-10.8,15.5c-14.6,13.5-35.6,17.5-54.1,10.5
			c-6-2.4-11.4-5.9-16-10.4c-4.7-4.3-8.3-9.6-10.6-15.5c-2.6-5.7-3.9-11.9-3.8-18.2c0-6.3,1.2-12.6,3.8-18.4
			c2.4-5.9,6-11.1,10.6-15.5s10-7.9,16-10.3c12.3-4.5,25.8-4.5,38.1,0c6,2.4,11.4,5.8,16,10.3c4.8,4.2,8.5,9.5,10.8,15.5
			C856.8,483.5,858,489.7,858,496z M826.9,496c0-6.6-1.7-11.8-5-15.6c-3.4-3.8-8.4-5.9-13.5-5.7c-5.7,0-10.3,1.9-13.5,5.7
			c-3.3,3.7-5,8.9-5,15.6c0,6.6,1.6,11.7,4.8,15.5c7.3,7.6,19.4,7.8,27,0.4c0.1-0.1,0.3-0.3,0.4-0.4
			C825.3,507.6,826.9,502.5,826.9,496z"/>
		<path class="st1" d="M880.9,540.2l-0.2-66.6h-13.3v-22.1h13.3V425h31.1v26.5H925v22.1h-13.1v66.6H880.9z"/>
		<path class="st1" d="M1033.7,496c0,6.3-1.2,12.5-3.8,18.2c-2.5,5.8-6.2,11.1-10.8,15.5c-14.6,13.5-35.6,17.5-54.1,10.5
			c-6-2.4-11.4-5.9-16-10.4c-4.7-4.3-8.3-9.6-10.6-15.5c-2.6-5.7-3.9-11.9-3.8-18.2c0-6.3,1.2-12.6,3.8-18.4
			c2.4-5.9,6-11.1,10.6-15.5s10-7.9,16-10.3c12.3-4.5,25.8-4.5,38.1,0c6,2.4,11.4,5.8,16,10.3c4.8,4.2,8.5,9.5,10.8,15.5
			C1032.4,483.5,1033.7,489.7,1033.7,496z M1002.6,496c0-6.6-1.7-11.8-5-15.6c-3.4-3.8-8.4-5.9-13.5-5.7c-5.7,0-10.3,1.9-13.5,5.7
			c-3.3,3.7-5,8.9-5,15.6c0,6.6,1.6,11.7,4.8,15.5c7.3,7.6,19.4,7.8,27,0.4c0.1-0.1,0.3-0.3,0.4-0.4
			C1001,507.6,1002.6,502.5,1002.6,496z"/>
		<path class="st1" d="M1051.9,540.2v-88.8h29.5v20.9c3.1-7.7,7.2-13.4,12.4-17.1c5.3-3.8,11.7-5.7,19.2-5.7c1.3,0,2.5,0,3.8,0.2
			c0.6,0.1,1.2,0.1,1.8,0.1c0.5,0,1.2,0.1,2,0.2l-3,28.5c-1.8-0.6-3.7-1.1-5.6-1.5c-2.3-0.2-4.1-0.4-5.2-0.4c-7.6,0-13.5,2.3-17.7,7
			c-4.1,4.6-6.2,11.2-6.2,19.8v36.7L1051.9,540.2L1051.9,540.2z"/>
		<path class="st1" d="M1123.9,532.8l6.5-23.9c4.4,4,9.6,7.1,15.1,9.1c5.3,2.1,10.9,3.2,16.5,3.2c4,0,7-0.7,9-2
			c2-1.1,3.1-3.1,3.1-5.4c0-3.9-4.1-6.8-12.4-8.8c-2.9-0.6-5-1.2-6.5-1.7c-9.6-2.8-16.3-6.2-20.3-10.3c-4.3-4.2-6.5-9.6-6.5-16.2
			c0-8.6,3.3-15.4,9.8-20.7c6.3-5.2,15-7.7,26.3-7.7c5.9,0,11.7,0.7,17.4,1.9c6.2,1.4,12.2,3.5,18,6.2l-6.5,21.6
			c-3.9-2.7-8.2-4.9-12.7-6.4c-4.1-1.5-8.4-2.2-12.7-2.2c-3.6,0-6.4,0.6-8.2,1.7c-1.7,1-2.7,2.8-2.6,4.8c0,3,4.1,5.7,12.4,7.9
			c2.7,0.8,4.1,1.2,4.1,1.2c10.8,3,18.3,6.6,22.7,10.8c4.2,4.4,6.3,10.1,6.3,17.1c0.2,8.6-3.7,16.7-10.5,22
			c-7.1,5.6-16.4,8.4-27.7,8.4c-7.3,0.1-14.6-0.8-21.7-2.7C1136.1,539.1,1129.7,536.4,1123.9,532.8z"/>
		<path class="st1" d="M1219.4,579.4V451.6h28.8v14.8c3.5-5.4,8.1-9.9,13.4-13.3c5-2.9,10.8-4.4,16.6-4.3c5.8-0.1,11.5,1,16.9,3.1
			c5,2.1,9.5,5.3,13,9.4c7.3,8.4,11,20,11,34.7c0,14.2-3.7,25.6-11,34.4c-3.4,4.2-7.8,7.6-12.7,9.9c-5.1,2.2-10.6,3.4-16.1,3.3
			c-7.6,0-13.7-1.4-18.4-4.1c-4.5-2.6-8.7-7.2-12.6-13.7c0.4,2.2,0.6,4.3,0.7,6.5c0.1,1.7,0.2,4.8,0.2,9.3v37.8H1219.4z
			 M1247.2,496.1c0,6.9,1.8,12.4,5.5,16.4c3.4,3.9,8.3,5.9,14.7,5.9c6.4,0,11.3-2,14.9-5.9c3.6-4.1,5.3-9.6,5.4-16.4
			c0-7-1.8-12.4-5.4-16.3c-3.6-4-8.6-6-14.9-6c-6.4,0-11.3,2-14.7,6C1249,483.6,1247.2,489.1,1247.2,496.1z"/>
		<path class="st1" d="M1432.2,496c0,6.3-1.2,12.5-3.8,18.2c-2.5,5.8-6.2,11.1-10.8,15.5c-14.6,13.5-35.6,17.5-54.1,10.5
			c-6-2.4-11.4-5.9-16-10.4c-4.7-4.3-8.3-9.6-10.6-15.5c-2.6-5.7-3.9-11.9-3.8-18.2c0-6.3,1.2-12.6,3.8-18.4
			c2.4-5.9,6-11.1,10.6-15.5s10-7.9,16-10.3c12.3-4.5,25.8-4.5,38.1,0c6,2.4,11.4,5.8,16,10.3c4.8,4.2,8.5,9.5,10.8,15.5
			C1430.9,483.5,1432.2,489.7,1432.2,496z M1401.1,496c0-6.6-1.7-11.8-5-15.6c-3.4-3.8-8.4-5.9-13.5-5.7c-5.7,0-10.3,1.9-13.5,5.7
			c-3.3,3.7-5,8.9-5,15.6c0,6.6,1.6,11.7,4.8,15.5c7.3,7.6,19.4,7.8,27,0.4c0.1-0.1,0.3-0.3,0.4-0.4
			C1399.5,507.6,1401.1,502.5,1401.1,496z"/>
		<path class="st1" d="M1450.4,540.2v-88.8h29.5v20.9c3.1-7.7,7.2-13.4,12.4-17.1c5.3-3.8,11.7-5.7,19.2-5.7c1.3,0,2.5,0,3.8,0.2
			c0.6,0.1,1.2,0.1,1.8,0.1c0.5,0,1.2,0.1,2,0.2l-3,28.5c-1.8-0.6-3.7-1.1-5.6-1.5c-2.3-0.2-4.1-0.4-5.2-0.4c-7.6,0-13.5,2.3-17.7,7
			c-4.1,4.6-6.2,11.2-6.2,19.8v36.7L1450.4,540.2L1450.4,540.2z"/>
		<path class="st1" d="M1535.6,540.2l-0.2-66.6h-13.3v-22.1h13.3V425h31.1v26.5h13.1v22.1h-13.1v66.6H1535.6z"/>
		<path class="st1" d="M1585.9,532.8l6.5-23.9c4.4,4,9.6,7.1,15.1,9.1c5.3,2.1,10.9,3.2,16.5,3.2c4,0,7-0.7,9-2
			c2-1.1,3.1-3.1,3.1-5.4c0-3.9-4.1-6.8-12.4-8.8c-2.9-0.6-5-1.2-6.5-1.7c-9.6-2.8-16.3-6.2-20.3-10.3c-4.3-4.2-6.5-9.6-6.5-16.2
			c0-8.6,3.3-15.4,9.8-20.7c6.3-5.2,15-7.7,26.3-7.7c5.9,0,11.7,0.7,17.4,1.9c6.2,1.4,12.2,3.5,18,6.2l-6.5,21.6
			c-3.9-2.7-8.2-4.9-12.7-6.4c-4.1-1.5-8.4-2.2-12.7-2.2c-3.6,0-6.4,0.6-8.2,1.7c-1.7,1-2.7,2.8-2.6,4.8c0,3,4.1,5.7,12.4,7.9
			c2.7,0.8,4.1,1.2,4.1,1.2c10.8,3,18.3,6.6,22.7,10.8c4.2,4.4,6.3,10.1,6.3,17.1c0.2,8.6-3.7,16.7-10.5,22
			c-7.1,5.6-16.4,8.4-27.7,8.4c-7.3,0.1-14.6-0.8-21.7-2.7C1598.1,539.1,1591.8,536.4,1585.9,532.8z"/>
	</g>
</g>
</svg>
