<svg id="svg" xmlns="http://www.w3.org/2000/svg" xmlns:xlink="http://www.w3.org/1999/xlink" width="400" height="189.125" viewBox="0, 0, 400,189.125"><g id="svgg"><path id="path0" d="M176.915 13.469 C 176.863 13.521,176.534 14.104,176.183 14.766 C 175.832 15.427,175.313 16.405,175.030 16.938 C 174.746 17.470,174.127 18.637,173.654 19.531 C 173.181 20.425,172.337 22.014,171.779 23.063 C 168.450 29.313,168.443 29.328,168.703 29.398 C 168.780 29.419,185.471 29.436,205.793 29.437 C 229.647 29.437,242.799 29.459,242.902 29.498 C 243.113 29.579,243.119 29.886,242.917 30.189 C 242.837 30.308,242.537 30.856,242.251 31.406 C 241.965 31.956,241.486 32.856,241.186 33.406 C 240.886 33.956,240.445 34.786,240.206 35.250 C 239.966 35.714,239.446 36.698,239.050 37.438 C 238.655 38.177,238.134 39.161,237.893 39.625 C 237.652 40.089,237.398 40.567,237.328 40.688 C 237.258 40.808,236.786 41.694,236.279 42.656 C 235.772 43.619,235.267 44.575,235.157 44.781 C 234.864 45.332,233.861 47.230,232.829 49.188 C 231.901 50.946,230.738 53.137,229.875 54.750 C 229.609 55.248,229.214 55.994,228.999 56.406 C 228.578 57.210,228.090 58.128,226.874 60.406 C 226.451 61.197,225.911 62.209,225.672 62.656 C 225.434 63.103,224.647 64.594,223.924 65.969 C 223.201 67.344,222.461 68.736,222.281 69.063 C 222.100 69.389,221.410 70.683,220.748 71.938 C 220.086 73.192,219.285 74.711,218.967 75.313 C 218.650 75.914,218.144 76.870,217.842 77.438 C 217.540 78.005,217.064 78.905,216.783 79.438 C 216.502 79.970,215.503 81.855,214.563 83.625 C 213.623 85.395,212.765 87.013,212.657 87.219 C 212.062 88.347,211.215 89.940,210.845 90.625 C 210.613 91.055,210.268 91.702,210.077 92.063 C 209.886 92.423,209.492 93.169,209.200 93.719 C 208.909 94.269,208.403 95.225,208.077 95.844 C 207.751 96.463,207.323 97.264,207.126 97.625 C 206.929 97.986,206.423 98.942,206.001 99.750 C 205.578 100.558,205.085 101.486,204.906 101.813 C 204.618 102.335,203.607 104.254,202.798 105.813 C 202.646 106.105,202.367 106.625,202.179 106.969 C 201.761 107.729,201.741 107.779,201.830 107.867 C 201.969 108.006,219.770 107.963,219.897 107.823 C 219.953 107.760,220.000 107.678,220.000 107.641 C 220.000 107.604,220.022 107.564,220.050 107.552 C 220.077 107.541,220.219 107.292,220.366 107.000 C 220.789 106.155,221.215 105.346,221.256 105.313 C 221.302 105.274,221.375 105.136,221.837 104.208 C 222.040 103.801,222.223 103.455,222.244 103.438 C 222.264 103.420,222.404 103.167,222.555 102.875 C 222.705 102.583,222.963 102.091,223.128 101.781 C 223.293 101.472,223.515 101.050,223.621 100.844 C 223.727 100.638,223.995 100.131,224.217 99.719 C 224.439 99.306,224.706 98.800,224.810 98.594 C 224.913 98.388,225.081 98.078,225.181 97.906 C 225.282 97.734,225.496 97.341,225.657 97.031 C 225.818 96.722,226.043 96.300,226.157 96.094 C 226.271 95.888,226.525 95.395,226.723 95.000 C 226.921 94.605,227.099 94.267,227.119 94.250 C 227.140 94.233,227.269 93.994,227.406 93.719 C 227.544 93.444,227.674 93.205,227.695 93.188 C 227.716 93.170,227.809 93.002,227.902 92.813 C 228.125 92.358,228.738 91.196,229.024 90.688 C 229.149 90.464,229.340 90.098,229.449 89.875 C 229.557 89.652,229.662 89.455,229.682 89.438 C 229.702 89.420,229.829 89.181,229.964 88.906 C 230.099 88.631,230.226 88.392,230.245 88.375 C 230.265 88.358,230.377 88.161,230.494 87.938 C 230.731 87.483,231.251 86.490,231.671 85.688 C 231.824 85.395,232.017 85.044,232.099 84.906 C 232.180 84.769,232.265 84.614,232.286 84.563 C 232.363 84.375,232.532 84.033,232.579 83.970 C 232.606 83.935,232.777 83.611,232.960 83.250 C 233.448 82.288,233.714 81.785,233.755 81.750 C 233.775 81.733,233.834 81.634,233.887 81.531 C 234.073 81.165,234.706 79.962,234.939 79.531 C 235.069 79.291,235.339 78.770,235.538 78.375 C 235.738 77.980,235.916 77.642,235.935 77.625 C 235.954 77.608,236.077 77.383,236.208 77.125 C 236.442 76.668,236.630 76.309,237.311 75.031 C 237.494 74.688,237.781 74.139,237.950 73.813 C 238.259 73.215,238.757 72.281,238.983 71.875 C 239.049 71.755,239.300 71.277,239.539 70.813 C 239.778 70.348,240.044 69.856,240.129 69.719 C 240.214 69.581,240.396 69.248,240.533 68.979 C 240.971 68.115,241.115 67.845,241.167 67.781 C 241.196 67.747,241.362 67.438,241.537 67.094 C 241.991 66.202,242.476 65.279,242.720 64.844 C 242.835 64.638,243.020 64.286,243.129 64.063 C 243.239 63.839,243.346 63.642,243.367 63.625 C 243.389 63.608,243.517 63.369,243.652 63.094 C 243.787 62.819,243.914 62.580,243.934 62.563 C 243.954 62.545,244.090 62.292,244.236 62.000 C 244.382 61.708,244.641 61.216,244.811 60.906 C 244.981 60.597,245.151 60.274,245.189 60.189 C 245.227 60.104,245.277 60.019,245.301 60.001 C 245.324 59.983,245.473 59.716,245.630 59.406 C 245.788 59.097,246.080 58.534,246.279 58.156 C 246.479 57.778,246.769 57.216,246.926 56.906 C 247.082 56.597,247.226 56.330,247.245 56.313 C 247.282 56.281,247.418 56.021,248.049 54.781 C 248.242 54.403,248.415 54.080,248.434 54.063 C 248.453 54.045,248.576 53.820,248.707 53.563 C 248.838 53.305,249.017 52.967,249.104 52.813 C 249.191 52.658,249.417 52.236,249.605 51.875 C 249.794 51.514,250.053 51.022,250.182 50.781 C 250.382 50.408,251.108 49.021,251.425 48.406 C 251.478 48.303,251.538 48.205,251.558 48.188 C 251.591 48.159,251.704 47.942,252.456 46.469 C 252.597 46.194,252.727 45.955,252.746 45.938 C 252.766 45.920,252.892 45.681,253.027 45.406 C 253.162 45.131,253.337 44.801,253.417 44.673 C 253.497 44.545,253.562 44.399,253.563 44.349 C 253.563 44.300,253.598 44.222,253.641 44.176 C 253.685 44.131,253.756 44.023,253.799 43.938 C 253.891 43.756,254.393 42.804,254.871 41.906 C 255.578 40.577,255.836 40.086,255.929 39.891 C 255.982 39.779,256.048 39.688,256.076 39.688 C 256.103 39.688,256.125 39.637,256.125 39.575 C 256.125 39.513,256.152 39.436,256.184 39.403 C 256.249 39.338,256.423 39.023,256.890 38.125 C 257.060 37.798,257.312 37.320,257.449 37.063 C 257.750 36.499,258.245 35.558,258.534 35.000 C 258.650 34.777,258.767 34.565,258.794 34.530 C 258.861 34.443,259.122 33.953,259.441 33.313 C 259.587 33.020,259.723 32.767,259.744 32.750 C 259.779 32.721,259.963 32.370,260.605 31.107 C 260.748 30.825,260.889 30.566,260.917 30.531 C 260.946 30.497,261.031 30.342,261.107 30.188 C 261.182 30.033,261.327 29.808,261.428 29.688 L 261.611 29.469 277.513 29.438 C 291.540 29.410,293.426 29.395,293.504 29.313 C 293.554 29.261,293.662 29.078,293.745 28.906 C 293.828 28.734,293.913 28.580,293.933 28.563 C 293.952 28.545,294.080 28.306,294.215 28.031 C 294.350 27.756,294.540 27.396,294.637 27.232 C 294.733 27.067,294.813 26.893,294.813 26.845 C 294.813 26.798,294.848 26.720,294.891 26.673 C 294.979 26.577,295.074 26.408,295.514 25.563 C 295.684 25.236,295.942 24.744,296.088 24.469 C 296.687 23.337,297.029 22.692,297.279 22.219 C 297.424 21.944,297.625 21.578,297.725 21.406 C 297.825 21.234,298.018 20.869,298.152 20.594 C 298.287 20.319,298.413 20.080,298.433 20.063 C 298.453 20.045,298.579 19.806,298.714 19.531 C 298.849 19.256,298.977 19.017,298.998 19.000 C 299.019 18.983,299.169 18.702,299.332 18.375 C 299.495 18.048,299.771 17.514,299.946 17.188 C 300.120 16.861,300.417 16.298,300.606 15.938 C 300.795 15.577,301.054 15.084,301.182 14.844 C 301.310 14.603,301.482 14.280,301.563 14.125 C 301.645 13.970,301.730 13.830,301.753 13.813 C 301.855 13.734,301.872 13.450,301.776 13.413 C 301.525 13.317,177.011 13.373,176.915 13.469 M160.154 45.732 C 159.923 45.761,160.057 45.540,158.720 48.094 C 158.109 49.263,157.503 50.402,157.375 50.625 C 157.246 50.848,156.542 52.170,155.810 53.563 C 155.078 54.955,153.987 57.022,153.386 58.156 C 152.163 60.466,150.581 63.454,149.267 65.938 C 148.785 66.848,148.187 67.973,147.937 68.438 C 147.687 68.902,147.244 69.731,146.952 70.281 C 146.660 70.831,145.993 72.083,145.469 73.063 C 144.945 74.042,144.348 75.167,144.142 75.563 C 143.610 76.587,142.171 79.305,141.346 80.844 C 140.960 81.566,140.326 82.761,139.939 83.500 C 139.551 84.239,139.002 85.280,138.719 85.813 C 138.435 86.345,137.947 87.265,137.634 87.855 C 137.320 88.446,136.708 89.599,136.273 90.418 C 135.839 91.237,135.111 92.609,134.657 93.469 C 132.444 97.660,131.999 98.497,131.374 99.656 C 130.705 100.895,128.887 104.321,127.907 106.188 C 127.628 106.720,127.320 107.290,127.224 107.454 C 126.913 107.985,126.036 107.938,136.085 107.938 C 144.530 107.938,145.056 107.931,145.179 107.828 C 145.251 107.768,145.419 107.508,145.553 107.250 C 145.794 106.783,146.290 105.841,146.638 105.188 C 146.739 104.998,146.926 104.647,147.054 104.406 C 147.182 104.166,147.410 103.744,147.560 103.469 C 147.710 103.194,148.038 102.566,148.288 102.074 C 148.538 101.581,148.769 101.146,148.802 101.105 C 148.836 101.064,149.016 100.736,149.204 100.375 C 149.555 99.700,149.885 99.074,150.406 98.094 C 150.712 97.518,151.252 96.492,151.425 96.156 C 151.478 96.053,151.538 95.955,151.558 95.938 C 151.579 95.920,151.716 95.667,151.863 95.375 C 152.010 95.083,152.267 94.591,152.434 94.281 C 152.600 93.972,152.899 93.395,153.097 93.000 C 153.295 92.605,153.474 92.267,153.494 92.250 C 153.515 92.233,153.625 92.036,153.739 91.813 C 153.938 91.424,154.313 90.710,154.921 89.563 C 155.076 89.270,155.344 88.764,155.517 88.438 C 156.020 87.485,156.183 87.180,156.404 86.781 C 156.518 86.575,156.746 86.139,156.912 85.813 C 157.077 85.486,157.234 85.209,157.262 85.198 C 157.290 85.186,157.313 85.125,157.313 85.062 C 157.313 84.998,157.348 84.909,157.391 84.863 C 157.468 84.781,157.600 84.535,158.206 83.344 C 158.380 83.000,158.542 82.705,158.564 82.688 C 158.586 82.670,158.683 82.487,158.779 82.281 C 158.876 82.075,158.972 81.892,158.993 81.875 C 159.014 81.858,159.142 81.619,159.277 81.344 C 159.412 81.069,159.538 80.830,159.558 80.812 C 159.627 80.752,159.813 80.364,159.813 80.281 C 159.813 80.234,159.848 80.158,159.891 80.111 C 160.002 79.990,160.088 79.844,160.361 79.313 C 160.683 78.686,161.023 78.050,161.283 77.594 C 161.400 77.388,161.625 76.966,161.782 76.656 C 161.940 76.347,162.134 75.977,162.214 75.834 C 162.293 75.691,162.377 75.501,162.399 75.412 C 162.422 75.323,162.467 75.250,162.501 75.250 C 162.535 75.250,162.563 75.210,162.563 75.161 C 162.563 75.112,162.598 75.034,162.641 74.989 C 162.684 74.943,162.840 74.667,162.988 74.375 C 163.136 74.083,163.393 73.591,163.560 73.281 C 163.726 72.972,163.980 72.494,164.123 72.219 C 164.480 71.536,165.036 70.499,165.136 70.330 C 165.182 70.253,165.382 69.874,165.582 69.486 C 165.782 69.098,166.053 68.584,166.184 68.344 C 166.315 68.103,166.553 67.653,166.712 67.344 C 166.871 67.034,167.159 66.486,167.353 66.125 C 167.728 65.426,168.197 64.536,168.621 63.719 C 168.764 63.444,168.953 63.092,169.040 62.938 C 169.128 62.783,169.348 62.375,169.528 62.031 C 169.709 61.688,169.950 61.237,170.064 61.031 C 170.177 60.825,170.398 60.403,170.553 60.094 C 170.708 59.784,170.851 59.517,170.870 59.500 C 170.904 59.471,170.989 59.309,171.612 58.094 C 171.735 57.853,171.852 57.642,171.872 57.625 C 171.892 57.608,172.028 57.355,172.176 57.063 C 172.323 56.770,172.622 56.194,172.840 55.781 C 173.058 55.369,173.356 54.792,173.503 54.500 C 173.649 54.208,173.786 53.955,173.806 53.938 C 173.827 53.920,173.938 53.723,174.052 53.500 C 174.167 53.277,174.377 52.869,174.518 52.594 C 174.660 52.319,174.798 52.084,174.825 52.073 C 174.853 52.061,174.875 52.000,174.875 51.937 C 174.875 51.873,174.910 51.784,174.953 51.739 C 174.996 51.693,175.096 51.530,175.176 51.375 C 175.256 51.220,175.426 50.897,175.555 50.656 C 175.685 50.416,175.913 49.980,176.064 49.688 C 176.214 49.395,176.353 49.142,176.372 49.125 C 176.391 49.108,176.559 48.784,176.746 48.406 C 176.932 48.028,177.104 47.705,177.128 47.688 C 177.151 47.670,177.190 47.593,177.215 47.516 C 177.239 47.438,177.284 47.375,177.314 47.375 C 177.345 47.375,177.400 47.263,177.438 47.125 C 177.475 46.987,177.532 46.875,177.565 46.875 C 177.598 46.875,177.625 46.843,177.625 46.804 C 177.625 46.765,177.712 46.592,177.818 46.420 C 178.067 46.014,178.085 45.806,177.875 45.745 C 177.717 45.700,160.507 45.687,160.154 45.732 M197.772 45.731 C 197.564 45.771,197.490 45.884,196.791 47.219 C 196.431 47.907,195.971 48.778,195.768 49.156 C 195.564 49.534,195.122 50.364,194.785 51.000 C 194.448 51.636,193.996 52.480,193.780 52.875 C 193.564 53.270,192.833 54.648,192.156 55.938 C 191.478 57.227,190.874 58.366,190.813 58.469 C 190.752 58.572,190.182 59.641,189.547 60.844 C 188.911 62.047,188.308 63.186,188.205 63.375 C 188.103 63.564,187.772 64.197,187.469 64.781 C 187.166 65.366,186.736 66.181,186.513 66.594 C 186.290 67.006,185.834 67.864,185.500 68.500 C 185.167 69.136,184.668 70.078,184.393 70.594 C 183.573 72.129,182.896 73.404,181.642 75.781 C 180.013 78.869,180.045 78.807,179.252 80.281 C 178.864 81.003,178.286 82.086,177.968 82.688 C 177.650 83.289,177.292 83.964,177.172 84.188 C 177.052 84.411,176.539 85.381,176.031 86.344 C 175.524 87.306,174.962 88.361,174.782 88.688 C 174.602 89.014,174.257 89.663,174.015 90.130 C 173.774 90.596,173.492 91.130,173.390 91.317 C 173.172 91.714,172.570 92.852,170.500 96.781 C 169.667 98.362,168.837 99.923,168.657 100.250 C 168.477 100.577,167.731 101.983,167.000 103.375 C 166.269 104.767,165.448 106.323,165.175 106.832 C 164.774 107.579,164.693 107.775,164.753 107.847 C 164.857 107.973,182.603 107.984,182.765 107.859 C 182.820 107.816,182.931 107.659,183.011 107.510 C 183.091 107.361,183.257 107.052,183.381 106.823 C 183.852 105.949,184.219 105.252,184.639 104.438 C 185.141 103.463,185.267 103.231,185.318 103.188 C 185.338 103.170,185.495 102.875,185.667 102.531 C 186.166 101.532,186.459 100.971,186.498 100.938 C 186.518 100.920,186.658 100.653,186.810 100.344 C 186.961 100.034,187.101 99.767,187.121 99.750 C 187.140 99.733,187.264 99.508,187.396 99.250 C 187.527 98.992,187.784 98.500,187.966 98.156 C 188.148 97.813,188.414 97.306,188.559 97.031 C 188.703 96.756,188.957 96.278,189.123 95.969 C 189.289 95.659,189.559 95.139,189.724 94.813 C 189.889 94.486,190.039 94.205,190.059 94.188 C 190.103 94.148,190.348 93.688,190.691 93.000 C 190.837 92.708,190.973 92.455,190.994 92.438 C 191.014 92.420,191.125 92.223,191.239 92.000 C 191.719 91.065,192.306 89.944,192.499 89.594 C 192.883 88.900,193.176 88.347,193.442 87.813 C 193.587 87.520,193.723 87.267,193.744 87.250 C 193.764 87.233,193.847 87.092,193.926 86.938 C 194.077 86.644,194.682 85.487,194.939 85.000 C 195.020 84.845,195.103 84.705,195.122 84.688 C 195.141 84.670,195.306 84.361,195.490 84.000 C 195.859 83.272,196.170 82.684,197.134 80.885 C 197.294 80.587,197.517 80.161,197.630 79.938 C 197.742 79.714,197.851 79.517,197.870 79.500 C 197.890 79.483,198.013 79.258,198.144 79.000 C 198.275 78.742,198.519 78.278,198.687 77.969 C 198.855 77.659,199.125 77.139,199.288 76.813 C 199.450 76.486,199.600 76.205,199.620 76.188 C 199.641 76.170,199.778 75.917,199.925 75.625 C 200.071 75.333,200.328 74.841,200.495 74.531 C 200.662 74.222,200.916 73.744,201.059 73.469 C 201.776 72.093,202.246 71.210,202.372 71.000 C 202.403 70.948,202.445 70.864,202.465 70.813 C 202.485 70.761,202.575 70.592,202.664 70.438 C 202.754 70.283,202.967 69.889,203.137 69.563 C 203.308 69.236,203.554 68.772,203.684 68.531 C 203.815 68.291,204.084 67.770,204.283 67.375 C 204.482 66.980,204.661 66.642,204.682 66.625 C 204.702 66.608,204.829 66.369,204.964 66.094 C 205.099 65.819,205.226 65.580,205.247 65.563 C 205.268 65.545,205.405 65.292,205.553 65.000 C 205.701 64.708,205.935 64.258,206.073 64.000 C 206.211 63.742,206.469 63.256,206.646 62.920 C 207.416 61.459,207.670 60.982,208.261 59.885 C 208.421 59.587,208.620 59.217,208.701 59.063 C 209.324 57.886,209.497 57.567,209.615 57.375 C 209.689 57.255,209.765 57.114,209.786 57.063 C 209.894 56.786,211.050 54.580,211.472 53.844 C 211.590 53.638,211.773 53.300,211.878 53.094 C 211.982 52.888,212.204 52.466,212.371 52.156 C 212.537 51.847,212.805 51.341,212.965 51.031 C 213.300 50.382,213.623 49.778,213.966 49.156 C 214.099 48.916,214.335 48.466,214.491 48.156 C 214.647 47.847,214.811 47.557,214.856 47.511 C 214.901 47.466,214.938 47.380,214.938 47.321 C 214.938 47.261,214.966 47.184,215.000 47.150 C 215.075 47.075,215.401 46.481,215.504 46.234 C 215.543 46.140,215.600 46.063,215.631 46.063 C 215.869 46.063,215.661 45.763,215.398 45.727 C 215.083 45.684,197.993 45.688,197.772 45.731 M87.121 146.409 C 84.863 146.644,82.741 147.783,81.709 149.313 C 79.457 152.653,80.197 157.300,83.328 159.485 C 86.849 161.942,93.042 161.170,95.188 158.006 C 95.308 157.829,95.434 157.648,95.469 157.605 C 95.566 157.482,95.684 157.291,95.727 157.188 C 95.748 157.136,95.843 156.925,95.938 156.719 C 96.135 156.289,96.308 155.776,96.384 155.391 C 96.414 155.245,96.464 154.991,96.496 154.828 C 96.573 154.439,96.574 152.797,96.497 152.438 C 96.464 152.283,96.410 152.004,96.376 151.817 C 96.343 151.631,96.287 151.449,96.251 151.414 C 96.216 151.379,96.188 151.297,96.188 151.231 C 96.188 151.021,95.623 149.830,95.363 149.491 C 95.266 149.366,95.188 149.232,95.188 149.194 C 95.188 149.156,95.165 149.125,95.138 149.125 C 95.111 149.125,94.986 148.986,94.859 148.817 C 93.551 147.064,90.361 146.072,87.121 146.409 M145.750 146.354 C 143.659 146.559,142.567 146.923,141.232 147.858 C 137.906 150.191,137.436 155.537,140.290 158.562 C 143.825 162.310,151.859 161.459,153.749 157.136 C 153.784 157.056,153.855 156.949,153.906 156.897 C 153.958 156.846,154.000 156.767,154.000 156.721 C 154.000 156.676,154.042 156.559,154.093 156.460 C 154.145 156.362,154.187 156.220,154.187 156.144 C 154.187 156.069,154.214 155.991,154.246 155.971 C 154.279 155.951,154.324 155.802,154.346 155.639 C 154.369 155.477,154.426 155.205,154.475 155.036 C 154.680 154.316,154.574 152.370,154.278 151.429 C 154.228 151.270,154.188 151.100,154.188 151.051 C 154.188 150.838,153.502 149.604,153.083 149.063 C 151.628 147.183,148.622 146.072,145.750 146.354 M202.813 146.411 C 200.122 146.756,198.553 148.630,198.931 151.048 C 199.182 152.660,200.261 153.731,202.746 154.838 C 204.493 155.616,205.050 156.031,205.146 156.625 C 205.429 158.371,202.737 158.625,199.891 157.121 C 198.887 156.591,198.937 156.530,198.942 158.281 C 198.946 159.964,198.927 159.938,200.563 160.413 C 204.671 161.607,208.152 160.636,209.101 158.031 C 209.439 157.105,209.198 154.871,208.742 154.698 C 208.712 154.686,208.688 154.640,208.688 154.594 C 208.688 154.190,207.009 153.086,204.596 151.903 C 202.871 151.057,202.404 150.274,203.140 149.458 C 203.835 148.688,206.108 148.977,207.917 150.066 C 208.705 150.539,208.708 150.532,208.677 148.700 C 208.653 147.302,208.730 147.442,207.781 147.070 C 206.135 146.424,204.451 146.201,202.813 146.411 M259.085 146.413 C 253.754 146.966,250.830 152.119,253.123 156.920 C 254.723 160.269,259.168 161.792,263.566 160.497 C 264.921 160.099,266.848 158.735,267.271 157.875 C 267.326 157.765,267.409 157.628,267.642 157.267 C 267.736 157.121,267.813 156.981,267.813 156.954 C 267.813 156.928,267.858 156.822,267.912 156.719 C 268.090 156.379,268.344 155.535,268.439 154.969 C 268.588 154.078,268.618 153.642,268.562 153.188 C 268.449 152.268,268.370 151.795,268.311 151.684 C 268.277 151.622,268.250 151.520,268.250 151.457 C 268.249 151.395,268.207 151.263,268.156 151.165 C 268.105 151.066,268.063 150.947,268.063 150.900 C 268.063 150.784,267.759 150.165,267.463 149.679 C 265.974 147.226,262.877 146.019,259.085 146.413 M345.656 146.354 C 343.560 146.603,342.318 147.282,341.675 148.531 C 340.466 150.882,341.570 153.175,344.597 154.596 C 346.553 155.515,346.769 155.634,347.133 155.998 C 347.649 156.514,347.712 156.875,347.381 157.415 C 346.750 158.443,344.566 158.329,342.320 157.149 C 341.751 156.850,341.527 156.761,341.476 156.812 C 341.393 156.894,341.341 158.816,341.405 159.416 L 341.448 159.816 341.740 159.963 C 344.169 161.188,348.145 161.204,349.915 159.995 C 350.291 159.739,350.976 159.065,351.062 158.866 C 351.098 158.785,351.177 158.634,351.239 158.531 C 351.513 158.073,351.625 157.534,351.625 156.677 C 351.625 154.624,350.770 153.751,346.938 151.892 C 345.305 151.099,344.822 150.398,345.379 149.629 C 346.078 148.664,348.164 148.851,350.280 150.068 C 351.113 150.547,351.060 150.626,351.062 148.898 L 351.063 147.514 350.913 147.417 C 349.896 146.750,347.092 146.183,345.656 146.354 M48.028 146.589 C 47.872 146.703,47.833 160.483,47.987 160.638 C 48.106 160.756,51.644 160.756,51.762 160.637 C 51.827 160.573,51.846 159.773,51.857 156.731 C 51.864 154.627,51.871 152.832,51.873 152.741 C 51.879 152.317,52.210 152.486,52.781 153.203 C 52.987 153.462,53.353 153.920,53.594 154.222 C 53.834 154.524,54.144 154.902,54.281 155.062 C 54.419 155.222,54.798 155.688,55.125 156.097 C 56.145 157.374,56.194 157.395,56.625 156.752 C 56.677 156.675,56.817 156.498,56.938 156.360 C 57.294 155.949,57.339 155.893,57.438 155.750 C 57.489 155.675,57.573 155.563,57.625 155.500 C 57.936 155.126,58.235 154.772,58.344 154.651 C 58.413 154.574,58.511 154.450,58.563 154.375 C 58.742 154.113,58.907 153.901,59.074 153.717 C 59.325 153.438,59.459 153.277,59.563 153.124 C 59.919 152.602,60.233 152.383,60.351 152.574 C 60.376 152.615,60.399 154.428,60.402 156.602 C 60.405 159.755,60.423 160.573,60.487 160.637 C 60.549 160.699,60.956 160.724,62.144 160.739 C 64.066 160.764,64.332 160.739,64.429 160.525 C 64.568 160.220,64.526 146.730,64.386 146.603 C 64.268 146.497,61.042 146.440,60.782 146.540 C 60.676 146.580,60.087 147.272,58.688 148.998 C 56.285 151.960,56.210 152.035,55.903 151.747 C 55.819 151.668,55.750 151.580,55.750 151.552 C 55.750 151.507,55.646 151.364,55.467 151.165 C 55.432 151.126,55.292 150.953,55.155 150.781 C 55.018 150.609,54.891 150.455,54.873 150.438 C 54.855 150.420,54.728 150.266,54.592 150.094 C 54.455 149.922,54.329 149.767,54.312 149.750 C 54.294 149.733,54.153 149.564,53.999 149.375 C 53.845 149.186,53.684 148.995,53.642 148.950 C 53.599 148.905,53.431 148.694,53.268 148.481 C 52.995 148.125,52.888 147.996,52.531 147.596 C 52.462 147.519,52.364 147.392,52.313 147.316 C 52.261 147.239,52.167 147.115,52.103 147.041 C 52.039 146.967,51.940 146.847,51.883 146.776 C 51.674 146.513,51.576 146.500,49.829 146.500 C 48.477 146.500,48.125 146.517,48.028 146.589 M110.250 146.561 C 110.121 146.643,110.109 149.509,110.237 149.637 C 110.300 149.700,110.877 149.726,112.781 149.750 C 114.685 149.774,115.262 149.800,115.325 149.862 C 115.390 149.927,115.413 151.024,115.438 155.297 L 115.469 160.651 115.625 160.694 C 115.823 160.749,118.917 160.763,119.182 160.710 C 119.517 160.644,119.509 160.769,119.505 155.543 C 119.501 150.776,119.525 150.013,119.680 149.857 C 119.736 149.801,120.407 149.773,122.212 149.750 C 124.167 149.725,124.690 149.701,124.772 149.633 C 124.923 149.507,124.928 146.749,124.777 146.598 C 124.661 146.483,110.431 146.446,110.250 146.561 M170.563 146.561 C 170.431 146.644,170.419 160.506,170.550 160.637 C 170.638 160.726,173.659 160.794,174.172 160.719 C 174.572 160.660,174.565 160.709,174.580 157.885 C 174.596 154.818,174.505 155.097,175.484 155.140 C 177.102 155.211,177.571 155.758,179.219 159.500 C 179.828 160.882,179.513 160.733,181.852 160.743 C 183.650 160.750,183.989 160.727,184.040 160.593 C 184.075 160.502,183.811 159.875,183.738 159.875 C 183.710 159.875,183.688 159.830,183.688 159.775 C 183.688 159.720,183.647 159.601,183.598 159.510 C 183.503 159.332,183.097 158.465,182.964 158.156 C 182.796 157.764,182.228 156.592,182.192 156.563 C 182.171 156.545,182.119 156.461,182.076 156.375 C 181.758 155.732,181.366 155.261,180.868 154.924 C 180.372 154.587,180.432 154.418,181.247 153.873 C 181.664 153.594,182.123 153.148,182.124 153.021 C 182.125 152.981,182.148 152.939,182.176 152.927 C 182.608 152.751,182.936 150.099,182.571 149.733 C 182.532 149.694,182.500 149.619,182.500 149.566 C 182.499 149.512,182.457 149.388,182.406 149.290 C 182.355 149.191,182.313 149.074,182.313 149.029 C 182.313 148.983,182.277 148.909,182.234 148.864 C 182.190 148.818,182.121 148.705,182.079 148.611 C 181.718 147.795,180.363 146.925,179.031 146.654 C 178.226 146.490,170.804 146.409,170.563 146.561 M225.531 146.586 C 225.330 146.733,225.301 160.303,225.501 160.627 C 225.580 160.755,229.260 160.765,229.387 160.638 C 229.450 160.575,229.476 159.986,229.500 158.023 C 229.538 154.954,229.326 155.313,231.102 155.313 C 233.543 155.313,234.512 155.150,235.641 154.550 C 236.091 154.310,236.910 153.526,237.094 153.156 C 237.163 153.019,237.237 152.892,237.259 152.875 C 237.281 152.858,237.333 152.717,237.375 152.563 C 237.416 152.408,237.473 152.252,237.502 152.217 C 237.701 151.974,237.674 149.978,237.467 149.582 C 237.417 149.485,237.376 149.357,237.375 149.297 C 237.375 149.236,237.325 149.096,237.264 148.984 C 236.565 147.713,235.671 147.074,234.031 146.676 C 233.293 146.497,225.762 146.417,225.531 146.586 M284.555 146.603 C 284.431 146.753,284.426 160.514,284.550 160.638 C 284.639 160.727,288.242 160.761,288.453 160.674 C 288.555 160.632,288.563 160.449,288.563 158.094 C 288.563 154.840,288.500 154.998,289.719 155.140 C 291.100 155.301,291.644 155.958,293.067 159.183 C 293.407 159.954,293.715 160.615,293.752 160.652 C 293.827 160.727,297.352 160.786,297.797 160.719 C 298.070 160.679,298.118 160.604,298.006 160.390 C 297.855 160.101,297.046 158.382,296.822 157.875 C 296.174 156.405,295.647 155.558,295.120 155.135 C 294.934 154.986,294.732 154.825,294.672 154.777 C 294.409 154.565,294.547 154.342,295.219 153.891 C 295.757 153.530,295.908 153.375,296.218 152.865 C 296.763 151.968,296.882 150.927,296.576 149.744 C 296.498 149.446,296.036 148.499,295.874 148.308 C 295.082 147.371,294.288 146.911,293.020 146.652 C 292.040 146.452,284.715 146.410,284.555 146.603 M311.500 146.561 C 311.371 146.643,311.359 149.509,311.487 149.637 C 311.551 149.701,312.112 149.723,314.028 149.736 C 316.206 149.752,316.498 149.766,316.572 149.855 C 316.641 149.938,316.659 150.934,316.674 155.293 L 316.692 160.630 316.861 160.694 C 317.063 160.771,320.588 160.746,320.667 160.667 C 320.695 160.638,320.733 158.214,320.750 155.279 C 320.775 151.021,320.798 149.927,320.862 149.862 C 320.925 149.800,321.506 149.774,323.425 149.750 C 324.790 149.733,325.941 149.696,325.984 149.668 C 326.133 149.572,326.093 146.646,325.942 146.565 C 325.783 146.480,311.635 146.476,311.500 146.561 M177.040 149.153 C 178.099 149.400,178.531 149.926,178.531 150.969 C 178.531 152.362,177.947 152.739,175.737 152.769 C 174.488 152.786,174.594 152.951,174.594 150.982 C 174.594 149.329,174.618 149.092,174.797 149.039 C 175.023 148.971,176.605 149.052,177.040 149.153 M232.063 149.156 C 233.097 149.394,233.555 150.018,233.485 151.094 C 233.401 152.382,232.828 152.737,230.781 152.768 C 229.400 152.789,229.502 152.940,229.501 150.867 C 229.500 149.343,229.524 149.139,229.712 149.057 C 229.919 148.966,231.533 149.035,232.063 149.156 M291.025 149.154 C 293.107 149.653,293.154 152.373,291.086 152.685 C 289.694 152.895,288.779 152.836,288.650 152.527 C 288.493 152.150,288.526 149.466,288.692 149.195 L 288.821 148.983 289.707 149.017 C 290.195 149.035,290.788 149.097,291.025 149.154 M89.372 149.846 C 91.962 150.266,93.214 153.294,91.831 155.789 C 90.689 157.848,86.899 158.074,85.437 156.170 C 85.299 155.990,85.165 155.816,85.138 155.781 C 85.037 155.651,84.813 155.180,84.813 155.099 C 84.813 155.052,84.770 154.934,84.719 154.835 C 84.585 154.578,84.585 152.672,84.719 152.415 C 84.770 152.316,84.813 152.188,84.813 152.130 C 84.813 152.072,84.854 151.969,84.904 151.903 C 84.955 151.836,84.997 151.744,84.998 151.698 C 85.001 151.588,85.387 151.111,85.798 150.710 C 86.627 149.902,87.866 149.602,89.372 149.846 M147.414 149.846 C 151.069 150.482,151.567 155.884,148.094 157.228 C 147.574 157.429,146.067 157.512,145.413 157.376 C 144.660 157.220,143.250 156.270,143.250 155.918 C 143.250 155.883,143.213 155.809,143.169 155.755 C 143.124 155.701,143.023 155.502,142.943 155.313 C 142.863 155.123,142.768 154.912,142.731 154.844 C 142.484 154.384,142.639 152.466,142.976 151.821 C 143.023 151.730,143.062 151.621,143.062 151.578 C 143.062 151.535,143.089 151.500,143.121 151.500 C 143.153 151.500,143.195 151.449,143.215 151.387 C 143.235 151.324,143.431 151.090,143.651 150.865 C 144.564 149.935,145.876 149.579,147.414 149.846 M261.344 149.839 C 265.126 150.509,265.500 156.147,261.839 157.288 C 261.136 157.507,259.519 157.491,258.925 157.258 C 258.336 157.027,257.313 156.290,257.313 156.097 C 257.313 156.082,257.229 155.944,257.126 155.792 C 256.564 154.960,256.359 152.554,256.810 152.102 C 256.846 152.067,256.875 151.994,256.875 151.940 C 256.875 151.808,257.315 151.143,257.590 150.860 C 258.470 149.954,259.860 149.576,261.344 149.839 M94.875 169.782 C 93.877 170.054,93.035 170.672,92.604 171.449 C 90.773 174.756,94.421 178.014,97.938 176.212 C 99.993 175.159,100.333 172.166,98.576 170.597 C 97.743 169.853,96.014 169.473,94.875 169.782 M112.330 169.775 C 110.884 170.245,110.479 171.626,111.465 172.731 C 111.705 173.001,111.916 173.138,112.698 173.534 C 114.250 174.321,114.628 174.854,114.086 175.497 C 113.616 176.056,112.779 176.074,111.668 175.548 C 111.066 175.264,111.002 175.274,111.002 175.656 C 111.001 176.294,111.831 176.712,113.094 176.711 C 114.323 176.711,115.103 176.215,115.347 175.280 C 115.640 174.153,115.187 173.502,113.531 172.669 C 112.129 171.964,111.779 171.553,112.113 171.004 C 112.475 170.410,113.311 170.303,114.398 170.713 C 115.045 170.957,115.125 170.930,115.125 170.466 C 115.125 169.900,113.320 169.454,112.330 169.775 M146.042 169.810 C 144.109 170.428,144.242 172.425,146.284 173.431 C 147.688 174.123,148.063 174.443,148.063 174.953 C 148.063 175.931,146.826 176.222,145.474 175.561 C 144.797 175.231,144.711 175.271,144.800 175.878 C 144.908 176.617,147.024 176.997,148.094 176.470 C 148.880 176.081,149.094 175.728,149.094 174.813 C 149.094 173.746,148.868 173.475,147.327 172.689 C 146.066 172.046,145.813 171.820,145.813 171.336 C 145.813 170.480,146.999 170.215,148.344 170.771 C 148.797 170.959,148.875 170.918,148.875 170.496 C 148.875 169.845,147.201 169.440,146.042 169.810 M221.692 169.752 C 219.039 170.305,217.966 173.591,219.794 175.566 C 221.185 177.068,224.292 177.084,225.509 175.595 C 225.566 175.525,225.671 175.398,225.742 175.313 C 225.814 175.227,225.896 175.128,225.924 175.094 C 225.952 175.059,226.041 174.891,226.120 174.719 C 226.200 174.547,226.296 174.350,226.334 174.281 C 226.576 173.846,226.432 172.227,226.096 171.594 C 225.341 170.176,223.450 169.385,221.692 169.752 M268.750 169.783 C 265.152 170.775,264.937 175.347,268.431 176.545 C 269.909 177.052,272.250 176.515,272.250 175.670 C 272.250 175.226,272.158 175.198,271.548 175.458 C 269.838 176.187,267.991 175.721,267.379 174.406 C 267.299 174.234,267.203 174.028,267.165 173.948 C 267.076 173.754,267.075 172.685,267.163 172.494 C 267.202 172.411,267.297 172.203,267.375 172.031 C 267.984 170.690,269.942 170.184,271.604 170.937 C 272.101 171.163,272.125 171.152,272.125 170.688 C 272.125 170.240,272.035 170.152,271.326 169.904 C 270.712 169.690,269.323 169.625,268.750 169.783 M303.073 169.811 C 300.505 170.503,299.577 173.432,301.270 175.507 C 302.076 176.495,303.995 176.992,305.375 176.571 C 306.164 176.329,307.313 175.561,307.313 175.275 C 307.313 175.227,307.336 175.188,307.364 175.188 C 307.698 175.188,308.069 173.559,307.944 172.638 C 307.873 172.112,307.504 171.188,307.364 171.188 C 307.336 171.188,307.313 171.148,307.313 171.100 C 307.313 170.980,306.694 170.425,306.330 170.218 C 305.440 169.713,304.071 169.542,303.073 169.811 M324.651 169.780 C 321.471 170.472,320.857 174.796,323.734 176.242 C 325.007 176.882,326.345 176.891,327.592 176.269 C 327.876 176.127,328.503 175.659,328.550 175.554 C 328.561 175.531,328.627 175.446,328.698 175.365 C 329.170 174.828,329.353 174.367,329.410 173.569 C 329.485 172.532,329.245 171.618,328.756 171.074 C 328.654 170.960,328.561 170.847,328.551 170.823 C 328.215 170.065,326.028 169.481,324.651 169.780 M337.024 169.807 C 333.824 170.674,333.252 174.772,336.125 176.242 C 337.709 177.052,340.583 176.747,340.767 175.749 C 340.860 175.247,340.792 173.516,340.676 173.399 C 340.554 173.277,339.417 173.210,338.875 173.292 L 338.531 173.345 338.512 173.618 C 338.487 173.968,338.523 174.000,339.032 174.063 C 339.609 174.134,339.656 174.193,339.655 174.845 C 339.654 175.495,339.577 175.597,338.992 175.723 C 337.552 176.031,336.197 175.503,335.717 174.445 C 335.629 174.252,335.531 174.045,335.498 173.985 C 335.207 173.460,335.581 171.946,336.144 171.366 C 336.977 170.509,338.674 170.335,340.176 170.952 C 340.461 171.069,340.516 171.076,340.565 170.997 C 340.634 170.889,340.643 170.373,340.577 170.274 C 340.279 169.823,338.048 169.530,337.024 169.807 M49.141 169.791 C 48.999 169.848,49.030 176.553,49.172 176.611 C 49.375 176.695,50.003 176.659,50.065 176.560 C 50.177 176.383,50.140 169.962,50.027 169.848 C 49.931 169.753,49.332 169.714,49.141 169.791 M55.575 169.825 C 55.455 169.945,55.468 176.370,55.589 176.535 C 55.673 176.650,55.781 176.657,57.645 176.675 C 60.012 176.698,60.024 176.696,60.051 176.284 C 60.077 175.872,60.096 175.877,58.594 175.873 C 57.361 175.870,56.804 175.825,56.701 175.722 C 56.676 175.697,56.642 174.390,56.625 172.817 C 56.600 170.519,56.577 169.936,56.508 169.853 C 56.404 169.728,55.693 169.707,55.575 169.825 M64.875 169.811 C 64.744 169.894,64.732 176.445,64.863 176.575 C 64.926 176.638,65.406 176.656,67.056 176.656 C 69.378 176.656,69.375 176.657,69.375 176.283 C 69.375 175.895,69.301 175.875,67.808 175.874 C 66.454 175.872,66.025 175.827,65.929 175.676 C 65.900 175.631,65.876 174.333,65.876 172.793 C 65.875 170.983,65.852 169.949,65.810 169.871 C 65.739 169.737,65.061 169.694,64.875 169.811 M74.188 169.811 C 74.058 169.893,74.045 176.445,74.174 176.574 C 74.291 176.691,74.989 176.681,75.065 176.561 C 75.175 176.391,75.112 169.882,75.000 169.811 C 74.879 169.734,74.309 169.734,74.188 169.811 M80.617 169.853 C 80.547 169.938,80.531 170.548,80.531 173.233 C 80.531 177.003,80.484 176.727,81.118 176.665 C 81.621 176.616,81.593 176.757,81.598 174.228 C 81.603 171.830,81.605 171.813,81.856 171.813 C 82.036 171.813,82.053 171.830,83.015 172.997 C 83.368 173.424,83.860 174.015,84.110 174.309 C 84.360 174.603,84.831 175.172,85.157 175.573 C 86.006 176.616,86.260 176.782,86.779 176.637 C 87.050 176.562,87.049 176.575,87.056 173.176 C 87.064 169.564,87.091 169.750,86.545 169.750 C 85.965 169.750,86.000 169.598,86.000 172.110 C 86.000 174.973,85.925 175.083,84.893 173.729 C 84.732 173.517,84.584 173.330,84.565 173.313 C 84.545 173.295,84.403 173.127,84.249 172.938 C 84.095 172.750,83.866 172.483,83.740 172.345 C 83.513 172.096,82.890 171.363,82.406 170.778 C 82.269 170.611,81.999 170.312,81.806 170.113 L 81.457 169.750 81.080 169.750 C 80.805 169.750,80.679 169.778,80.617 169.853 M104.911 169.848 C 104.771 169.988,104.761 176.343,104.900 176.533 C 105.022 176.700,105.668 176.697,105.792 176.528 C 105.941 176.324,105.912 169.990,105.761 169.853 C 105.608 169.716,105.047 169.712,104.911 169.848 M126.867 169.853 C 126.768 169.973,126.703 175.735,126.795 176.284 C 126.873 176.752,127.718 176.860,127.871 176.422 C 127.983 176.102,127.961 170.239,127.847 169.967 C 127.740 169.711,127.051 169.632,126.867 169.853 M133.313 169.811 C 133.206 169.879,133.134 175.862,133.234 176.341 C 133.294 176.627,133.549 176.727,133.984 176.637 L 134.219 176.588 134.250 174.247 C 134.267 172.960,134.304 171.871,134.332 171.828 C 134.515 171.545,134.931 171.985,137.823 175.522 C 138.600 176.473,138.827 176.657,139.216 176.653 C 139.793 176.648,139.750 176.925,139.750 173.192 C 139.750 169.481,139.792 169.750,139.219 169.750 C 138.655 169.750,138.688 169.610,138.687 172.059 C 138.686 174.525,138.689 174.500,138.410 174.500 C 138.245 174.500,138.174 174.452,138.017 174.234 C 137.912 174.088,137.760 173.895,137.679 173.805 C 137.598 173.715,137.348 173.421,137.125 173.152 C 136.902 172.882,136.652 172.590,136.571 172.503 C 136.489 172.415,136.321 172.219,136.196 172.066 C 136.071 171.914,135.902 171.717,135.821 171.629 C 135.739 171.541,135.571 171.342,135.447 171.188 C 135.323 171.033,135.165 170.845,135.095 170.771 C 135.026 170.697,134.842 170.482,134.688 170.293 C 134.269 169.783,133.683 169.577,133.313 169.811 M153.473 169.848 C 153.374 169.948,153.344 170.221,153.413 170.401 C 153.445 170.485,153.588 170.500,154.335 170.503 C 155.258 170.506,155.710 170.560,155.833 170.683 C 155.886 170.736,155.915 171.562,155.938 173.654 C 155.955 175.248,155.988 176.572,156.013 176.596 C 156.073 176.656,156.681 176.665,156.886 176.608 L 157.054 176.562 157.074 173.658 C 157.098 170.150,156.931 170.549,158.389 170.512 C 158.983 170.498,159.504 170.457,159.547 170.423 C 159.675 170.319,159.645 169.890,159.504 169.815 C 159.284 169.697,153.593 169.729,153.473 169.848 M164.502 169.871 C 164.393 170.075,164.415 176.383,164.525 176.534 C 164.632 176.679,165.316 176.709,165.451 176.574 C 165.573 176.452,165.568 170.001,165.445 169.853 C 165.313 169.693,164.590 169.707,164.502 169.871 M170.512 169.804 C 170.458 169.838,170.436 169.959,170.449 170.162 L 170.469 170.469 171.582 170.507 C 172.249 170.530,172.723 170.573,172.763 170.613 C 172.900 170.750,172.930 171.331,172.935 173.875 C 172.937 175.302,172.960 176.500,172.985 176.539 C 173.132 176.763,173.894 176.671,173.961 176.421 C 173.981 176.344,173.999 175.196,173.999 173.869 C 174.000 170.218,173.860 170.551,175.406 170.514 C 176.548 170.486,176.625 170.463,176.625 170.144 C 176.625 169.744,176.672 169.750,173.484 169.751 C 171.895 169.751,170.557 169.775,170.512 169.804 M181.430 169.853 C 181.184 170.149,181.311 174.618,181.581 175.209 C 182.258 176.686,184.579 177.207,186.313 176.271 C 187.409 175.679,187.517 175.324,187.545 172.227 C 187.568 169.599,187.599 169.750,187.039 169.751 C 186.424 169.752,186.473 169.550,186.437 172.232 C 186.401 174.881,186.426 174.740,185.912 175.260 C 185.431 175.746,184.465 175.951,183.735 175.721 C 183.382 175.610,182.688 175.121,182.687 174.983 C 182.687 174.941,182.643 174.823,182.591 174.722 C 182.444 174.441,182.378 173.512,182.377 171.707 C 182.375 169.731,182.379 169.750,181.884 169.750 C 181.617 169.750,181.492 169.779,181.430 169.853 M192.387 169.825 C 192.305 169.907,192.287 170.302,192.360 170.414 C 192.390 170.460,192.780 170.494,193.469 170.512 C 195.025 170.553,194.873 170.196,194.875 173.813 C 194.877 176.811,194.849 176.651,195.376 176.654 C 195.974 176.658,195.938 176.858,195.938 173.586 C 195.938 171.099,195.949 170.747,196.036 170.661 C 196.158 170.538,196.026 170.554,197.344 170.508 L 198.469 170.469 198.488 170.199 C 198.522 169.724,198.704 169.750,195.411 169.750 C 193.201 169.750,192.444 169.769,192.387 169.825 M203.411 169.848 C 203.270 169.989,203.261 176.343,203.401 176.535 C 203.499 176.669,206.678 176.755,207.352 176.642 L 207.656 176.591 207.656 176.249 L 207.656 175.906 206.147 175.875 C 204.227 175.835,204.375 175.934,204.375 174.688 C 204.375 173.449,204.250 173.540,206.004 173.500 C 207.520 173.465,207.518 173.466,207.488 173.055 C 207.464 172.712,207.402 172.699,205.766 172.692 C 204.295 172.686,204.375 172.749,204.375 171.603 C 204.375 170.460,204.249 170.541,206.066 170.510 C 207.630 170.483,207.646 170.479,207.646 170.113 C 207.646 169.756,207.608 169.750,205.461 169.750 C 203.770 169.750,203.496 169.763,203.411 169.848 M231.637 169.825 C 231.581 169.881,231.563 170.724,231.563 173.233 C 231.563 177.022,231.501 176.658,232.140 176.654 C 232.669 176.651,232.654 176.697,232.675 175.060 C 232.698 173.304,232.532 173.477,234.219 173.448 C 235.611 173.424,235.640 173.415,235.612 173.037 C 235.589 172.716,235.505 172.699,233.934 172.692 C 232.584 172.686,232.688 172.775,232.688 171.620 C 232.688 170.444,232.559 170.540,234.180 170.510 C 234.922 170.497,235.502 170.460,235.547 170.423 C 235.675 170.319,235.645 169.890,235.504 169.815 C 235.323 169.718,231.735 169.727,231.637 169.825 M245.851 169.830 C 245.769 169.891,245.746 169.980,245.761 170.190 L 245.781 170.469 246.844 170.506 C 247.988 170.545,248.148 170.572,248.227 170.737 C 248.255 170.796,248.293 172.128,248.311 173.698 C 248.348 176.886,248.307 176.643,248.810 176.650 C 249.380 176.658,249.340 176.874,249.375 173.624 C 249.413 170.152,249.248 170.541,250.685 170.523 C 251.268 170.516,251.775 170.492,251.810 170.470 C 251.932 170.395,251.888 169.886,251.754 169.815 C 251.563 169.712,245.993 169.727,245.851 169.830 M256.826 169.824 C 256.692 169.958,256.719 176.459,256.853 176.570 C 256.986 176.681,260.620 176.734,260.895 176.629 C 261.059 176.567,261.068 176.544,261.050 176.235 L 261.031 175.906 259.594 175.872 C 257.702 175.826,257.861 175.947,257.888 174.564 C 257.911 173.422,257.790 173.502,259.480 173.501 C 260.846 173.500,260.891 173.489,260.977 173.146 C 261.071 172.771,260.903 172.723,259.371 172.688 C 257.735 172.650,257.877 172.753,257.876 171.611 L 257.875 170.753 258.044 170.642 C 258.191 170.546,258.390 170.529,259.556 170.518 C 261.167 170.501,261.074 170.527,261.050 170.110 L 261.031 169.781 258.966 169.765 C 257.413 169.752,256.883 169.767,256.826 169.824 M277.411 169.848 C 277.299 169.960,277.260 176.383,277.370 176.557 C 277.409 176.618,277.548 176.646,277.816 176.646 C 278.383 176.646,278.375 176.666,278.375 175.121 C 278.375 173.994,278.388 173.817,278.478 173.742 C 278.625 173.620,282.141 173.616,282.262 173.737 C 282.323 173.798,282.349 174.164,282.364 175.155 C 282.387 176.698,282.370 176.654,282.952 176.654 C 283.539 176.654,283.500 176.898,283.500 173.180 C 283.500 169.465,283.549 169.750,282.909 169.750 C 282.370 169.750,282.385 169.709,282.363 171.233 C 282.349 172.215,282.323 172.577,282.262 172.638 C 282.133 172.767,278.518 172.755,278.436 172.625 C 278.404 172.573,278.376 171.960,278.376 171.262 C 278.375 170.508,278.349 169.943,278.310 169.871 C 278.225 169.712,277.564 169.695,277.411 169.848 M288.915 169.842 C 288.865 169.974,288.863 176.293,288.914 176.482 C 288.962 176.662,289.404 176.740,289.666 176.615 L 289.844 176.530 289.875 174.174 C 289.897 172.488,289.927 171.798,289.980 171.745 C 290.113 171.612,290.339 171.743,290.610 172.109 C 290.874 172.465,291.432 173.143,292.156 173.986 C 292.363 174.226,292.869 174.826,293.281 175.320 C 294.440 176.705,294.613 176.827,295.168 176.642 L 295.344 176.583 295.360 173.252 C 295.378 169.528,295.406 169.750,294.911 169.750 C 294.312 169.750,294.346 169.606,294.325 172.177 C 294.304 174.708,294.308 174.689,293.901 174.471 C 293.784 174.407,293.688 174.337,293.688 174.314 C 293.688 174.292,293.638 174.219,293.578 174.152 C 293.517 174.086,293.370 173.905,293.251 173.750 C 293.133 173.595,292.917 173.342,292.772 173.188 C 292.627 173.033,292.444 172.822,292.365 172.719 C 292.286 172.616,292.191 172.503,292.153 172.469 C 292.115 172.434,291.989 172.280,291.872 172.125 C 291.755 171.970,291.583 171.759,291.490 171.656 C 291.135 171.266,291.024 171.138,290.781 170.846 C 290.365 170.344,290.059 169.988,289.954 169.883 C 289.803 169.731,288.970 169.699,288.915 169.842 M313.200 169.825 C 313.106 169.919,313.093 176.415,313.186 176.563 C 313.261 176.682,317.283 176.741,317.498 176.626 C 317.646 176.547,317.681 176.061,317.547 175.950 C 317.499 175.911,316.881 175.877,315.959 175.864 C 314.597 175.846,314.438 175.833,314.323 175.728 C 314.199 175.616,314.195 175.539,314.176 172.742 C 314.159 170.272,314.143 169.862,314.063 169.811 C 313.928 169.726,313.289 169.736,313.200 169.825 M345.584 169.845 C 345.564 169.898,345.614 170.035,345.696 170.149 C 345.991 170.565,347.211 172.163,347.417 172.404 C 347.534 172.541,347.705 172.780,347.799 172.936 L 347.968 173.219 348.000 174.886 C 348.035 176.770,348.001 176.658,348.538 176.652 C 349.118 176.645,349.091 176.731,349.116 174.857 C 349.142 172.908,349.005 173.273,350.396 171.438 C 351.654 169.780,351.651 169.788,350.978 169.763 C 350.341 169.739,350.355 169.728,349.530 170.881 C 348.492 172.333,348.536 172.317,347.964 171.456 C 347.845 171.278,347.713 171.095,347.670 171.050 C 347.628 171.005,347.482 170.806,347.346 170.606 C 347.211 170.407,346.997 170.132,346.872 169.997 L 346.644 169.750 346.133 169.750 C 345.732 169.750,345.613 169.771,345.584 169.845 M96.438 170.629 C 98.528 170.965,99.330 173.548,97.816 175.068 C 96.659 176.230,94.404 175.989,93.669 174.625 C 92.505 172.465,94.044 170.244,96.438 170.629 M223.589 170.714 C 224.707 171.051,225.547 172.458,225.312 173.599 C 224.749 176.327,220.839 176.641,220.143 174.013 C 219.553 171.785,221.369 170.046,223.589 170.714 M304.830 170.654 C 307.769 171.277,307.440 175.584,304.438 175.795 C 302.756 175.913,301.620 174.882,301.618 173.237 C 301.617 172.463,301.619 172.451,301.882 171.897 C 302.352 170.905,303.576 170.389,304.830 170.654 M326.549 170.714 C 327.584 170.991,328.245 171.895,328.299 173.107 C 328.445 176.392,323.541 176.863,323.069 173.609 C 322.771 171.550,324.451 170.152,326.549 170.714 " stroke="none" fill="#000000" fill-rule="evenodd"></path></g></svg>