<svg width="1669.276" height="841.89" xmlns="http://www.w3.org/2000/svg">

 <g>
  <title>Layer 1</title>
  <g id="svg_1">
   <path fill="#ffffff" id="svg_2" d="m752.34595,145.61704c118.88131,0.14791 237.79815,0.29627 356.67946,0.44418c0,0.14791 0,0.29627 0,0.44418c-8.28847,15.54465 -16.58582,31.09419 -24.87428,46.63928c-21.4674,0 -42.93923,0 -64.40663,0c-7.99975,0 -21.31193,-1.91265 -27.53939,0.88837c-1.10602,6.64055 -6.54282,13.44988 -9.77204,18.65571c-8.21296,13.23223 -15.22217,28.21126 -22.20918,41.75317c-28.42331,53.88889 -56.85995,107.79413 -85.28326,161.68293c-17.61632,0 -35.24153,0 -52.85785,0c39.38132,-74.31947 78.77153,-148.66098 118.15285,-222.98019c-51.96504,0 -103.94341,0 -155.90846,0c-8.52833,0 -53.4042,1.53332 -56.85551,-0.88837c8.28847,-15.54509 16.58582,-31.09463 24.87428,-46.63928z"/>
   <path fill="#ffffff" id="svg_3" d="m703.48575,238.00715c17.76735,0 35.53469,0 53.30204,0c-31.5326,59.36661 -63.07719,118.75081 -94.61111,178.11773c-17.61766,0 -35.2402,0 -52.85785,0c21.31859,-40.41671 42.64385,-80.84542 63.96244,-121.26222c7.38766,-12.93627 13.71417,-26.74432 21.32081,-39.97653c2.92717,-5.08959 7.35568,-10.68857 8.88367,-16.87898z"/>
   <path fill="#ffffff" id="svg_4" d="m810.97819,238.00715c17.61632,0.14805 35.24153,0.29614 52.85785,0.44418c-31.5326,59.21856 -63.07852,118.45498 -94.61111,177.67354c-17.61632,0 -35.24153,0 -52.85785,0c0,-0.14836 0,-0.29627 0,-0.44418c0.44418,-0.44418 0.88837,-0.88837 1.33255,-1.33255c31.08841,-58.77438 62.19015,-117.56657 93.27856,-176.34099z"/>
   <path fill="#ffffff" id="svg_5" d="m1233.84102,523.61732c5.29467,0.91457 10.08297,1.99128 14.21388,3.55347c-0.14658,3.40511 -0.2976,6.81111 -0.44418,10.21622c-3.79777,-2.47588 -8.51944,-5.18451 -14.65806,-3.99765c-0.59076,1.03628 -1.18597,2.07301 -1.77673,3.10929c5.61448,3.37757 16.50142,7.50759 18.65571,14.21388c6.15639,19.16697 -20.94326,15.92087 -30.20449,12.88133c0,-3.55302 0,-7.10738 0,-10.66041c3.79777,2.05035 10.38946,6.18259 15.99061,3.55347c0.91058,-0.60231 0.71514,-0.49749 1.33255,-1.33255c-0.43974,-2.41947 -1.09269,-2.48343 -2.22092,-3.99765c-10.16736,-2.8792 -25.45616,-17.89172 -9.77204,-25.76265c2.9627,-0.5921 5.92097,-1.18464 8.88367,-1.77673z"/>
   <path fill="#ffffff" id="svg_6" d="m496.94036,524.0615c32.54578,-1.03273 36.88856,34.03291 11.99296,42.19745c-18.10892,5.93874 -37.28877,-9.24035 -31.09285,-27.53939c3.20612,-9.46955 9.7143,-11.02997 19.0999,-14.65806z"/>
   <path fill="#ffffff" id="svg_7" d="m661.73249,524.0615c32.61196,-1.02029 37.26701,34.40424 12.43714,42.19745c-19.0155,5.96761 -37.20527,-9.7294 -31.09285,-27.53939c3.2803,-9.55839 9.24302,-11.00376 18.65571,-14.65806z"/>
   <path fill="#ffffff" id="svg_8" d="m826.08044,524.0615c9.28344,-0.5459 22.51123,1.22506 16.87898,13.32551c-3.07375,-1.82515 -9.02137,-6.13418 -14.21388,-3.99765c-0.59076,0.29583 -1.18597,0.5921 -1.77673,0.88837c0.16435,2.83611 0.65739,2.85832 1.77673,4.44184c6.69385,1.79228 20.49463,8.50034 15.99061,19.54408c-3.46463,8.49501 -22.48902,12.33587 -30.20449,4.44184c0.14658,-3.2572 0.2976,-6.51529 0.44418,-9.77204c4.46405,2.78414 11.64205,6.16127 17.32316,2.6651c0,-0.88837 0,-1.77673 0,-2.6651c-5.46346,-2.16584 -25.52723,-11.80152 -16.43479,-22.65337c2.05657,-4.25839 5.73441,-4.29659 10.21622,-6.21857z"/>
   <path fill="#ffffff" id="svg_9" d="m985.98655,524.0615c32.4032,-1.01851 36.58741,34.59658 11.99296,42.19745c-20.09487,6.20969 -38.21756,-11.3027 -30.20449,-30.20449c3.29584,-7.77144 9.89641,-8.86457 18.21153,-11.99296z"/>
   <path fill="#ffffff" id="svg_10" d="m385.00609,524.50568c3.8493,0 7.69948,0 11.54877,0c4.14512,5.1814 8.29202,10.36458 12.43714,15.54643c0.14791,-0.29627 0.29627,-0.59254 0.44418,-0.88837c3.99721,-4.88558 7.99575,-9.77248 11.99296,-14.65806c4.14512,0.14791 8.29202,0.29583 12.43714,0.44418c0.11949,7.38322 1.61727,38.63998 -1.33255,41.75326c-3.99721,-0.14836 -7.99575,-0.29627 -11.99296,-0.44418c-0.14791,-7.8465 -0.29627,-15.69523 -0.44418,-23.54173c0,0.29583 0,0.5921 0,0.88837c-3.784,3.25542 -6.46776,10.90959 -11.54877,12.43714c-3.70094,-4.44139 -7.40365,-8.88412 -11.10459,-13.32551c0,7.8465 0,15.69523 0,23.54173c-4.14512,0 -8.29202,0 -12.43714,0c0,-13.91627 0,-27.83699 0,-41.75326z"/>
   <path fill="#ffffff" id="svg_11" d="m562.23536,524.50568c14.21254,0 28.42909,0 42.64163,0c0,3.55302 0,7.10738 0,10.66041c-4.88558,0 -9.77248,0 -14.65806,0c0.13103,6.27543 1.34721,28.73069 -1.33255,31.53704c-3.99721,-0.14836 -7.99575,-0.29627 -11.99296,-0.44418c0,-10.51161 0,-21.02588 0,-31.53704c-4.88558,0.14791 -9.77248,0.29583 -14.65806,0.44418c0,-3.55302 0,-7.10738 0,-10.66041z"/>
   <path fill="#ffffff" id="svg_12" d="m733.24606,524.50568c15.72854,-0.20743 31.91904,-2.42435 35.97887,9.32786c3.87328,11.21963 -9.86976,11.55677 -1.77673,17.76735c2.07434,5.03349 4.14423,10.06875 6.21857,15.10224c-4.58842,-0.14836 -9.18128,-0.29627 -13.76969,-0.44418c-1.45248,-5.14631 -4.42407,-13.7386 -9.32786,-15.54643c-1.33255,-0.14836 -2.6651,-0.29627 -3.99765,-0.44418c0,5.32976 0,10.66085 0,15.99061c-0.44418,0.14791 -0.88837,0.29583 -1.33255,0.44418c-3.70005,0 -7.40454,0 -11.10459,0c-0.2976,-0.14836 -0.59076,-0.29627 -0.88837,-0.44418c0,-13.91627 0,-27.83699 0,-41.75326z"/>
   <path fill="#ffffff" id="svg_13" d="m889.5987,524.50568c12.25503,-0.39444 28.19234,-1.66524 33.75796,4.88602c1.63904,1.92909 2.57182,6.47353 2.22092,8.88367c-1.70567,11.6425 -9.56772,12.87866 -23.09755,12.43714c1.11046,3.76268 1.02162,12.92885 -0.44418,15.99061c-4.14423,-0.14836 -8.29291,-0.29627 -12.43714,-0.44418c0,-13.91627 0,-27.83699 0,-41.75326z"/>
   <path fill="#ffffff" id="svg_14" d="m1057.50011,524.50568c8.67491,-0.31359 24.62554,-1.9553 30.20449,1.77673c7.34236,4.91045 8.13744,17.19168 -0.44418,21.32081c0.2976,0.44418 0.59076,0.88837 0.88837,1.33255c4.9793,2.52563 7.06252,11.61718 9.77204,16.43479c-0.14658,0.44418 -0.2976,0.88837 -0.44418,1.33255c-4.58842,-0.29627 -9.18128,-0.59254 -13.76969,-0.88837c-1.34143,-6.06977 -4.85937,-11.97608 -8.88367,-15.54643c-1.47913,0 -2.9627,0 -4.44184,0c-0.14658,5.47767 -0.2976,10.95712 -0.44418,16.43479c-0.14658,0 -0.2976,0 -0.44418,0c-3.99765,-0.14836 -7.99531,-0.29627 -11.99296,-0.44418c0,-13.91627 0,-27.83699 0,-41.75326z"/>
   <path fill="#ffffff" id="svg_15" d="m1134.34388,524.50568c14.21388,0 28.42775,0 42.64163,0c0,3.55302 0,7.10738 0,10.66041c-4.88602,0 -9.77204,0 -14.65806,0c0.11993,8.88145 2.30975,24.55225 -0.88837,31.53704c-4.14423,-0.14836 -8.29291,-0.29627 -12.43714,-0.44418c0,-10.51161 0,-21.02588 0,-31.53704c-4.88602,0.14791 -9.77204,0.29583 -14.65806,0.44418c0,-3.55302 0,-7.10738 0,-10.66041z"/>
   <path fill="none" id="svg_16" d="m746.57157,532.94517c0,3.10884 0,6.21902 0,9.32786c2.3675,-0.14836 4.73944,-0.29627 7.10694,-0.44418c0.88837,-0.74045 1.77673,-1.48091 2.6651,-2.22092c0.03553,-3.76623 -0.72402,-4.2917 -2.22092,-6.21857c-2.51852,-0.14836 -5.0326,-0.29627 -7.55112,-0.44418z"/>
   <path fill="none" id="svg_17" d="m902.48002,532.94517c0,3.10884 0,6.21902 0,9.32786c2.51852,-0.14836 5.0326,-0.29627 7.55112,-0.44418c1.51911,-0.7178 1.48802,-0.72358 2.22092,-2.22092c0,-1.33255 0,-2.66555 0,-3.99765c-0.59076,-0.74045 -1.18597,-1.48091 -1.77673,-2.22092c-2.6651,-0.14836 -5.3302,-0.29627 -7.99531,-0.44418z"/>
   <path fill="none" id="svg_18" d="m1070.38144,532.94517c0,3.10884 0,6.21902 0,9.32786c4.50402,0.17634 7.28461,-0.26207 9.77204,-1.77673c1.10158,-6.74004 -2.53185,-8.03884 -9.77204,-7.55112z"/>
   <path fill="none" id="svg_19" d="m496.94036,535.16609c-5.75218,4.3259 -7.88204,9.88397 -3.99765,17.76735c6.09909,2.52785 14.4262,4.35344 17.76735,-2.6651c4.8798,-10.25131 -3.68539,-15.64681 -13.76969,-15.10224z"/>
   <path fill="none" id="svg_20" d="m661.73249,535.16609c-5.92363,5.26669 -7.98198,11.20187 -2.6651,18.65571c6.05156,2.15385 14.18589,2.36883 16.87898,-3.55347c5.02327,-11.0464 -4.69413,-15.6286 -14.21388,-15.10224z"/>
   <path fill="none" id="svg_21" d="m985.98655,535.16609c-6.02757,4.61107 -7.0714,9.09244 -4.44184,17.76735c6.12529,2.38216 14.50704,4.57287 17.76735,-2.6651c4.83272,-9.57971 -2.7184,-15.6859 -13.32551,-15.10224z"/>
   <path fill="#ffffff" id="svg_22" d="m392.55721,590.24486c0,7.10605 0,14.21432 0,21.32081c-1.48046,-0.14836 -2.96137,-0.29627 -4.44184,-0.44418c0.14791,-6.95814 0.29627,-13.91849 0.44418,-20.87663c1.33255,0 2.6651,0 3.99765,0z"/>
   <path fill="#ffffff" id="svg_23" d="m411.21292,607.56803c3.2572,0 6.51484,0 9.77204,0c0,1.33211 0,2.6651 0,3.99765c-4.88558,0 -9.77248,0 -14.65806,0c0.14791,-7.10649 0.29627,-14.21476 0.44418,-21.32081c1.48046,0.14791 2.96137,0.29583 4.44184,0.44418c0,5.62559 0,11.25295 0,16.87898z"/>
   <path fill="#ffffff" id="svg_24" d="m432.97792,590.24486c1.48046,0 2.96137,0 4.44184,0c0,5.7735 0,11.54922 0,17.32316c3.2572,0 6.51484,0 9.77204,0c0,1.33211 0,2.6651 0,3.99765c-4.73766,0 -9.47621,0 -14.21388,0c0,-7.10649 0,-14.21476 0,-21.32081z"/>
   <path fill="#ffffff" id="svg_25" d="m463.62659,590.24486c0,7.10605 0,14.21432 0,21.32081c-1.48046,-0.14836 -2.96137,-0.29627 -4.44184,-0.44418c0.14791,-6.95814 0.29627,-13.91849 0.44418,-20.87663c1.33255,0 2.6651,0 3.99765,0z"/>
   <path fill="#ffffff" id="svg_26" d="m497.82873,611.56568c-1.18419,0 -2.36928,0 -3.55347,0c-3.99721,-4.58975 -7.99575,-9.18039 -11.99296,-13.76969c-0.14791,4.58931 -0.29627,9.17994 -0.44418,13.76969c-1.48046,-0.14836 -2.96137,-0.29627 -4.44184,-0.44418c0.14791,-6.95814 0.29627,-13.91849 0.44418,-20.87663c1.18419,0.14791 2.36928,0.29583 3.55347,0.44418c3.99721,4.44139 7.99575,8.88412 11.99296,13.32551c-0.14791,-4.44139 -0.29627,-8.88412 -0.44418,-13.32551c0.14791,-0.14836 0.29627,-0.29627 0.44418,-0.44418c1.48046,0.14791 2.96137,0.29583 4.44184,0.44418c0,6.95814 0,13.91849 0,20.87663z"/>
   <path fill="#ffffff" id="svg_27" d="m519.14954,590.24486c16.23758,-0.93723 19.18429,17.72426 6.21857,21.32081c-15.0485,4.17399 -19.32465,-13.82033 -6.21857,-21.32081z"/>
   <path fill="#ffffff" id="svg_28" d="m546.68893,590.24486c1.48046,0 2.96137,0 4.44184,0c0,7.10605 0,14.21432 0,21.32081c-1.48046,0 -2.96137,0 -4.44184,0c0,-7.10649 0,-14.21476 0,-21.32081z"/>
   <path fill="#ffffff" id="svg_29" d="m568.89811,590.24486c4.04252,-0.13947 6.13062,0.45129 8.43949,1.77673c0,1.18419 0,2.36883 0,3.55347c-0.14791,0 -0.29627,0 -0.44418,0c-2.19249,-1.00386 -4.97974,-2.46744 -7.10694,-0.88837c-0.91768,0.87193 -0.45973,0.16612 -0.88837,1.77673c0.29627,0.44418 0.5921,0.88837 0.88837,1.33255c3.88439,1.20996 6.02091,3.16614 8.43949,5.77439c-0.14791,1.33211 -0.29627,2.6651 -0.44418,3.99765c-0.8786,1.99661 -1.86113,2.80013 -3.99765,3.55347c-3.47174,1.54443 -6.89728,-0.50104 -9.32786,-1.33255c-0.14791,-1.33255 -0.29627,-2.66555 -0.44418,-3.99765c3.47218,1.13755 6.98879,3.57568 9.77204,0.44418c-2.71707,-5.0477 -8.95874,-3.89283 -9.77204,-11.10459c1.31034,-2.49365 2.70241,-3.31539 4.88602,-4.88602z"/>
   <path fill="#ffffff" id="svg_30" d="m613.76066,611.56568c-1.62838,-0.14836 -3.25764,-0.29627 -4.88602,-0.44418c0.14791,-6.95814 0.29627,-13.91849 0.44418,-20.87663c1.48046,0.14791 2.96137,0.29583 4.44184,0.44418c0,6.95814 0,13.91849 0,20.87663z"/>
   <path fill="#ffffff" id="svg_31" d="m627.53035,590.24486c1.18419,0.14791 2.36928,0.29583 3.55347,0.44418c3.99721,4.44139 7.99575,8.88412 11.99296,13.32551c0.14791,-4.58975 0.29627,-9.18039 0.44418,-13.76969c1.33255,0.14791 2.6651,0.29583 3.99765,0.44418c0,6.95814 0,13.91849 0,20.87663c-1.33255,0 -2.6651,0 -3.99765,0c-3.8493,-4.58975 -7.69948,-9.18039 -11.54877,-13.76969c0,4.58931 0,9.17994 0,13.76969c-1.48046,0 -2.96137,0 -4.44184,0c0,-7.10649 0,-14.21476 0,-21.32081z"/>
   <path fill="#ffffff" id="svg_32" d="m664.84178,590.24486c4.05051,-0.14614 6.17859,0.41664 8.43949,1.77673c0,1.18419 0,2.36883 0,3.55347c-0.14791,0 -0.29627,0 -0.44418,0c-2.10454,-1.05582 -5.00595,-2.4399 -7.10694,-0.88837c-0.91768,0.87193 -0.45973,0.16612 -0.88837,1.77673c0.29627,0.44418 0.5921,0.88837 0.88837,1.33255c3.64008,0.89592 6.54105,3.06842 8.43949,5.77439c-0.14791,1.33211 -0.29627,2.6651 -0.44418,3.99765c-0.8786,1.99661 -1.86113,2.80013 -3.99765,3.55347c-4.69369,2.45767 -9.51974,-0.47572 -9.32786,-5.3302c0.14791,0 0.29627,0 0.44418,0c2.10543,1.16687 5.48389,3.28829 7.99531,1.33255c0.91768,-0.87238 0.45973,-0.16657 0.88837,-1.77673c-0.44418,-0.5921 -0.88837,-1.18464 -1.33255,-1.77673c-4.25928,-1.36542 -6.75292,-3.11462 -8.43949,-7.10694c0.14791,-0.74045 0.29627,-1.48091 0.44418,-2.22092c1.48046,-1.33255 2.96137,-2.66555 4.44184,-3.99765z"/>
   <path fill="#ffffff" id="svg_33" d="m703.92994,594.24252c-2.3675,0 -4.73944,0 -7.10694,0c0,5.7735 0,11.54922 0,17.32316c-1.63015,-0.14836 -3.25764,-0.29627 -4.88602,-0.44418c0,-5.62603 0,-11.25339 0,-16.87898c-2.36883,-0.14836 -4.73811,-0.29627 -7.10694,-0.44418c0.14791,-1.18464 0.29627,-2.36928 0.44418,-3.55347c6.21813,0.14791 12.43714,0.29583 18.65571,0.44418c0,1.18419 0,2.36883 0,3.55347z"/>
   <path fill="#ffffff" id="svg_34" d="m716.36708,590.24486c1.47913,0 2.9627,0 4.44184,0c0,7.10605 0,14.21432 0,21.32081c-1.47913,0 -2.9627,0 -4.44184,0c0,-7.10649 0,-14.21476 0,-21.32081z"/>
   <path fill="#ffffff" id="svg_35" d="m733.24606,590.24486c6.36515,0.14791 12.73474,0.29583 19.0999,0.44418c-0.14658,1.18419 -0.2976,2.36883 -0.44418,3.55347c-2.3675,0 -4.73944,0 -7.10694,0c0,5.7735 0,11.54922 0,17.32316c-1.47913,0 -2.9627,0 -4.44184,0c0,-5.92186 0,-11.84549 0,-17.76735c-2.3675,0.14791 -4.73944,0.29583 -7.10694,0.44418c0,-1.33255 0,-2.66555 0,-3.99765z"/>
   <path fill="#ffffff" id="svg_36" d="m764.33891,590.24486c1.33255,0 2.6651,0 3.99765,0c-0.20877,6.53216 -0.39088,13.28287 2.22092,16.87898c2.07434,0 4.14423,0 6.21857,0c0.74179,-0.5921 1.47913,-1.18464 2.22092,-1.77673c0,-5.03349 0,-10.06875 0,-15.10224c1.47913,0.14791 2.9627,0.29583 4.44184,0.44418c0.09772,6.50596 -0.31981,13.04301 -1.33255,17.76735c-5.62781,3.1617 -10.81587,3.9137 -16.43479,0c-1.34143,-4.80207 -1.38141,-11.63939 -1.33255,-18.21153z"/>
   <path fill="#ffffff" id="svg_37" d="m795.43177,590.24486c6.36515,0.14791 12.73474,0.29583 19.0999,0.44418c-0.14658,1.18419 -0.2976,2.36883 -0.44418,3.55347c-2.3675,0 -4.73944,0 -7.10694,0c0,5.7735 0,11.54922 0,17.32316c-1.33255,0 -2.6651,0 -3.99765,0c0,-5.77394 0,-11.54966 0,-17.32316c-2.51852,0 -5.0326,0 -7.55112,0c0,-1.33255 0,-2.66555 0,-3.99765z"/>
   <path fill="#ffffff" id="svg_38" d="m840.29431,590.24486c0,1.33211 0,2.6651 0,3.99765c-3.10929,0.14791 -6.21857,0.29583 -9.32786,0.44418c0,1.48046 0,2.96137 0,4.44184c3.10929,0 6.21857,0 9.32786,0c-0.14658,1.18419 -0.2976,2.36883 -0.44418,3.55347c-2.9627,0 -5.92097,0 -8.88367,0c0.14658,1.62838 0.2976,3.2572 0.44418,4.88602c3.10929,0 6.21857,0 9.32786,0c0,1.33211 0,2.6651 0,3.99765c-4.73944,-0.14836 -9.47444,-0.29627 -14.21388,-0.44418c0.14658,-6.95814 0.2976,-13.91849 0.44418,-20.87663c4.44184,0 8.88367,0 13.32551,0z"/>
   <path fill="#ffffff" id="svg_39" d="m878.93829,590.24486c8.97695,-0.53968 18.29148,4.53689 14.65806,14.21388c-2.9405,7.82474 -17.57635,10.05676 -21.32081,1.33255c-1.59906,-2.70197 -0.75067,-7.80075 0,-10.66041c2.22092,-1.62882 4.44184,-3.25764 6.66275,-4.88602z"/>
   <path fill="#ffffff" id="svg_40" d="m911.3637,594.24252c0,1.62838 0,3.2572 0,4.88602c2.99824,-0.1488 7.23575,-0.37889 8.88367,0.88837c-0.2976,0.88837 -0.59076,1.77673 -0.88837,2.6651c-2.6651,-0.14836 -5.3302,-0.29627 -7.99531,-0.44418c0,3.10884 0,6.21902 0,9.32786c-1.47913,-0.14836 -2.9627,-0.29627 -4.44184,-0.44418c0.14658,-6.95814 0.2976,-13.91849 0.44418,-20.87663c4.29526,0.14791 8.58607,0.29583 12.88133,0.44418c0,0.14791 0,0.29583 0,0.44418c-0.14658,1.03628 -0.2976,2.07301 -0.44418,3.10929c-2.81168,0 -5.62781,0 -8.43949,0z"/>
   <path fill="#ffffff" id="svg_41" d="m947.34257,590.24486c6.36515,0.14791 12.73474,0.29583 19.0999,0.44418c-0.14658,1.18419 -0.2976,2.36883 -0.44418,3.55347c-2.3675,0.14791 -4.73944,0.29583 -7.10694,0.44418c0,5.62559 0,11.25295 0,16.87898c-1.47913,0 -2.9627,0 -4.44184,0c0,-5.77394 0,-11.54966 0,-17.32316c-2.3675,0 -4.73944,0 -7.10694,0c0,-1.33255 0,-2.66555 0,-3.99765z"/>
   <path fill="#ffffff" id="svg_42" d="m992.20512,590.24486c0,1.33211 0,2.6651 0,3.99765c-2.9627,0 -5.92097,0 -8.88367,0c0,1.62838 0,3.2572 0,4.88602c2.99824,-0.1488 7.23575,-0.37889 8.88367,0.88837c-0.14658,0.88837 -0.2976,1.77673 -0.44418,2.6651c-2.81168,-0.14836 -5.62781,-0.29627 -8.43949,-0.44418c0,1.77629 0,3.55347 0,5.3302c2.9627,0 5.92097,0 8.88367,0c0,1.33211 0,2.6651 0,3.99765c-4.58842,0 -9.18128,0 -13.76969,0c0.14658,-7.10649 0.2976,-14.21476 0.44418,-21.32081c4.44184,0 8.88367,0 13.32551,0z"/>
   <path fill="#ffffff" id="svg_43" d="m1013.52593,590.24486c4.80163,-0.12482 7.09361,0.74134 10.21622,1.77673c0,1.33211 0,2.6651 0,3.99765c-3.55347,-1.4738 -7.04031,-1.88911 -11.10459,-0.88837c-0.88837,1.03628 -1.77673,2.07301 -2.6651,3.10929c0,1.92465 0,3.84974 0,5.77439c1.03495,0.88837 2.07434,1.77673 3.10929,2.6651c3.59789,1.95396 7.93756,0.09683 11.10459,-0.88837c0,1.03628 0,2.07301 0,3.10929c-4.37965,4.56621 -11.78419,1.99927 -16.43479,0c-5.63225,-10.58756 -2.35417,-13.08609 5.77439,-18.65571z"/>
   <path fill="#ffffff" id="svg_44" d="m1037.06767,590.24486c1.47913,0 2.9627,0 4.44184,0c0,2.96093 0,5.92274 0,8.88367c3.40689,0 6.80934,0 10.21622,0c0,-2.96093 0,-5.92274 0,-8.88367c1.47913,0.14791 2.9627,0.29583 4.44184,0.44418c0,6.95814 0,13.91849 0,20.87663c-1.47913,0 -2.9627,0 -4.44184,0c0,-2.96093 0,-5.92274 0,-8.88367c-3.40689,0 -6.80934,0 -10.21622,0c0,2.96093 0,5.92274 0,8.88367c-1.47913,0 -2.9627,0 -4.44184,0c0,-7.10649 0,-14.21476 0,-21.32081z"/>
   <path fill="#ffffff" id="svg_45" d="m1089.92552,611.56568c-1.33255,0 -2.6651,0 -3.99765,0c-3.99765,-4.73766 -7.99531,-9.47666 -11.99296,-14.21388c0,4.73722 0,9.47621 0,14.21388c-1.33255,-0.14836 -2.6651,-0.29627 -3.99765,-0.44418c0.14658,-6.95814 0.2976,-13.91849 0.44418,-20.87663c1.03495,0 2.07434,0 3.10929,0c3.99765,4.58931 7.99531,9.17994 11.99296,13.76969c0.14658,-4.58975 0.2976,-9.18039 0.44418,-13.76969c1.33255,0.14791 2.6651,0.29583 3.99765,0.44418c0,6.95814 0,13.91849 0,20.87663z"/>
   <path fill="#ffffff" id="svg_46" d="m1110.80215,590.24486c16.35484,-0.91902 19.93052,17.65852 6.66275,21.32081c-8.69267,2.39948 -18.19376,-6.12574 -14.21388,-14.65806c1.55908,-3.34293 4.87714,-4.43429 7.55112,-6.66275z"/>
   <path fill="#ffffff" id="svg_47" d="m1152.9996,607.56803c0,1.33211 0,2.6651 0,3.99765c-4.73944,-0.14836 -9.47444,-0.29627 -14.21388,-0.44418c0.14658,-6.95814 0.2976,-13.91849 0.44418,-20.87663c1.47913,0.14791 2.9627,0.29583 4.44184,0.44418c-0.14658,5.62559 -0.2976,11.25295 -0.44418,16.87898c3.25587,0 6.51617,0 9.77204,0z"/>
   <path fill="#ffffff" id="svg_48" d="m1172.09949,590.24486c16.46589,-0.93279 19.65957,17.97656 6.21857,21.32081c-8.897,2.21337 -17.33649,-6.00092 -14.21388,-14.21388c1.3592,-3.57834 5.02816,-5.08413 7.99531,-7.10694z"/>
   <path fill="#ffffff" id="svg_49" d="m1214.29694,604.01456c-1.03495,0 -2.07434,0 -3.10929,0c0,-1.18464 0,-2.36928 0,-3.55347c2.6651,0 5.3302,0 7.99531,0c0,2.96093 0,5.92274 0,8.88367c-10.37169,3.77911 -23.01315,0.98076 -19.54408,-12.43714c2.86054,-4.61951 13.36104,-10.72082 19.0999,-3.99765c0,0.88837 0,1.77673 0,2.6651c-5.10811,-0.67116 -8.53277,-1.28191 -13.32551,0c-0.59076,2.22047 -1.18597,4.44184 -1.77673,6.66275c0.95944,1.62482 1.10158,2.93561 2.6651,3.99765c1.94108,1.39873 5.18362,1.51111 7.99531,0.88837c0,-1.03628 0,-2.07301 0,-3.10929z"/>
   <path fill="#ffffff" id="svg_50" d="m1237.83867,611.56568c0.24874,-15.75919 -4.58398,-12.37807 -7.10694,-21.32081c1.47913,0.14791 2.9627,0.29583 4.44184,0.44418c1.95441,1.27125 4.04207,4.33434 4.88602,6.66275c0.14658,-0.29627 0.2976,-0.59254 0.44418,-0.88837c1.63015,-2.07256 3.25587,-4.14601 4.88602,-6.21857c1.63015,0.14791 3.25587,0.29583 4.88602,0.44418c-2.51852,3.25675 -5.0326,6.51484 -7.55112,9.77204c-0.14658,3.70094 -0.2976,7.40321 -0.44418,11.10459c-1.47913,0 -2.9627,0 -4.44184,0z"/>
   <path fill="none" id="svg_51" d="m520.92628,594.24252c-1.33255,0.44418 -2.6651,0.88837 -3.99765,1.33255c-1.37741,3.21545 -2.43546,8.52788 0.88837,10.66041c3.39623,2.24179 7.57289,1.06338 10.21622,-0.88837c0.44418,-1.18464 0.88837,-2.36928 1.33255,-3.55347c-0.29671,-3.13416 -1.36586,-4.65771 -2.6651,-6.66275c-1.92465,-0.29627 -3.84974,-0.59254 -5.77439,-0.88837z"/>
   <path fill="none" id="svg_52" d="m881.15921,594.24252c-0.88837,0.29583 -1.77673,0.5921 -2.6651,0.88837c-0.74179,0.88837 -1.47913,1.77673 -2.22092,2.6651c-1.40362,3.58767 -0.51969,7.42897 2.6651,8.88367c4.28193,2.25734 7.71991,-0.23231 10.21622,-2.22092c0.25318,-3.1346 0.20432,-4.85626 -0.44418,-7.55112c-2.22536,-1.60439 -3.54903,-2.59092 -7.55112,-2.6651z"/>
   <path fill="none" id="svg_53" d="m1112.57888,594.24252c-2.08322,1.22817 -3.34026,1.26415 -4.44184,3.55347c-1.34588,4.28726 0.22653,6.83554 1.77673,8.88367c0.2976,0 0.59076,0 0.88837,0c2.40748,1.32456 5.49899,0.71336 7.99531,0c0.44418,-0.74045 0.88837,-1.48091 1.33255,-2.22092c1.31478,-2.40259 0.68848,-5.42126 0,-7.99531c-2.13208,-1.39518 -3.85551,-2.16717 -7.55112,-2.22092z"/>
   <path fill="none" id="svg_54" d="m1174.32041,594.24252c-1.47913,0.44418 -2.9627,0.88837 -4.44184,1.33255c-1.14155,4.06428 -1.13267,6.65831 0,10.66041c3.52682,1.08514 8.39951,2.51097 10.66041,-0.88837c2.4208,-2.45367 2.00327,-7.99397 -0.88837,-9.77204c-1.77673,-0.44418 -3.55347,-0.88837 -5.3302,-1.33255z"/>
  </g>
 </g>
</svg>