<?xml version="1.0" encoding="utf-8"?>
<!-- Generator: Adobe Illustrator 25.2.0, SVG Export Plug-In . SVG Version: 6.00 Build 0)  -->
<svg version="1.1" id="Rectangle" xmlns="http://www.w3.org/2000/svg" xmlns:xlink="http://www.w3.org/1999/xlink" x="0px" y="0px"
	 viewBox="0 0 1920 1080" style="enable-background:new 0 0 1920 1080;" xml:space="preserve">
<rect id="BG" x="40" y="140" style="fill:#FFFFFF;" width="1840" height="800"/>
<path id="Logo" style="fill:#000000;" d="M388.8,680.9h-59.6l102.6-230.8h59.6L388.8,680.9z M372.4,450.1h-59.6L210.2,680.9h59.6L372.4,450.1z
	 M629.6,403.7h-59.5L447.2,680.2h59.5L629.6,403.7z M749.8,403.7l20.5-46.5H353.8l-20.5,46.5H749.8z"/>
<g id="Text" style="fill:#000000;">
	<path d="M787.2,680.2h-32.8l-7.6-55.6c-0.6-5-1.1-9.3-1.4-13.1c-0.4-3.7-0.8-8.9-1.2-15.7c-1.1,6.1-2.7,12.9-4.9,20.4
		c-0.5,1.5-0.8,2.7-1.1,3.8l-17.5,60.3h-23.4l-17.5-60.3c-0.2-1-0.5-2.3-1.1-3.8c-2.5-7.9-4.1-14.7-4.8-20.4
		c-0.5,6.4-0.9,11.2-1.3,14.4c-0.2,1.6-0.4,4-0.8,7.2s-0.6,5.6-0.8,7.2l-7.6,55.6h-32.6l19.9-128.7h34.7l19.4,66.4
		c0.4,1.2,0.6,2,0.7,2.4c1.7,5.5,2.8,10.5,3.4,15.1c0.1-1.6,0.6-4.2,1.3-7.7c0.2-0.9,1.1-4.2,2.6-9.9l19.6-66.2h34.8L787.2,680.2z"
		/>
	<path d="M898,636c0,6.5-1.3,12.6-3.8,18.2c-2.6,6-6.2,11.1-10.8,15.5c-5.2,4.8-10.5,8.3-16,10.5c-5.7,2.3-12.1,3.4-19.1,3.4
		c-7,0-13.4-1.1-19.1-3.4c-5.8-2.3-11.1-5.8-16-10.4c-4.9-4.7-8.4-9.8-10.6-15.5c-2.5-5.4-3.8-11.5-3.8-18.2
		c0-6.5,1.3-12.6,3.8-18.4c2.3-5.8,5.9-11,10.6-15.5c4.6-4.5,10-7.9,16-10.3c5.7-2.2,12.1-3.3,19.1-3.3c6.9,0,13.3,1.1,19.1,3.3
		c6,2.4,11.4,5.8,16,10.3c4.9,4.4,8.5,9.6,10.8,15.5C896.7,623.4,898,629.5,898,636z M866.9,636c0-6.6-1.7-11.8-5-15.6
		c-3.5-3.8-8-5.7-13.5-5.7c-5.7,0-10.3,1.9-13.5,5.7c-3.3,3.7-5,8.9-5,15.6c0,6.6,1.6,11.7,4.8,15.5c3.5,3.9,8.1,5.8,13.7,5.8
		s10.2-1.9,13.7-5.8C865.3,647.6,866.9,642.5,866.9,636z"/>
	<path d="M920.9,680.2l-0.2-66.6h-13.3v-22.1h13.3v-26.5h31.1v26.5H965v22.1h-13.1v66.6H920.9z"/>
	<path d="M1073.7,636c0,6.5-1.3,12.6-3.8,18.2c-2.6,6-6.2,11.1-10.8,15.5c-5.2,4.8-10.5,8.3-16,10.5c-5.7,2.3-12.1,3.4-19.1,3.4
		c-7,0-13.4-1.1-19.1-3.4c-5.8-2.3-11.1-5.8-16-10.4c-4.9-4.7-8.4-9.8-10.6-15.5c-2.5-5.4-3.8-11.5-3.8-18.2
		c0-6.5,1.3-12.6,3.8-18.4c2.3-5.8,5.9-11,10.6-15.5c4.6-4.5,10-7.9,16-10.3c5.7-2.2,12.1-3.3,19.1-3.3c6.9,0,13.3,1.1,19.1,3.3
		c6,2.4,11.4,5.8,16,10.3c4.9,4.4,8.5,9.6,10.8,15.5C1072.4,623.4,1073.7,629.5,1073.7,636z M1042.6,636c0-6.6-1.7-11.8-5-15.6
		c-3.5-3.8-8-5.7-13.5-5.7c-5.7,0-10.3,1.9-13.5,5.7c-3.3,3.7-5,8.9-5,15.6c0,6.6,1.6,11.7,4.8,15.5c3.5,3.9,8.1,5.8,13.7,5.8
		s10.2-1.9,13.7-5.8C1041,647.6,1042.6,642.5,1042.6,636z"/>
	<path d="M1091.9,680.2v-88.8h29.5v20.9c3.1-7.7,7.2-13.4,12.4-17.1c5.3-3.8,11.7-5.7,19.2-5.7c1.7,0,3,0.1,3.8,0.2
		c0.6,0.1,1.2,0.1,1.8,0.1c0.5,0,1.2,0.1,2,0.2l-3,28.5c-2.2-0.7-4-1.2-5.6-1.5c-2.3-0.2-4.1-0.4-5.2-0.4c-7.6,0-13.5,2.3-17.7,7
		c-4.1,4.6-6.2,11.2-6.2,19.8v36.7H1091.9z"/>
	<path d="M1163.9,672.8l6.5-23.9c4.6,4,9.6,7.1,15.1,9.1c5.4,2.2,11,3.2,16.5,3.2c4,0,7-0.7,9-2c2.1-1.2,3.1-3,3.1-5.4
		c0-3.9-4.1-6.8-12.4-8.8c-2.9-0.6-5-1.2-6.5-1.7c-9.6-2.8-16.3-6.2-20.3-10.3c-4.3-4.2-6.5-9.6-6.5-16.2c0-8.6,3.3-15.4,9.8-20.7
		c6.3-5.2,15-7.7,26.3-7.7c5.4,0,11.2,0.6,17.4,1.9c5.2,1.1,11.2,3.1,18,6.2l-6.5,21.6c-4.2-2.9-8.5-5-12.7-6.4
		c-4-1.5-8.3-2.2-12.7-2.2c-3.6,0-6.4,0.6-8.2,1.7c-1.8,1.1-2.6,2.7-2.6,4.8c0,3,4.1,5.7,12.4,7.9c2.7,0.8,4.1,1.2,4.1,1.2
		c10.8,3,18.3,6.6,22.7,10.8c4.2,4.4,6.3,10.1,6.3,17.1c0,9.1-3.5,16.4-10.5,22c-7.1,5.6-16.4,8.4-27.7,8.4
		c-7.9,0-15.1-0.9-21.7-2.7S1169.9,676.4,1163.9,672.8z"/>
	<path d="M1259.4,719.4V591.6h28.8v14.8c3.8-5.7,8.3-10.1,13.4-13.3c4.9-2.9,10.4-4.3,16.6-4.3c6.3,0,11.9,1,16.9,3.1
		c5,2.1,9.3,5.2,13,9.4c7.3,8.4,11,20,11,34.7c0,14.2-3.7,25.6-11,34.4c-3.8,4.5-8,7.8-12.7,9.9c-4.7,2.2-10.1,3.3-16.1,3.3
		c-7.6,0-13.7-1.4-18.4-4.1c-4.5-2.6-8.7-7.2-12.6-13.7c0.3,1.4,0.5,3.6,0.7,6.5c0.1,1.7,0.2,4.8,0.2,9.3v37.8H1259.4z
		 M1287.2,636.1c0,6.9,1.8,12.4,5.5,16.4c3.4,3.9,8.3,5.9,14.7,5.9c6.4,0,11.3-2,14.9-5.9c3.6-4.1,5.4-9.6,5.4-16.4
		c0-7-1.8-12.4-5.4-16.3c-3.6-4-8.6-6-14.9-6c-6.4,0-11.3,2-14.7,6C1289,623.6,1287.2,629.1,1287.2,636.1z"/>
	<path d="M1472.2,636c0,6.5-1.3,12.6-3.8,18.2c-2.6,6-6.2,11.1-10.8,15.5c-5.2,4.8-10.5,8.3-16,10.5c-5.7,2.3-12.1,3.4-19.1,3.4
		c-7,0-13.4-1.1-19.1-3.4c-5.8-2.3-11.1-5.8-16-10.4c-4.9-4.7-8.4-9.8-10.6-15.5c-2.5-5.4-3.8-11.5-3.8-18.2
		c0-6.5,1.3-12.6,3.8-18.4c2.3-5.8,5.9-11,10.6-15.5c4.6-4.5,10-7.9,16-10.3c5.7-2.2,12.1-3.3,19.1-3.3c6.9,0,13.3,1.1,19.1,3.3
		c6,2.4,11.4,5.8,16,10.3c4.9,4.4,8.5,9.6,10.8,15.5C1470.9,623.4,1472.2,629.5,1472.2,636z M1441.1,636c0-6.6-1.7-11.8-5-15.6
		c-3.5-3.8-8-5.7-13.5-5.7c-5.7,0-10.3,1.9-13.5,5.7c-3.3,3.7-5,8.9-5,15.6c0,6.6,1.6,11.7,4.8,15.5c3.5,3.9,8.1,5.8,13.7,5.8
		s10.2-1.9,13.7-5.8C1439.5,647.6,1441.1,642.5,1441.1,636z"/>
	<path d="M1490.4,680.2v-88.8h29.5v20.9c3.1-7.7,7.2-13.4,12.4-17.1c5.3-3.8,11.7-5.7,19.2-5.7c1.7,0,3,0.1,3.8,0.2
		c0.6,0.1,1.2,0.1,1.8,0.1c0.5,0,1.2,0.1,2,0.2l-3,28.5c-2.2-0.7-4-1.2-5.6-1.5c-2.3-0.2-4.1-0.4-5.2-0.4c-7.6,0-13.5,2.3-17.7,7
		c-4.1,4.6-6.2,11.2-6.2,19.8v36.7H1490.4z"/>
	<path d="M1575.6,680.2l-0.2-66.6h-13.3v-22.1h13.3v-26.5h31.1v26.5h13.1v22.1h-13.1v66.6H1575.6z"/>
	<path d="M1625.9,672.8l6.5-23.9c4.6,4,9.6,7.1,15.1,9.1c5.4,2.2,11,3.2,16.5,3.2c4,0,7-0.7,9-2c2.1-1.2,3.1-3,3.1-5.4
		c0-3.9-4.1-6.8-12.4-8.8c-2.9-0.6-5-1.2-6.5-1.7c-9.6-2.8-16.3-6.2-20.3-10.3c-4.3-4.2-6.5-9.6-6.5-16.2c0-8.6,3.3-15.4,9.8-20.7
		c6.3-5.2,15-7.7,26.3-7.7c5.4,0,11.2,0.6,17.4,1.9c5.2,1.1,11.2,3.1,18,6.2l-6.5,21.6c-4.2-2.9-8.5-5-12.7-6.4
		c-4-1.5-8.3-2.2-12.7-2.2c-3.6,0-6.4,0.6-8.2,1.7c-1.8,1.1-2.6,2.7-2.6,4.8c0,3,4.1,5.7,12.4,7.9c2.7,0.8,4.1,1.2,4.1,1.2
		c10.8,3,18.3,6.6,22.7,10.8c4.2,4.4,6.3,10.1,6.3,17.1c0,9.1-3.5,16.4-10.5,22c-7.1,5.6-16.4,8.4-27.7,8.4
		c-7.9,0-15.1-0.9-21.7-2.7S1631.9,676.4,1625.9,672.8z"/>
</g>
</svg>
