<?xml version="1.0" encoding="utf-8"?>
<!-- Generator: Adobe Illustrator 25.2.0, SVG Export Plug-In . SVG Version: 6.00 Build 0)  -->
<svg version="1.1" id="Square" xmlns="http://www.w3.org/2000/svg" xmlns:xlink="http://www.w3.org/1999/xlink" x="0px" y="0px"
	 viewBox="0 0 1920 1080" style="enable-background:new 0 0 1920 1080;" xml:space="preserve">
<rect id="BG" x="460" y="40" style="fill:#FFFFFF;" width="1000" height="1000"/>
<path id="Logo" style="fill:#000000;" d="M858.6,643.5H799l102.6-230.8h59.6L858.6,643.5z M842.2,412.8h-59.6L680,643.5h59.6L842.2,412.8z M1099.4,366.3
	h-59.5L917,642.8h59.5L1099.4,366.3z M1219.5,366.3l20.5-46.5H823.5L803,366.3H1219.5z"/>
<g id="Text" style="fill:#000000;">
	<path d="M763.3,738.2h-16.9l-3.9-28.7c-0.3-2.6-0.6-4.8-0.7-6.8c-0.2-1.9-0.4-4.6-0.6-8.1c-0.5,3.1-1.4,6.7-2.5,10.5
		c-0.2,0.8-0.4,1.4-0.5,2l-9,31.2h-12.1l-9-31.2c-0.1-0.5-0.3-1.2-0.5-2c-1.3-4.1-2.1-7.6-2.5-10.5c-0.2,3.3-0.5,5.8-0.7,7.4
		c-0.1,0.8-0.2,2.1-0.4,3.7s-0.3,2.9-0.4,3.7l-3.9,28.7h-16.8l10.3-66.5h17.9l10,34.3c0.2,0.6,0.3,1,0.4,1.2
		c0.9,2.8,1.5,5.4,1.8,7.8c0.1-0.8,0.3-2.1,0.7-4c0.1-0.5,0.6-2.2,1.4-5.1l10.1-34.2h18L763.3,738.2z"/>
	<path d="M820.6,715.4c0,3.4-0.7,6.5-2,9.4c-1.4,3.1-3.2,5.8-5.6,8c-2.7,2.5-5.4,4.3-8.3,5.4c-3,1.2-6.3,1.8-9.9,1.8
		c-3.6,0-6.9-0.6-9.9-1.8c-3-1.2-5.8-3-8.3-5.4c-2.5-2.4-4.4-5.1-5.5-8c-1.3-2.8-2-5.9-2-9.4c0-3.4,0.7-6.5,2-9.5c1.2-3,3-5.7,5.5-8
		c2.4-2.3,5.1-4.1,8.3-5.3c3-1.2,6.3-1.7,9.9-1.7c3.6,0,6.9,0.6,9.9,1.7c3.1,1.2,5.9,3,8.3,5.3c2.5,2.3,4.4,4.9,5.6,8
		C819.9,708.8,820.6,712,820.6,715.4z M804.5,715.4c0-3.4-0.9-6.1-2.6-8.1c-1.8-2-4.1-3-7-3c-3,0-5.3,1-7,3
		c-1.7,1.9-2.6,4.6-2.6,8.1c0,3.4,0.8,6.1,2.5,8c1.8,2,4.2,3,7.1,3s5.3-1,7.1-3C803.7,721.4,804.5,718.7,804.5,715.4z"/>
	<path d="M832.4,738.2l-0.1-34.4h-6.9v-11.4h6.9v-13.7h16.1v13.7h6.8v11.4h-6.8v34.4H832.4z"/>
	<path d="M911.4,715.4c0,3.4-0.7,6.5-2,9.4c-1.4,3.1-3.2,5.8-5.6,8c-2.7,2.5-5.4,4.3-8.3,5.4c-3,1.2-6.3,1.8-9.9,1.8
		c-3.6,0-6.9-0.6-9.9-1.8c-3-1.2-5.8-3-8.3-5.4c-2.5-2.4-4.4-5.1-5.5-8c-1.3-2.8-2-5.9-2-9.4c0-3.4,0.7-6.5,2-9.5c1.2-3,3-5.7,5.5-8
		c2.4-2.3,5.1-4.1,8.3-5.3c3-1.2,6.3-1.7,9.9-1.7c3.6,0,6.9,0.6,9.9,1.7c3.1,1.2,5.9,3,8.3,5.3c2.5,2.3,4.4,4.9,5.6,8
		C910.7,708.8,911.4,712,911.4,715.4z M895.3,715.4c0-3.4-0.9-6.1-2.6-8.1c-1.8-2-4.1-3-7-3c-3,0-5.3,1-7,3
		c-1.7,1.9-2.6,4.6-2.6,8.1c0,3.4,0.8,6.1,2.5,8c1.8,2,4.2,3,7.1,3s5.3-1,7.1-3C894.5,721.4,895.3,718.7,895.3,715.4z"/>
	<path d="M920.8,738.2v-45.9H936v10.8c1.6-4,3.7-6.9,6.4-8.9c2.8-2,6.1-3,9.9-3c0.9,0,1.5,0,2,0.1c0.3,0,0.6,0.1,0.9,0.1
		s0.6,0.1,1,0.1l-1.5,14.7c-1.1-0.4-2.1-0.6-2.9-0.8c-1.2-0.1-2.1-0.2-2.7-0.2c-3.9,0-7,1.2-9.1,3.6c-2.1,2.4-3.2,5.8-3.2,10.2v19
		H920.8z"/>
	<path d="M958,734.3l3.4-12.4c2.4,2.1,5,3.7,7.8,4.7c2.8,1.1,5.7,1.7,8.5,1.7c2.1,0,3.6-0.3,4.6-1c1.1-0.6,1.6-1.6,1.6-2.8
		c0-2-2.1-3.5-6.4-4.5c-1.5-0.3-2.6-0.6-3.4-0.9c-4.9-1.5-8.4-3.2-10.5-5.3c-2.2-2.2-3.4-4.9-3.4-8.4c0-4.4,1.7-8,5-10.7
		c3.2-2.7,7.8-4,13.6-4c2.8,0,5.8,0.3,9,1c2.7,0.5,5.8,1.6,9.3,3.2l-3.4,11.2c-2.2-1.5-4.4-2.6-6.6-3.3c-2.1-0.8-4.3-1.1-6.6-1.1
		c-1.9,0-3.3,0.3-4.2,0.9c-0.9,0.5-1.4,1.4-1.4,2.5c0,1.6,2.1,2.9,6.4,4.1c1.4,0.4,2.1,0.6,2.1,0.6c5.6,1.6,9.5,3.4,11.7,5.6
		c2.2,2.3,3.3,5.2,3.3,8.8c0,4.7-1.8,8.5-5.4,11.3c-3.7,2.9-8.5,4.4-14.3,4.4c-4.1,0-7.8-0.5-11.2-1.4
		C964.3,737.6,961,736.2,958,734.3z"/>
	<path d="M1007.3,758.4v-66h14.9v7.7c2-2.9,4.3-5.2,6.9-6.9c2.5-1.5,5.4-2.2,8.6-2.2c3.2,0,6.1,0.5,8.7,1.6c2.6,1.1,4.8,2.7,6.7,4.9
		c3.8,4.3,5.7,10.3,5.7,17.9c0,7.3-1.9,13.2-5.7,17.8c-1.9,2.3-4.1,4-6.6,5.1s-5.2,1.7-8.3,1.7c-3.9,0-7.1-0.7-9.5-2.1
		c-2.3-1.4-4.5-3.7-6.5-7.1c0.2,0.7,0.3,1.8,0.4,3.4c0.1,0.9,0.1,2.5,0.1,4.8v19.5H1007.3z M1021.7,715.4c0,3.6,1,6.4,2.9,8.5
		c1.8,2,4.3,3,7.6,3c3.3,0,5.9-1,7.7-3c1.8-2.1,2.8-4.9,2.8-8.5c0-3.6-0.9-6.4-2.8-8.4c-1.9-2.1-4.4-3.1-7.7-3.1
		c-3.3,0-5.8,1-7.6,3.1C1022.6,708.9,1021.7,711.8,1021.7,715.4z"/>
	<path d="M1117.3,715.4c0,3.4-0.7,6.5-2,9.4c-1.4,3.1-3.2,5.8-5.6,8c-2.7,2.5-5.4,4.3-8.3,5.4c-3,1.2-6.3,1.8-9.9,1.8
		c-3.6,0-6.9-0.6-9.9-1.8c-3-1.2-5.8-3-8.3-5.4c-2.5-2.4-4.4-5.1-5.5-8c-1.3-2.8-2-5.9-2-9.4c0-3.4,0.7-6.5,2-9.5c1.2-3,3-5.7,5.5-8
		c2.4-2.3,5.1-4.1,8.3-5.3c3-1.2,6.3-1.7,9.9-1.7c3.6,0,6.9,0.6,9.9,1.7c3.1,1.2,5.9,3,8.3,5.3c2.5,2.3,4.4,4.9,5.6,8
		C1116.6,708.8,1117.3,712,1117.3,715.4z M1101.2,715.4c0-3.4-0.9-6.1-2.6-8.1c-1.8-2-4.1-3-7-3c-3,0-5.3,1-7,3
		c-1.7,1.9-2.6,4.6-2.6,8.1c0,3.4,0.8,6.1,2.5,8c1.8,2,4.2,3,7.1,3s5.3-1,7.1-3C1100.3,721.4,1101.2,718.7,1101.2,715.4z"/>
	<path d="M1126.7,738.2v-45.9h15.3v10.8c1.6-4,3.7-6.9,6.4-8.9c2.8-2,6.1-3,9.9-3c0.9,0,1.5,0,2,0.1c0.3,0,0.6,0.1,0.9,0.1
		s0.6,0.1,1,0.1l-1.5,14.7c-1.1-0.4-2.1-0.6-2.9-0.8c-1.2-0.1-2.1-0.2-2.7-0.2c-3.9,0-7,1.2-9.1,3.6c-2.1,2.4-3.2,5.8-3.2,10.2v19
		H1126.7z"/>
	<path d="M1170.7,738.2l-0.1-34.4h-6.9v-11.4h6.9v-13.7h16.1v13.7h6.8v11.4h-6.8v34.4H1170.7z"/>
	<path d="M1196.7,734.3l3.4-12.4c2.4,2.1,5,3.7,7.8,4.7c2.8,1.1,5.7,1.7,8.5,1.7c2.1,0,3.6-0.3,4.6-1c1.1-0.6,1.6-1.6,1.6-2.8
		c0-2-2.1-3.5-6.4-4.5c-1.5-0.3-2.6-0.6-3.4-0.9c-4.9-1.5-8.4-3.2-10.5-5.3c-2.2-2.2-3.4-4.9-3.4-8.4c0-4.4,1.7-8,5-10.7
		c3.2-2.7,7.8-4,13.6-4c2.8,0,5.8,0.3,9,1c2.7,0.5,5.8,1.6,9.3,3.2l-3.4,11.2c-2.2-1.5-4.4-2.6-6.6-3.3c-2.1-0.8-4.3-1.1-6.6-1.1
		c-1.9,0-3.3,0.3-4.2,0.9c-0.9,0.5-1.4,1.4-1.4,2.5c0,1.6,2.1,2.9,6.4,4.1c1.4,0.4,2.1,0.6,2.1,0.6c5.6,1.6,9.5,3.4,11.7,5.6
		c2.2,2.3,3.3,5.2,3.3,8.8c0,4.7-1.8,8.5-5.4,11.3c-3.7,2.9-8.5,4.4-14.3,4.4c-4.1,0-7.8-0.5-11.2-1.4
		C1203,737.6,1199.8,736.2,1196.7,734.3z"/>
</g>
</svg>
