<svg xmlns="http://www.w3.org/2000/svg" viewBox="0 0 665.22328 425.70711"><defs><style>.cls-1{fill:#fff;}.cls-2{fill:#231f20;}.cls-3{fill:none;stroke:#ce1126;stroke-miterlimit:10;stroke-width:8px;}</style></defs><g id="Layer_2" data-name="Layer 2"><g id="IIT-RedBlackOnWhite-Outline-Motorsports"><path class="cls-1" d="M219.60694,424.70711,323.09425,191.93074H384.8755L281.38868,424.70711Zm-118.99023,0L204.103,191.93074h61.78174L162.39845,424.70711Zm236.98437-.77441L460.51124,147.46492H223.66993l21.36768-48.46484H663.69l-21.36719,48.46484H522.1919L399.28175,423.9327Z"/><path class="cls-2" d="M662.15577,100l-20.48584,46.46512H521.54261l-122.91,276.46765h-59.4928l122.91-276.46765H225.20356L245.6894,100H662.15577m-278.8197,92.93033L280.7389,423.70711H221.14613L323.74336,192.93032h59.59271m-118.99036,0L161.74854,423.70711H102.15577L204.75294,192.93032h59.59277M665.22328,98H244.38539l-.526,1.19314-20.48584,46.46515-1.23754,2.80683H458.97193L337.3122,422.12026l-1.25036,2.8125h63.8703l.52795-1.18756L522.84217,148.46511H642.97389l.526-1.19312,20.48584-46.46518L665.22328,98ZM386.414,190.93032H322.4438l-.528,1.1875L219.31861,422.89467l-1.25036,2.81244h63.97027l.528-1.1875,102.5971-230.77685,1.25037-2.81244Zm-118.99036,0H203.45332l-.528,1.1875L100.32826,422.89467l-1.25043,2.81244h63.97034l.52789-1.1875L266.17323,193.74276l1.25036-2.81244Z"/><path class="cls-1" d="M194.83741,401.20711,298.76905,167.43074h62.876L257.71339,401.20711Zm-118.99023,0L179.77833,167.43074h62.876L138.72315,401.20711Zm236.98437-.77441L435.74171,123.96492H198.90284l21.8086-49.46484H640.45655L618.648,123.96492H498.5171L375.60694,400.4327Z"/><path class="cls-2" d="M638.15577,76l-20.48584,46.46515H497.54261l-122.91,276.46762h-59.4928l122.91-276.46762H201.20356L221.6894,76H638.15577m-278.8197,92.93033L256.7389,399.70711H197.14613L299.74336,168.93032h59.59271m-118.99036,0L137.74854,399.70711H78.15577L180.75294,168.93032h59.59277M642.75709,73H219.73341l-.78913,1.78976L198.45844,121.2549l-1.8562,4.21024H433.433L312.39845,397.71407l-1.87555,4.21869h66.059l.79187-1.78131L499.492,125.46514H619.626l.78906-1.78977,20.48584-46.46515L642.75709,73Zm-278.8042,92.93033H297.794l-.79194,1.78125L194.40486,398.48842l-1.87555,4.21869h66.159l.79193-1.78131L362.0774,170.149l1.87549-4.21869Zm-118.99036,0h-66.159l-.79193,1.78125L75.41444,398.48842,73.539,402.70711h66.159l.79193-1.78131L243.087,170.149l1.87555-4.21869Z"/><path class="cls-1" d="M170.06788,377.70711,274.44337,142.93026h63.97119l-104.376,234.77685Zm-118.99023,0L155.45313,142.93026h63.97071L115.04835,377.70711ZM288.062,376.9327,410.97218,100.46492H174.13624l22.249-50.46484H617.22315l-22.249,50.46484H474.84229L351.93214,376.9327Z"/><path class="cls-2" d="M614.15577,52,593.66993,98.46517H473.54261l-122.91,276.46759h-59.4928l122.91-276.46759H177.2035L197.68946,52H614.15577m-278.81964,92.9303L232.739,375.70717H173.14613L275.74336,144.93032h59.59277m-118.99042,0L113.74854,375.70717H54.15577L156.75294,144.93032h59.59277M620.2909,48H195.08143l-1.05206,2.38632-20.4859,46.46518-2.475,5.61365H407.89405L287.48469,373.30782l-2.50067,5.62494h68.2478l1.05591-2.37506,121.854-274.09253H596.278l1.052-2.38632,20.48584-46.46518L620.2909,48Zm-278.79907,92.9303H273.14417l-1.0559,2.37512L169.491,374.08223l-2.50067,5.62494h68.34771l1.05591-2.37506L338.99116,146.55526l2.50067-5.62494Zm-118.99042,0H154.15376l-1.05591,2.37512L50.50068,374.08223,48,379.70717h68.34766l1.056-2.37506,102.5971-230.77685,2.50067-5.62494Z"/><path class="cls-1" d="M145.29884,354.20711,250.11866,118.43026h65.06543L210.36329,354.20711Zm-118.99024,0L131.12843,118.43026h65.06445L91.37306,354.20711Zm236.98389-.77441L386.20265,76.96492H149.36915l22.69043-51.46484H593.98976L571.3003,76.96492H451.16651L328.25636,353.4327Z"/><path class="cls-2" d="M590.15577,28,569.66993,74.46517H449.54261l-122.91,276.46759h-59.4928l122.91-276.46759H153.2035L173.68946,28H590.15577M311.33613,120.93026,208.739,351.70717H149.14613L251.74336,120.93026h59.59277m-118.99042,0L89.74854,351.70717H30.15577L132.75294,120.93026h59.59277M597.82459,23H170.42951l-1.31518,2.98291-20.4859,46.46518-3.09375,7.01706H382.35511L262.57093,348.90157l-3.12591,7.03119H329.8816l1.31983-2.96881L452.79164,79.46517H572.92982l1.31518-2.98291,20.48584-46.46515L597.82459,23ZM319.03083,115.93026h-70.5365l-1.31982,2.96884L144.57728,349.676l-3.12592,7.03119h70.53656l1.31983-2.96881L315.90492,122.96141l3.12591-7.03115Zm-118.99042,0H129.50392l-1.31983,2.96884L25.58692,349.676,22.461,356.70717h70.5365l1.31982-2.96881L196.9145,122.96141l3.12591-7.03115Z"/><path class="cls-3" d="M243.13978,326.93277l122.91-276.46762H129.20359L149.68942,4H566.15577L545.66993,50.46515H425.54262L302.63256,326.93277ZM287.33612,96.93029H227.74334L125.14616,327.70719h59.59277ZM65.74854,327.70719H6.15577L108.753,96.93029h59.59277Z"/></g></g></svg>