<?xml version="1.0" encoding="utf-8"?>
<!-- Generator: Adobe Illustrator 25.2.0, SVG Export Plug-In . SVG Version: 6.00 Build 0)  -->
<svg version="1.1" id="Layer_1" xmlns="http://www.w3.org/2000/svg" xmlns:xlink="http://www.w3.org/1999/xlink" x="0px" y="0px"
	 viewBox="0 0 200 200" style="enable-background:new 0 0 200 200;" xml:space="preserve">
<style type="text/css">
	.st0{fill:#040707;}
</style>
<path class="st0" d="M191.6,51.8c-2.7-5.3-7.1-9.9-12.5-12.4c-6-2.9-12.9-4.1-19.5-4.5c-1.2-0.1-1.5,0.8-1.8,1.7c4,1,8,1.4,11.8,3.3
	c4.2,2.2,8.1,5.8,10,10.2c0.4,1.1,0.9,2.6,0.4,3.7c-0.6,1.2-1.6,2.2-2.1,3.4c0.8,0.8,1.8,0.6,2.9,0.8c3.1,0.2,6,0.9,8.6,2.5
	c1.8,1.2,2.8,2.8,4.1,4.4C194.3,60.6,193.4,55.8,191.6,51.8z M191.6,51.8c-2.7-5.3-7.1-9.9-12.5-12.4c-6-2.9-12.9-4.1-19.5-4.5
	c-1.2-0.1-1.5,0.8-1.8,1.7c4,1,8,1.4,11.8,3.3c4.2,2.2,8.1,5.8,10,10.2c0.4,1.1,0.9,2.6,0.4,3.7c-0.6,1.2-1.6,2.2-2.1,3.4
	c0.8,0.8,1.8,0.6,2.9,0.8c3.1,0.2,6,0.9,8.6,2.5c1.8,1.2,2.8,2.8,4.1,4.4C194.3,60.6,193.4,55.8,191.6,51.8z M196.8,49.2
	c-2.5-5.7-7.1-10.4-12.6-13.2c-9.2-4.9-20.3-6.7-30.6-6.8c-5.3,0.1-10.6,0.5-15.9,1.5c-1.9,0.6-3.1-0.8-4.8-1.4
	c-9.9-4.6-21-6.1-31.7-4.6c-12.9,1.7-24.6,7.1-35.8,13.4c-10.1,5.8-20,11.9-29.4,18.7c-1.7,1.4-4.1,2.8-5.1,4.8
	c-0.7,1.5-0.1,2.9,1.3,3.5c1.9,0.7,4,0.7,6,1.3c-7.3,6.2-14.6,12.1-21.5,18.8c-1.2,1.2-2.5,2.5-3.5,3.9c-0.7,1-1,2.5-0.3,3.5
	c0.7,1.1,2,1.1,3.2,1.2c2.3-0.1,4.6-0.3,6.9-0.1c-0.8,1.7-2.2,2.6-3.4,3.9c-3.3,3.2-6.3,6.8-8.8,10.6C4,119.4,0.1,132.6,0.4,145.7
	c0,3.1,0.5,6.2,1.1,9.2c2.6-6.2,6.6-11.7,12.1-15.7c3.6-2.6,7.6-4.5,11.9-5.6c1.4,5,3,10.1,5.6,14.6c3,5.1,7.2,9.5,12.5,12.2
	c-0.4-2.2-1-5.2-0.1-7.3c0.6-0.9,1-1.2,1.7-0.2c1.7,3.3,4.3,5.8,7.3,7.8c4.8,3.1,10.2,5.3,16,5.5c-0.3-2.4-0.7-4.8-0.6-7.2
	c0.1-1,0.2-2,1.3-2.2c1.8,0.3,3.4,2,5,2.9c6.3,3.8,12.9,6.9,19.7,9.5c7.2,2.7,15,5.3,22.7,6.2c11.3,1.1,22.6,0.9,34,0.2
	c-1.8-2.3-3.9-4.3-5.9-6.4c-2.9-3-6.1-5.6-8.7-8.9c-3.7-4.5-6.8-10.2-7-16.2c-0.3-4.2,0.1-8.8,1.9-12.7
	c4.9-10.7,11.4-20.3,18.5-29.6c6.1-7.8,12.6-15.2,19.6-22.1c4.3-4.2,8.6-8.2,13.5-11.8c0.4-0.3,0.8-0.5,1.2-0.7
	c1.7,0.4,3,1.8,3.8,3.2c1.3,2.3,1.8,4.9,2.2,7.5c0.2,1,0.2,2.1,0.9,2.9c0.8,0.9,2.1,1.1,3.1,0.7c0.9-0.3,1.3-1.3,1.8-2
	c2-3.2,2.9-6.7,3.5-10.4C200.2,62.3,199.5,55.4,196.8,49.2z M160.5,80.8c-8.5,7.8-16.9,15.8-25.2,23.8c-4.6,4.5-8.8,9.3-13.1,14
	c-6.9,7.7-13.7,15.5-20.5,23.4c-1,1.2-2.1,2.3-2.9,3.6c-0.4,0.7-0.7,1.7,0.2,2.1c1,0.9,2.6-0.4,3.5-1.1c5.9-5,11.8-10,17.6-15.1
	c0.8-0.6,1.3-1.1,2.4-0.9c0.4,1.5-0.6,3.3-1,4.8c-1.4,3.9-1.8,7.9-1,11.9c0.9,5,3.4,9.3,6.5,13.3c2.6,3.5,5.7,6.3,8.7,9.4
	c-7.5,0-15.4,0-22.7-1.4c-7.1-1.2-13.9-3.6-20.4-6.7c-7.9-3.4-15.3-7.9-22-13.3c-1-0.8-2.1-1.8-3.4-2c-1.6,0.2-2.6,1.7-3.2,3.1
	c-1.2,2.8-1.5,6.2-1.8,9.2c-3.1-1.1-5.7-2.8-7.7-5.3c-3.3-4.3-4.8-9.9-4.4-15.3c0.1-1.4,0.4-2.9,0.1-4.2c-0.2-1-1.4-1.8-2.4-1.4
	c-1.7,0.6-3.1,2.3-4,3.8c-2.5,3.9-3.1,8.9-4,13.3c-4.6-5.2-6.8-11.9-6.9-18.8c-0.3-8.9,2.7-17.8,7-25.4c4.7-8.2,11-15.7,17.8-22.2
	c1.1-1,2.4-2,3.1-3.3c0.5-1.1-0.7-2.4-1.9-2.2c-3.8,0.1-7.5,0.9-11.2,1.4c-0.8,0.1-1.8,0.2-2.5-0.2c0.7-1.5,1.7-2.6,2.9-3.7
	c5.7-5.6,10.9-11.3,17.3-16.2c3.8-2.9,8.7-4.4,13.4-4.9c4-0.4,7.5,0.7,11.1,2.3c0.7,1.8,1.4,3.4,2.5,5c2.2,2.9,5.4,4.8,8.8,5.8
	c4,1.1,8.5,1.2,12.5-0.2c3.8-1.3,7.2-4.3,8.7-8.1c1.5-4.1,1.8-8.4,1.2-12.7c1.2-1.3,1.5-1.8,1.6-3.7c-2.5,0.8-4.8,2-7.3,2.8
	c-2.9,0.9-6,1.5-9,2c-5.7,0.8-11,0.2-16.7,0.5c-6.3,0.3-12.7,1.2-18.7,3.1c-5,1.6-8.9,4.5-12.8,7.8c-8.3,7-16.4,14.3-24.6,21.4
	c-1.2,1.1-2.7,2-3.3,3.6c4.5,0.8,9.3-0.4,13.7,0.5c-1,2-2.5,3.6-4.1,5.2c-4.2,4.4-8.4,8.6-11.6,13.8c-4.7,7.2-7.4,15.4-7.3,24
	c-2.8,0.6-5.5,1.4-8,2.8c-3.6,2-6.5,4.7-9,7.9c0.6-5.1,2-10,4-14.7c2.6-6.3,6.1-12.4,10-18c3-4,6.1-7.9,9.3-11.8
	c1.2-1.5,2.8-3,3.5-4.7c-0.5-0.3-1-0.6-1.7-0.6c-3.1-0.2-6.4,0.2-9.5-0.2c-0.3-0.5-0.5-0.8-0.1-1.3c1.1-1.8,2.9-3.2,4.4-4.6
	c6.3-5.6,13.1-10.8,19.8-15.9c1.3-1.1,3.1-2,3.9-3.5c0.4-1-0.2-1.7-1.1-1.9c-3.6-0.6-7.4-0.2-11.1-1c2.2-1.8,4.6-3.2,7-4.8
	c7.2-4.7,14.5-9.4,21.9-13.8c4.1-2.5,8.4-4.6,12.7-6.7c10.4-4.8,21.4-7.7,32.9-7.3c8,0.3,16.5,2.4,23.3,6.7
	c-5.5-1.2-10.7-2.7-16.4-3.1c-3.7-0.3-7.5-0.1-11.2,0.5c-1.2,0.2-2.2,0.5-3.1,1.2c0.3,0.4,0.6,0.7,1,1c2.3,0.2,4.6-0.2,6.9,0.1
	c4,0.4,7.9,2,11.3,4c3.7,2.3,7,5.7,8.8,9.7c1.3,3.1,1.2,7.5-1.1,10.2c-0.2-1.7,0-3.5-0.5-5.1c-0.6-1.8-2.1-2.5-3.7-3.4
	c-0.2,3.1-0.6,6.1-1.8,9.1c-1.5,3.9-4.1,7.3-7.7,9.6c-4.5,2.9-10,3.8-15.2,3.2c-2.1-0.2-3.8-1-5.8-0.3c3.7,3.9,8.2,5.6,13.1,7.5
	c-2.3,7.4-4.2,15-6.4,22.4c-0.4,1.5-1,3.2-0.9,4.7c0.1,1.2,1.4,2.2,2.6,1.8c1-0.4,1.9-1.4,2.6-2.2c6.8-7.5,14.5-13.5,22.6-19.6
	c8.7-6.8,20.7-9.1,31.5-7.1C161.7,79.2,161.3,80.2,160.5,80.8z M116.6,57c1.7-0.1,2.9-1,4.3-2c-0.6,1.6-1.2,3.2-2.2,4.5
	c-2.3,3-6,4.9-9.8,4.8c-4.4,0.1-8.6-2.5-10.7-6.5c-1.2-2.3-1.5-4.8-1.4-7.3c4.5,0,8.9-0.2,13.3-0.8c0,1.1,0,2.1,0.3,3.1
	C111.3,55.4,113.9,57.2,116.6,57z M114,49.1c2.1-0.4,4.1-0.8,6.2-1.2c-0.7,2-1.3,4-2,5.9C116.8,52.2,115.4,50.7,114,49.1z M193.3,73
	c-0.7-1.9-0.8-4-1.6-5.9c-0.8-2.2-2.2-4.1-4.3-5.1c-2.7-1.3-5.9-1.5-8.9-1.4c-11.2,0.6-21.4,4.5-31.2,9.7
	c-6.6,3.4-12.9,7.2-18.9,11.6c-6.5,4.7-12.4,10.4-17.9,16c-0.8,0.8-1.6,1.4-2.5,2c0.2-0.9,0.5-1.8,0.9-2.7c2.8-5.8,6-11.3,9.8-16.4
	c3.1-4.1,6.5-7.8,10.1-11.4c5.5-5.7,11.8-10.7,18-15.5c1-0.8,1.9-1.7,2-3.1c0-1.5-0.6-3-1.2-4.4c-2.2-4.7-4.8-9.1-8.4-12.9
	c7.7-1.5,15.6-1.7,23.4-0.7c6.7,0.8,13.2,2.5,19.3,5.6c7.1,3.6,12.7,10.9,13.6,18.9C196.1,62.4,195.6,68.2,193.3,73z M179.1,39.3
	c-6-2.9-12.9-4.1-19.5-4.5c-1.2-0.1-1.5,0.8-1.8,1.7c4,1,8,1.4,11.8,3.3c4.2,2.2,8.1,5.8,10,10.2c0.4,1.1,0.9,2.6,0.4,3.7
	c-0.6,1.2-1.6,2.2-2.1,3.4c0.8,0.8,1.8,0.6,2.9,0.8c3.1,0.2,6,0.9,8.6,2.5c1.8,1.2,2.8,2.8,4.1,4.4c0.9-4.4,0-9.2-1.8-13.2
	C188.9,46.4,184.5,41.9,179.1,39.3z M191.6,51.8c-2.7-5.3-7.1-9.9-12.5-12.4c-6-2.9-12.9-4.1-19.5-4.5c-1.2-0.1-1.5,0.8-1.8,1.7
	c4,1,8,1.4,11.8,3.3c4.2,2.2,8.1,5.8,10,10.2c0.4,1.1,0.9,2.6,0.4,3.7c-0.6,1.2-1.6,2.2-2.1,3.4c0.8,0.8,1.8,0.6,2.9,0.8
	c3.1,0.2,6,0.9,8.6,2.5c1.8,1.2,2.8,2.8,4.1,4.4C194.3,60.6,193.4,55.8,191.6,51.8z M191.6,51.8c-2.7-5.3-7.1-9.9-12.5-12.4
	c-6-2.9-12.9-4.1-19.5-4.5c-1.2-0.1-1.5,0.8-1.8,1.7c4,1,8,1.4,11.8,3.3c4.2,2.2,8.1,5.8,10,10.2c0.4,1.1,0.9,2.6,0.4,3.7
	c-0.6,1.2-1.6,2.2-2.1,3.4c0.8,0.8,1.8,0.6,2.9,0.8c3.1,0.2,6,0.9,8.6,2.5c1.8,1.2,2.8,2.8,4.1,4.4
	C194.3,60.6,193.4,55.8,191.6,51.8z"/>
</svg>
